<svg xmlns="http://www.w3.org/2000/svg" xmlns:svg="http://www.w3.org/2000/svg" id="svg2" x="0" y="0" version="1.1" viewBox="0 0 40.7 33.2" style="enable-background:new 0 0 40.7 33.2" xml:space="preserve"><metadata id="metadata90"/><style id="style4" type="text/css">.st0{display:none}.st1{display:inline;fill:#9d9d9c}.st21{fill:#010202}</style><g id="Ebene_4" class="st0"><rect id="rect7" width="1421.9" height="1801.4" x="-136.7" y="-775.5" class="st1"/></g><g id="Ebene_3" style="fill:#0f0;fill-opacity:1;stroke:none"><g id="g12" style="fill:#0f0;fill-opacity:1;stroke:none"><g id="g14" style="fill:#0f0;fill-opacity:1;stroke:none"><g id="g16" style="fill:#0f0;fill-opacity:1;stroke:none"><g id="g18" style="fill:#0f0;fill-opacity:1;stroke:none"><path id="path20" d="M28.8,10.1c0.1-0.2,0.3-0.4,0.4-0.5l-2-1.1c-0.1,0.2-0.1,0.4-0.2,0.6c-0.1,0.2-0.3,0.4-0.4,0.5l2,1.1 C28.6,10.5,28.7,10.3,28.8,10.1z" class="st21" style="fill:#0f0;fill-opacity:1;stroke:none"/><path id="path22" d="M28.8,10.1c0.1-0.2,0.3-0.4,0.4-0.5l-2-1.1c-0.1,0.2-0.1,0.4-0.2,0.6c-0.1,0.2-0.3,0.4-0.4,0.5l2,1.1 C28.6,10.5,28.7,10.3,28.8,10.1z" class="st21" style="fill:#0f0;fill-opacity:1;stroke:none"/><path id="path24" d="M28.8,10.1c0.1-0.2,0.3-0.4,0.4-0.5l-2-1.1c-0.1,0.2-0.1,0.4-0.2,0.6c-0.1,0.2-0.3,0.4-0.4,0.5l2,1.1 C28.6,10.5,28.7,10.3,28.8,10.1z" class="st21" style="fill:#0f0;fill-opacity:1;stroke:none"/><path id="path26" d="M28.8,10.1c0.1-0.2,0.3-0.4,0.4-0.5l-2-1.1c-0.1,0.2-0.1,0.4-0.2,0.6c-0.1,0.2-0.3,0.4-0.4,0.5l2,1.1 C28.6,10.5,28.7,10.3,28.8,10.1z" class="st21" style="fill:#0f0;fill-opacity:1;stroke:none"/></g><g id="g28" style="fill:#0f0;fill-opacity:1;stroke:none"><path id="path30" d="M22.9,6.7c0.1-0.2,0.3-0.4,0.4-0.5l-1.2-0.7l-0.1-1.6c-0.4,0.2-0.9,0.2-1.4,0.1l0,1.2L18,4.8 c0.1,0.4,0,0.9-0.2,1.4l3.4,0.4l1.4,0.8C22.7,7.2,22.8,6.9,22.9,6.7z" class="st21" style="fill:#0f0;fill-opacity:1;stroke:none"/><path id="path32" d="M22.9,6.7c0.1-0.2,0.3-0.4,0.4-0.5l-1.2-0.7l-0.1-1.6c-0.4,0.2-0.9,0.2-1.4,0.1l0,1.2L18,4.8 c0.1,0.4,0,0.9-0.2,1.4l3.4,0.4l1.4,0.8C22.7,7.2,22.8,6.9,22.9,6.7z" class="st21" style="fill:#0f0;fill-opacity:1;stroke:none"/><path id="path34" d="M22.9,6.7c0.1-0.2,0.3-0.4,0.4-0.5l-1.2-0.7l-0.1-1.6c-0.4,0.2-0.9,0.2-1.4,0.1l0,1.2L18,4.8 c0.1,0.4,0,0.9-0.2,1.4l3.4,0.4l1.4,0.8C22.7,7.2,22.8,6.9,22.9,6.7z" class="st21" style="fill:#0f0;fill-opacity:1;stroke:none"/><path id="path36" d="M22.9,6.7c0.1-0.2,0.3-0.4,0.4-0.5l-1.2-0.7l-0.1-1.6c-0.4,0.2-0.9,0.2-1.4,0.1l0,1.2L18,4.8 c0.1,0.4,0,0.9-0.2,1.4l3.4,0.4l1.4,0.8C22.7,7.2,22.8,6.9,22.9,6.7z" class="st21" style="fill:#0f0;fill-opacity:1;stroke:none"/></g><g id="g38" style="fill:#0f0;fill-opacity:1;stroke:none"><path id="path40" d="M40.6,16.6L33,12.2c0,0.1-0.1,0.1-0.1,0.2c0,0.1-0.1,0.1-0.1,0.2l7.6,4.4c0.1,0.1,0.2,0,0.3-0.1 C40.7,16.8,40.7,16.7,40.6,16.6z" class="st21" style="fill:#0f0;fill-opacity:1;stroke:none"/><path id="path42" d="M40.6,16.6L33,12.2c0,0.1-0.1,0.1-0.1,0.2c0,0.1-0.1,0.1-0.1,0.2l7.6,4.4c0.1,0.1,0.2,0,0.3-0.1 C40.7,16.8,40.7,16.7,40.6,16.6z" class="st21" style="fill:#0f0;fill-opacity:1;stroke:none"/><path id="path44" d="M40.6,16.6L33,12.2c0,0.1-0.1,0.1-0.1,0.2c0,0.1-0.1,0.1-0.1,0.2l7.6,4.4c0.1,0.1,0.2,0,0.3-0.1 C40.7,16.8,40.7,16.7,40.6,16.6z" class="st21" style="fill:#0f0;fill-opacity:1;stroke:none"/><path id="path46" d="M40.6,16.6L33,12.2c0,0.1-0.1,0.1-0.1,0.2c0,0.1-0.1,0.1-0.1,0.2l7.6,4.4c0.1,0.1,0.2,0,0.3-0.1 C40.7,16.8,40.7,16.7,40.6,16.6z" class="st21" style="fill:#0f0;fill-opacity:1;stroke:none"/></g></g><g id="g48" style="fill:#0f0;fill-opacity:1;stroke:none"><g id="g50" style="fill:#0f0;fill-opacity:1;stroke:none"><path id="path52" d="M14.2,4.4c0.5-0.8,1.5-1.1,2.3-0.6c0.8,0.5,1.1,1.5,0.6,2.3c-0.5,0.8-1.5,1.1-2.3,0.6 C14,6.2,13.7,5.2,14.2,4.4" class="st21" style="fill:#0f0;fill-opacity:1;stroke:none"/></g></g><g id="g54" style="fill:#0f0;fill-opacity:1;stroke:none"><g id="g56" style="fill:#0f0;fill-opacity:1;stroke:none"><path id="path58" d="M19.8,0.9c0.5-0.8,1.5-1.1,2.3-0.6c0.8,0.5,1.1,1.5,0.6,2.3c-0.5,0.8-1.5,1.1-2.3,0.6 C19.6,2.7,19.4,1.7,19.8,0.9" class="st21" style="fill:#0f0;fill-opacity:1;stroke:none"/></g></g><g id="g60" style="fill:#0f0;fill-opacity:1;stroke:none"><g id="g62" style="fill:#0f0;fill-opacity:1;stroke:none"><path id="path64" d="M23.5,7C24,6.2,25,5.9,25.8,6.4c0.8,0.5,1.1,1.5,0.6,2.3c-0.5,0.8-1.5,1.1-2.3,0.6 C23.3,8.9,23,7.9,23.5,7" class="st21" style="fill:#0f0;fill-opacity:1;stroke:none"/></g></g><g id="g66" style="fill:#0f0;fill-opacity:1;stroke:none"><g id="g68" style="fill:#0f0;fill-opacity:1;stroke:none"><path id="path70" d="M29.3,10.4c0.5-0.8,1.5-1.1,2.3-0.6c0.8,0.5,1.1,1.5,0.6,2.3c-0.5,0.8-1.5,1.1-2.3,0.6 C29.2,12.3,28.9,11.2,29.3,10.4" class="st21" style="fill:#0f0;fill-opacity:1;stroke:none"/></g></g></g><g id="g72" style="fill:#0f0;fill-opacity:1;stroke:none"><g id="g74" style="fill:#0f0;fill-opacity:1;stroke:none"><path id="path76" d="M12.6,26.1c0.2,0.5,0.4,1.1,0.6,1.6l0,0c0.4-0.3,0.8-0.7,1.2-1.2" style="fill:#0f0;fill-opacity:1;stroke:none"/><path id="path78" d="M14.4,26.5c0.2-0.2,0.3-0.4,0.4-0.7c-0.2-0.5-0.3-1-0.4-1.6c0-0.3-0.1-0.7-0.1-1c0-4.3,3.5-7.7,7.7-7.7 c4.3,0,7.7,3.5,7.7,7.7c0,4.3-3.5,7.7-7.7,7.7c-0.9,0-1.7-0.2-2.5-0.4c-0.5,0.6-1,1.2-1.6,1.7c1.3,0.6,2.6,0.9,4.1,0.9 c5.5,0,9.9-4.5,9.9-9.9c0-5.5-4.5-9.9-9.9-9.9c-5.5,0-9.9,4.5-9.9,9.9c0,1,0.1,2,0.4,2.9" style="fill:#0f0;fill-opacity:1;stroke:none"/></g><g id="g80" style="fill:#0f0;fill-opacity:1;stroke:none"><path id="path82" d="M19.4,20.4c-0.2-0.5-0.4-1.1-0.6-1.6l0,0c-0.4,0.3-0.8,0.7-1.2,1.2" style="fill:#0f0;fill-opacity:1;stroke:none"/><path id="path84" d="M17.6,20c-0.2,0.2-0.3,0.4-0.4,0.7c0.2,0.5,0.3,1,0.4,1.6c0,0.3,0.1,0.7,0.1,1c0,4.3-3.5,7.7-7.7,7.7 c-4.3,0-7.7-3.5-7.7-7.7c0-4.3,3.5-7.7,7.7-7.7c0.9,0,1.7,0.2,2.5,0.4c0.5-0.6,1-1.2,1.6-1.7c-1.3-0.6-2.6-0.9-4.1-0.9 c-5.5,0-9.9,4.5-9.9,9.9c0,5.5,4.5,9.9,9.9,9.9c5.5,0,9.9-4.5,9.9-9.9c0-1-0.1-2-0.4-2.9" style="fill:#0f0;fill-opacity:1;stroke:none"/></g></g></g></g></svg>