<svg xmlns="http://www.w3.org/2000/svg" xmlns:svg="http://www.w3.org/2000/svg" id="svg2" width="91.49" height="84.453" version="1.1" viewBox="0 0 91.49 84.453"><metadata id="metadata10"/><path id="path4326" d="m 56.301747,38.7074 q 0,-1.4295 -1.04466,-2.4742 -1.04466,-1.0446 -2.47419,-1.0446 h -14.07544 q -1.42954,0 -2.4742,1.0446 -1.04466,1.0447 -1.04466,2.4742 0,1.4296 1.04466,2.4742 1.04466,1.0447 2.4742,1.0447 h 14.07544 q 1.42953,0 2.47419,-1.0447 1.04466,-1.0446 1.04466,-2.4742 z m 31.66974,-10.5565 v 52.7828 q 0,1.4296 -1.04466,2.4742 -1.04466,1.0447 -2.4742,1.0447 H 7.037719 q -1.429537,0 -2.474198,-1.0447 Q 3.518859,82.3633 3.518859,80.9337 V 28.1509 q 0,-1.4296 1.044662,-2.4742 1.044661,-1.0447 2.474198,-1.0447 h 77.414908 q 1.42954,0 2.4742,1.0447 1.04466,1.0446 1.04466,2.4742 z m 3.51886,-24.6321 v 14.0755 q 0,1.4295 -1.04466,2.4742 -1.04466,1.0446 -2.4742,1.0446 H 3.518859 q -1.429536,0 -2.474198,-1.0446 Q 0,19.0238 0,17.5943 V 3.5188 Q 0,2.0893 1.044661,1.0446 2.089323,0 3.518859,0 h 84.452628 q 1.42954,0 2.4742,1.0446 1.04465,1.0447 1.04465,2.4742 z" style="fill:#000;fill-opacity:1;stroke-width:.05653269"/></svg>