<svg xmlns="http://www.w3.org/2000/svg" xmlns:v="https://vecta.io/nano" width="415.748" height="415.748" viewBox="0 0 110 110"><g stroke="#000" stroke-linejoin="round" stroke-width="1.009" transform="matrix(.991287 0 0 .991287 143.00777 -66.025749)"><path fill="#fff" d="M-118.641 119.532v23.094c0 15.024 12.095 27.12 27.12 27.12h5.48c15.024 0 27.12-12.095 27.12-27.12v-23.065c-19.403 3.515-39.31 3.609-59.72-.029zm31.482-32.751v31.442a161.97 161.97 0 0 0 28.239-2.731V113.9c0-15.024-12.095-27.12-27.12-27.12z"/><path fill="#e02020" d="M-91.521 86.781c-15.024 0-27.12 12.095-27.12 27.12v1.566c9.276 1.692 18.434 2.596 27.482 2.742V86.781z"/><rect width="7.558" height="23.622" x="-92.938" y="91.034" fill="#fff" ry="3.779"/></g></svg>