<svg xmlns="http://www.w3.org/2000/svg" xmlns:v="https://vecta.io/nano" xmlns:xlink="http://www.w3.org/1999/xlink" width="415.748" height="415.748" viewBox="0 0 110 110"><style>.B{stroke:#000}.C{stroke-linejoin:round}.D{stroke-width:1.009}</style><g class="B C"><g transform="matrix(.991287 0 0 .991287 -91.77791 -66.025749) translate(-23.252)"><path fill="#fff" d="M141.46 119.024v23.094c0 15.024 12.095 27.12 27.12 27.12h5.48c15.024 0 27.12-12.095 27.12-27.12v-23.065c-19.403 3.515-39.31 3.609-59.72-.029zm31.482-32.751v31.442a161.97 161.97 0 0 0 28.239-2.731v-1.592c0-15.024-12.095-27.12-27.12-27.12zm-4.362 0c-15.024 0-27.12 12.095-27.12 27.12v1.566c9.276 1.692 18.434 2.596 27.482 2.742V86.273z" class="D"/><rect width="7.558" height="23.622" x="167.163" y="90.526" fill="#df2121" class="D" ry="3.779"/><g fill="#df2121" stroke-width="1.826" transform="matrix(.833503 0 0 .8335 63.929509 -41.876262)"><use transform="matrix(.645836 -.153738 .15424 .643736 -34.992193 202.85261)" xlink:href="#B"/><use transform="matrix(.645836 .153738 .15424 -.643736 -34.974059 246.89202)" xlink:href="#B"/><use transform="matrix(.153738 .645836 -.643736 .15424 150.87989 61.038073)" xlink:href="#B"/><use transform="matrix(-.153738 .645836 .643736 .15424 106.80421 61.056205)" xlink:href="#B"/></g></g></g><defs><path id="B" d="M246.823 78.043l-22.302-5.298 15.739-16.665z"/></defs></svg>