<svg xmlns="http://www.w3.org/2000/svg" xmlns:svg="http://www.w3.org/2000/svg" id="Ebene_1" x="0" y="0" version="1.0" viewBox="0 0 128 128" style="enable-background:new 0 0 128 128" xml:space="preserve"><metadata id="metadata49"/><defs id="defs47"><marker id="marker4105" orient="auto" refX="0" refY="0" style="overflow:visible"><path id="path4103" d="M -2.5,-1.0 C -2.5,1.7600000 -4.7400000,4.0 -7.5,4.0 C -10.260000,4.0 -12.5,1.7600000 -12.5,-1.0 C -12.5,-3.7600000 -10.260000,-6.0 -7.5,-6.0 C -4.7400000,-6.0 -2.5,-3.7600000 -2.5,-1.0 z" style="fill-rule:evenodd;stroke:#f0f;stroke-width:1pt;stroke-opacity:1;fill:#f0f;fill-opacity:1" transform="scale(0.2) translate(7.4, 1)"/></marker><marker style="overflow:visible" id="marker3819" orient="auto" refX="0" refY="0"><path transform="scale(0.2) translate(7.4, 1)" style="fill-rule:evenodd;stroke:#f0f;stroke-width:1pt;stroke-opacity:1;fill:#f0f;fill-opacity:1" id="path3817" d="M -2.5,-1.0 C -2.5,1.7600000 -4.7400000,4.0 -7.5,4.0 C -10.260000,4.0 -12.5,1.7600000 -12.5,-1.0 C -12.5,-3.7600000 -10.260000,-6.0 -7.5,-6.0 C -4.7400000,-6.0 -2.5,-3.7600000 -2.5,-1.0 z"/></marker><marker style="overflow:visible" id="marker3809" orient="auto" refX="0" refY="0"><path transform="scale(0.2) translate(7.4, 1)" style="fill-rule:evenodd;stroke:#f0f;stroke-width:1pt;stroke-opacity:1;fill:#f0f;fill-opacity:1" id="path3807" d="M -2.5,-1.0 C -2.5,1.7600000 -4.7400000,4.0 -7.5,4.0 C -10.260000,4.0 -12.5,1.7600000 -12.5,-1.0 C -12.5,-3.7600000 -10.260000,-6.0 -7.5,-6.0 C -4.7400000,-6.0 -2.5,-3.7600000 -2.5,-1.0 z"/></marker><marker id="marker3611" orient="auto" refX="0" refY="0" style="overflow:visible"><path id="path3609" d="M -2.5,-1.0 C -2.5,1.7600000 -4.7400000,4.0 -7.5,4.0 C -10.260000,4.0 -12.5,1.7600000 -12.5,-1.0 C -12.5,-3.7600000 -10.260000,-6.0 -7.5,-6.0 C -4.7400000,-6.0 -2.5,-3.7600000 -2.5,-1.0 z" style="fill-rule:evenodd;stroke:#f0f;stroke-width:1pt;stroke-opacity:1;fill:#f0f;fill-opacity:1" transform="scale(0.8) translate(7.4, 1)"/></marker><marker id="marker3571" orient="auto" refX="0" refY="0" style="overflow:visible"><path id="path3569" d="M -2.5,-1.0 C -2.5,1.7600000 -4.7400000,4.0 -7.5,4.0 C -10.260000,4.0 -12.5,1.7600000 -12.5,-1.0 C -12.5,-3.7600000 -10.260000,-6.0 -7.5,-6.0 C -4.7400000,-6.0 -2.5,-3.7600000 -2.5,-1.0 z" style="fill-rule:evenodd;stroke:#f0f;stroke-width:1pt;stroke-opacity:1;fill:#f0f;fill-opacity:1" transform="scale(0.8) translate(7.4, 1)"/></marker><marker style="overflow:visible" id="marker3489" orient="auto" refX="0" refY="0"><path transform="scale(0.8) translate(7.4, 1)" style="fill-rule:evenodd;stroke:#f0f;stroke-width:1pt;stroke-opacity:1;fill:#f0f;fill-opacity:1" id="path3487" d="M -2.5,-1.0 C -2.5,1.7600000 -4.7400000,4.0 -7.5,4.0 C -10.260000,4.0 -12.5,1.7600000 -12.5,-1.0 C -12.5,-3.7600000 -10.260000,-6.0 -7.5,-6.0 C -4.7400000,-6.0 -2.5,-3.7600000 -2.5,-1.0 z"/></marker><marker style="overflow:visible" id="marker2304" orient="auto" refX="0" refY="0"><path transform="scale(0.8) translate(12.5,0)" style="fill-rule:evenodd;stroke:#f0f;stroke-width:1pt;stroke-opacity:1;fill:#f0f;fill-opacity:1" id="path2302" d="M 0.0,0.0 L 5.0,-5.0 L -12.5,0.0 L 5.0,5.0 L 0.0,0.0 z"/></marker><marker style="overflow:visible" id="marker2282" orient="auto" refX="0" refY="0"><path transform="scale(0.8) translate(12.5,0)" style="fill-rule:evenodd;stroke:#f0f;stroke-width:1pt;stroke-opacity:1;fill:#f0f;fill-opacity:1" id="path2280" d="M 0.0,0.0 L 5.0,-5.0 L -12.5,0.0 L 5.0,5.0 L 0.0,0.0 z"/></marker></defs><style id="style2" type="text/css"/><path style="fill:none;fill-rule:evenodd;stroke:#f0f;stroke-width:8.60000038;stroke-linecap:butt;stroke-linejoin:miter;stroke-miterlimit:4;stroke-dasharray:none;stroke-opacity:1;marker-mid:url(#marker2282)" id="path1979-1" d="M -1.7878928e-6,116.5 H 127.9908"/><path style="fill:none;fill-rule:evenodd;stroke:#f0f;stroke-width:7.69796848;stroke-linecap:butt;stroke-linejoin:miter;stroke-miterlimit:4.80000019;stroke-dasharray:3.84898419,3.84898419;stroke-dashoffset:0;stroke-opacity:1;marker-start:url(#marker4105)" id="path1979" d="M 9.4818841,34.850101 H 127.9908"/><path style="fill:none;fill-rule:evenodd;stroke:#f0f;stroke-width:8.93306065;stroke-linecap:butt;stroke-linejoin:miter;stroke-miterlimit:4.80000019;stroke-dasharray:4.4665304,4.4665304;stroke-dashoffset:0;stroke-opacity:1;marker-end:url(#marker3809)" id="path1981" d="M 25.971391,117.8 V 16.678081"/><path style="fill:none;fill-rule:evenodd;stroke:#f0f;stroke-width:8.91077137;stroke-linecap:butt;stroke-linejoin:miter;stroke-miterlimit:4.80000019;stroke-dasharray:4.45538582,4.45538582;stroke-dashoffset:0;stroke-opacity:1;marker-end:url(#marker3819)" id="path1981-1" d="M 75,117.3 V 16.682075"/><path style="fill:none;fill-rule:evenodd;stroke:#0f0;stroke-width:13.21616173;stroke-linecap:butt;stroke-linejoin:miter;stroke-miterlimit:4;stroke-dasharray:none;stroke-opacity:1" id="path1975" d="m -0.00398336,116.42654 c 0,0 3.65496076,-0.0681 21.94187136,0 18.286911,0.0681 23.360273,-49.986502 39.238504,-73.055558 17.833211,-21.463162 29.687504,4.667615 67.577438,2.707787"/><path style="fill:none;fill-rule:evenodd;stroke:#0f0;stroke-width:13.21616173;stroke-linecap:butt;stroke-linejoin:miter;stroke-miterlimit:4;stroke-dasharray:none;stroke-opacity:1" id="path1975-8" d="m -111.98803,245.28842 c 0,0 3.65496,-0.0681 21.941872,0 18.286911,0.0681 23.360273,-49.98651 39.238504,-73.05556 17.833211,-21.46316 29.687504,4.66761 67.577444,2.70779"/></svg>