<svg xmlns="http://www.w3.org/2000/svg" xmlns:svg="http://www.w3.org/2000/svg" id="svg2" width="150mm" height="150mm" version="1.1" viewBox="0 0 531.496 531.496"><defs id="defs4"><clipPath id="clipPath4168" clipPathUnits="userSpaceOnUse"><rect id="rect4170" width="439.286" height="147.143" x="57.857" y="833.076" ry="0" style="color:#000;clip-rule:nonzero;display:inline;overflow:visible;visibility:visible;opacity:1;isolation:auto;mix-blend-mode:normal;color-interpolation:sRGB;color-interpolation-filters:linearRGB;solid-color:#000;solid-opacity:1;fill:#000;fill-opacity:1;fill-rule:nonzero;stroke:none;stroke-width:1;stroke-linecap:butt;stroke-linejoin:miter;stroke-miterlimit:4;stroke-dasharray:none;stroke-dashoffset:0;stroke-opacity:1;color-rendering:auto;image-rendering:optimizeSpeed;shape-rendering:auto;text-rendering:auto;enable-background:accumulate"/></clipPath></defs><metadata id="metadata7"/><g id="layer1" transform="translate(0,-520.86614)"><g id="g4172" transform="matrix(0.96582032,0,0,0.96582032,-1.5772305,13.056197)"><path id="path4138" d="m 158.28572,906.07644 0,36.5715 -100.571431,0 0,-36.5715 100.571431,0 z m 100.57144,-36.5714 q 7.42857,0 12.85714,5.4286 5.42857,5.4285 5.42857,12.8571 l 0,73.1428 q 0,7.4286 -5.42857,12.8572 -5.42857,5.4286 -12.85714,5.4286 l -73.14286,0 q -7.42858,0 -12.85715,-5.4286 -5.42857,-5.4286 -5.42857,-12.8572 l 0,-73.1428 q 0,-7.4286 5.42857,-12.8571 5.42857,-5.4286 12.85715,-5.4286 l 73.14286,0 z m 45.71429,-109.7143 0,36.5714 -246.857161,0 0,-36.5714 246.857161,0 z m -182.85716,-146.28573 0,36.57143 -64.000001,0 0,-36.57143 64.000001,0 z m 374.85718,292.57143 0,36.5715 -210.28574,0 0,-36.5715 210.28574,0 z M 222.28573,576.93358 q 7.42857,0 12.85714,5.42857 5.42857,5.42857 5.42857,12.85715 l 0,73.14286 q 0,7.42856 -5.42857,12.85714 -5.42857,5.42857 -12.85714,5.42857 l -73.14286,0 q -7.42858,0 -12.85715,-5.42857 -5.42857,-5.42858 -5.42857,-12.85714 l 0,-73.14286 q 0,-7.42858 5.42857,-12.85715 5.42857,-5.42857 12.85715,-5.42857 l 73.14286,0 z M 405.1429,723.21934 q 7.42856,0 12.85714,5.4285 5.42857,5.4286 5.42857,12.8571 l 0,73.1429 q 0,7.4287 -5.42857,12.8572 -5.42858,5.4286 -12.85714,5.4286 l -73.14288,0 q -7.42857,0 -12.85714,-5.4286 -5.42858,-5.4285 -5.42858,-12.8572 l 0,-73.1429 q 0,-7.4285 5.42858,-12.8571 5.42857,-5.4285 12.85714,-5.4285 l 73.14288,0 z m 91.42857,36.5714 0,36.5714 -64,0 0,-36.5714 64,0 z m 0,-146.28573 0,36.57143 -246.85717,0 0,-36.57143 246.85717,0 z" style="color:#000;clip-rule:nonzero;display:inline;overflow:visible;visibility:visible;opacity:1;isolation:auto;mix-blend-mode:normal;color-interpolation:sRGB;color-interpolation-filters:linearRGB;solid-color:#000;solid-opacity:1;fill:#0f0;fill-opacity:1;fill-rule:nonzero;stroke:none;stroke-width:1;stroke-linecap:butt;stroke-linejoin:miter;stroke-miterlimit:4;stroke-dasharray:none;stroke-dashoffset:0;stroke-opacity:1;color-rendering:auto;image-rendering:auto;shape-rendering:auto;text-rendering:auto;enable-background:accumulate" clip-path="url(#clipPath4168)" transform="matrix(-1,0,0,-1,554.00002,1506.1529)"/><path id="path4138-5" d="m 157.92855,1001.7908 0,36.5715 -100.571432,0 0,-36.5715 100.571432,0 z m 100.57144,-36.57144 q 7.42857,0 12.85714,5.4286 5.42857,5.4285 5.42857,12.8571 l 0,73.14284 q 0,7.4286 -5.42857,12.8572 -5.42857,5.4286 -12.85714,5.4286 l -73.14286,0 q -7.42858,0 -12.85715,-5.4286 -5.42857,-5.4286 -5.42857,-12.8572 l 0,-73.14284 q 0,-7.4286 5.42857,-12.8571 5.42857,-5.4286 12.85715,-5.4286 l 73.14286,0 z m 45.71429,-109.7143 0,36.5714 -246.857162,0 0,-36.5714 246.857162,0 z m -182.85716,-146.28573 0,36.57143 -64.000002,0 0,-36.57143 64.000002,0 z m 374.85718,292.57147 0,36.5715 -210.28574,0 0,-36.5715 210.28574,0 z M 221.92856,672.6479 q 7.42857,0 12.85714,5.42857 5.42857,5.42857 5.42857,12.85715 l 0,73.14286 q 0,7.42856 -5.42857,12.85714 -5.42857,5.42857 -12.85714,5.42857 l -73.14286,0 q -7.42858,0 -12.85715,-5.42857 -5.42857,-5.42858 -5.42857,-12.85714 l 0,-73.14286 q 0,-7.42858 5.42857,-12.85715 5.42857,-5.42857 12.85715,-5.42857 l 73.14286,0 z m 182.85717,146.28576 q 7.42856,0 12.85714,5.4285 5.42857,5.4286 5.42857,12.8571 l 0,73.1429 q 0,7.4287 -5.42857,12.8572 -5.42858,5.4286 -12.85714,5.4286 l -73.14288,0 q -7.42857,0 -12.85714,-5.4286 -5.42858,-5.4285 -5.42858,-12.8572 l 0,-73.1429 q 0,-7.4285 5.42858,-12.8571 5.42857,-5.4285 12.85714,-5.4285 l 73.14288,0 z m 91.42857,36.5714 0,36.5714 -64,0 0,-36.5714 64,0 z m 0,-146.28573 0,36.57143 -246.85717,0 0,-36.57143 246.85717,0 z" style="color:#000;clip-rule:nonzero;display:inline;overflow:visible;visibility:visible;opacity:1;isolation:auto;mix-blend-mode:normal;color-interpolation:sRGB;color-interpolation-filters:linearRGB;solid-color:#000;solid-opacity:1;fill:#0f0;fill-opacity:1;fill-rule:nonzero;stroke:none;stroke-width:1;stroke-linecap:butt;stroke-linejoin:miter;stroke-miterlimit:4;stroke-dasharray:none;stroke-dashoffset:0;stroke-opacity:1;color-rendering:auto;image-rendering:auto;shape-rendering:auto;text-rendering:auto;enable-background:accumulate"/></g></g></svg>