<svg xmlns="http://www.w3.org/2000/svg" xmlns:svg="http://www.w3.org/2000/svg" id="svg4" width="200" height="200" version="1.1" viewBox="0 0 1792 1792"><metadata id="metadata10"/><path id="path2" d="m 1476.9231,666.76924 v 192 q 0,40 -28,68 -28,28 -68,28 H 964.92308 v 415.99996 q 0,40 -28,68 -28,28 -68,28 h -192 q -40,0 -68,-28 -28,-28 -28,-68 V 954.76924 h -416 q -40,0 -68.000003,-28 -28,-28 -28,-68 v -192 q 0,-40 28,-68 28.000003,-28 68.000003,-28 h 416 v -416 q 0,-40.00001 28,-68.00001 28,-28 68,-28 h 192 q 40,0 68,28 28,28 28,68.00001 v 416 h 416.00002 q 40,0 68,28 28,28 28,68 z" style="fill:#0f0"/><g aria-label="XYZ" style="font-style:normal;font-variant:normal;font-weight:700;font-stretch:normal;font-size:691.27728271px;line-height:125%;font-family:'Open Sans';-inkscape-font-specification:'Open Sans Bold';letter-spacing:0;word-spacing:0;fill:#f0f;fill-opacity:1;stroke:none;stroke-width:1px;stroke-linecap:butt;stroke-linejoin:miter;stroke-opacity:1" id="text4512"><path d="M 893.37745,1720.7659 H 773.88909 L 659.12626,1534.1075 544.36343,1720.7659 H 432.3009 L 596.00671,1466.2624 442.76457,1227.2857 h 115.43791 l 106.32439,177.5448 104.29916,-177.5448 h 112.7376 l -154.92982,244.7149 z" style="font-style:normal;font-variant:normal;font-weight:700;font-stretch:normal;font-family:'Open Sans';-inkscape-font-specification:'Open Sans Bold';fill:#f0f;fill-opacity:1;stroke-width:1px" id="path4514"/><path d="m 1109.7391,1430.4834 102.949,-203.1977 h 112.7376 l -163.7058,301.4212 v 192.059 H 1057.7583 V 1532.0823 L 894.05252,1227.2857 h 113.41268 z" style="font-style:normal;font-variant:normal;font-weight:700;font-stretch:normal;font-family:'Open Sans';-inkscape-font-specification:'Open Sans Bold';fill:#f0f;fill-opacity:1;stroke-width:1px" id="path4516"/><path d="m 1709.8812,1720.7659 h -367.241 v -67.8451 l 236.6139,-339.2254 h -230.2007 v -86.4097 h 354.4146 v 67.5075 l -236.2764,339.563 h 242.6896 z" style="font-style:normal;font-variant:normal;font-weight:700;font-stretch:normal;font-family:'Open Sans';-inkscape-font-specification:'Open Sans Bold';fill:#f0f;fill-opacity:1;stroke-width:1px" id="path4518"/></g></svg>