<svg xmlns="http://www.w3.org/2000/svg" xmlns:svg="http://www.w3.org/2000/svg" id="Ebene_1" x="0" y="0" version="1.0" viewBox="0 0 128 128" style="enable-background:new 0 0 128 128" xml:space="preserve"><metadata id="metadata5100"/><style id="style5057" type="text/css"/><path style="display:inline;fill:#0f0;stroke-width:.23748" id="path6211" d="M 13.808594 23.759766 C 7.5153648 23.737041 2.4101562 28.841571 2.4101562 35.134766 L 2.4101562 70.636719 C 2.4101562 74.673877 4.0017862 78.544787 6.8515625 81.394531 L 48.648438 123.19141 C 54.585434 129.12844 64.20169 129.12844 70.138672 123.19141 L 101.84375 91.488281 C 105.42643 87.90563 106.82518 82.986599 106.08008 78.341797 A 7.50075 7.50075 0 0 1 104.54688 78.503906 L 83.546875 78.503906 A 7.50075 7.50075 0 0 1 76.046875 71.003906 L 76.046875 54.003906 L 59.046875 54.003906 A 7.50075 7.50075 0 0 1 51.546875 46.503906 L 51.546875 25.503906 A 7.50075 7.50075 0 0 1 51.716797 23.960938 C 50.919591 23.829549 50.108507 23.759766 49.289062 23.759766 L 13.808594 23.759766 z M 29.007812 42.734375 A 7.5993688 7.5993627 0 1 1 29.007812 57.931641 A 7.5993688 7.5993627 0 1 1 29.007812 42.734375 z"/><path id="rect6222" d="M 83.546875,1.0039062 V 25.503906 h -24.5 v 21 h 24.5 v 24.5 h 21.000005 v -24.5 h 24.5 v -21 h -24.5 V 1.0039062 Z" style="fill:#f0f;fill-opacity:1;stroke:none;stroke-width:3.42646599;stroke-linejoin:round;stroke-miterlimit:4;stroke-dasharray:none;stroke-dashoffset:0;stroke-opacity:1;paint-order:markers fill stroke"/><g id="g6290" transform="matrix(0.79138916,0,0,1,-25.921781,-2)" style="display:inline"><g id="g6295" transform="matrix(0.70710678,0.55959664,-0.89350072,0.70710678,240.3195,79.905399)" style="display:inline"><rect ry="4.5" style="fill:#f0f;fill-opacity:1;stroke:none;stroke-width:0;stroke-linecap:square;stroke-linejoin:round;stroke-miterlimit:4;stroke-dasharray:none;stroke-dashoffset:0;stroke-opacity:1;paint-order:markers fill stroke" id="rect6264" width="37.585" height="9" x="-124.259" y="64.541"/><rect ry="4.5" style="fill:#f0f;fill-opacity:1;stroke:none;stroke-width:0;stroke-linecap:square;stroke-linejoin:round;stroke-miterlimit:4;stroke-dasharray:none;stroke-dashoffset:0;stroke-opacity:1;paint-order:markers fill stroke" id="rect6264-6" width="23.778" height="9" x="-81.854" y="64.541"/><rect ry="4.5" style="fill:#f0f;fill-opacity:1;stroke:none;stroke-width:0;stroke-linecap:square;stroke-linejoin:round;stroke-miterlimit:4;stroke-dasharray:none;stroke-dashoffset:0;stroke-opacity:1;paint-order:markers fill stroke" id="rect6264-0" width="52.925" height="9" x="-124.259" y="79.279"/></g></g></svg>