<svg xmlns="http://www.w3.org/2000/svg" xmlns:svg="http://www.w3.org/2000/svg" id="Ebene_1" x="0" y="0" version="1.0" viewBox="0 0 128 128" xml:space="preserve" style="enable-background:new 0 0 128 128"><metadata id="metadata5100"/><style id="style5057" type="text/css"/><path id="path8623" d="M 55.310547 17.390625 C 53.576697 17.390625 51.842039 17.762402 50.232422 18.507812 L 3.0039062 40.330078 C 1.1674301 41.172697 0 43.029707 0 45.039062 C -2.9605947e-016 47.048384 1.16743 48.885776 3.0039062 49.75 L 50.232422 71.572266 C 53.451656 73.063053 57.167484 73.063053 60.386719 71.572266 L 98.410156 54.003906 L 59.046875 54.003906 C 54.904911 54.003492 51.547289 50.64587 51.546875 46.503906 L 51.546875 25.503906 C 51.547289 21.361942 54.904911 18.00432 59.046875 18.003906 L 59.101562 18.003906 C 57.870721 17.597064 56.591481 17.390625 55.310547 17.390625 z M 14.498047 62.669922 L 3.0039062 67.984375 C 1.1674301 68.826994 3.2382502e-017 70.685992 0 72.695312 C -2.9605947e-016 74.704633 1.16743 76.540073 3.0039062 77.404297 L 50.232422 99.226562 C 53.451656 100.71735 57.167484 100.71735 60.386719 99.226562 L 107.61719 77.404297 C 109.45366 76.561678 110.62109 74.72624 110.62109 72.695312 C 110.62109 70.664386 109.45366 68.826994 107.61719 67.984375 L 96.123047 62.669922 L 63.283203 77.837891 C 58.227492 80.17133 52.393602 80.17133 47.337891 77.837891 L 14.498047 62.669922 z M 14.498047 90.324219 L 3.0039062 95.640625 C 1.1674301 96.483243 0 98.340292 0 100.34961 C -2.9605947e-016 102.35893 1.16743 104.19632 3.0039062 105.06055 L 50.232422 126.88281 C 53.451656 128.37359 57.167484 128.37359 60.386719 126.88281 L 107.61719 105.06055 C 109.45366 104.21793 110.62109 102.38054 110.62109 100.34961 C 110.62109 98.318686 109.45366 96.483243 107.61719 95.640625 L 96.123047 90.324219 L 63.283203 105.49219 C 58.227492 107.82563 52.393602 107.82563 47.337891 105.49219 L 14.498047 90.324219 z" style="stroke-width:.21605644;fill:#0f0"/><rect id="rect6222" width="70" height="21" x="59.047" y="25.504" style="fill:#f0f;fill-opacity:1;stroke:none;stroke-width:3.42646599;stroke-linejoin:round;stroke-miterlimit:4;stroke-dasharray:none;stroke-dashoffset:0;stroke-opacity:1;paint-order:markers fill stroke"/></svg>