<svg xmlns="http://www.w3.org/2000/svg" xmlns:svg="http://www.w3.org/2000/svg" id="Ebene_1" x="0" y="0" version="1.0" viewBox="0 0 128 128" style="enable-background:new 0 0 128 128" xml:space="preserve"><metadata id="metadata5100"/><style id="style5057" type="text/css"/><path style="display:inline;fill:#0f0;stroke-width:.16646673" id="path6211" d="M 43.464844 54.824219 C 39.053469 54.808289 35.474609 58.385524 35.474609 62.796875 L 35.474609 87.683594 C 35.474609 90.513527 36.590279 93.22702 38.587891 95.224609 L 67.886719 124.52344 C 72.048385 128.68512 78.789516 128.68512 82.951172 124.52344 L 105.17383 102.30078 C 109.33551 98.139115 109.33551 91.396041 105.17383 87.234375 L 96.443359 78.503906 L 83.546875 78.503906 A 7.50075 7.50075 0 0 1 76.046875 71.003906 L 76.046875 58.105469 L 75.876953 57.935547 C 73.879364 55.937957 71.16587 54.824219 68.335938 54.824219 L 43.464844 54.824219 z M 54.119141 68.125 A 5.3269414 5.3269371 0 1 1 54.119141 78.777344 A 5.3269414 5.3269371 0 1 1 54.119141 68.125 z"/><g id="g6241" transform="matrix(1.4,0,0,1.4,-24.50197,-16.780265)" style="display:inline"><rect id="rect6222" width="50" height="15" x="59.678" y="30.203" style="fill:#f0f;fill-opacity:1;stroke:none;stroke-width:2.44747567;stroke-linejoin:round;stroke-miterlimit:4;stroke-dasharray:none;stroke-dashoffset:0;stroke-opacity:1;paint-order:markers fill stroke"/><rect id="rect6222-0" width="15" height="50" x="77.178" y="12.703" style="display:inline;fill:#f0f;fill-opacity:1;stroke:none;stroke-width:2.44747567;stroke-linejoin:round;stroke-miterlimit:4;stroke-dasharray:none;stroke-dashoffset:0;stroke-opacity:1;paint-order:markers fill stroke"/></g><path style="fill:#0f0;fill-opacity:1;stroke:#0efefd;stroke-width:0;stroke-linecap:square;stroke-linejoin:round;stroke-miterlimit:4;stroke-dasharray:none;stroke-dashoffset:0;stroke-opacity:1;paint-order:markers fill stroke" id="path7437" d="M 31.573588,64.035324 A 14.999999,14.999999 0 0 1 16.583865,79.03532 14.999999,14.999999 0 0 1 1.5736044,64.055876 14.999999,14.999999 0 0 1 16.542762,49.035357 14.999999,14.999999 0 0 1 31.573532,63.994221 l -14.999943,0.0411 z"/><path style="fill:#f0f;fill-opacity:1;stroke:#0efefd;stroke-width:0;stroke-linecap:square;stroke-linejoin:round;stroke-miterlimit:4;stroke-dasharray:none;stroke-dashoffset:0;stroke-opacity:1;paint-order:markers fill stroke" id="path7437-1" d="M 31.573588,17.300257 A 14.999999,14.999999 0 0 1 16.583865,32.300252 14.999999,14.999999 0 0 1 1.5736044,17.320808 14.999999,14.999999 0 0 1 16.542762,2.3002894 14.999999,14.999999 0 0 1 31.573532,17.259154 l -14.999943,0.0411 z"/><path style="fill:#0f0;fill-opacity:1;stroke:#0efefd;stroke-width:0;stroke-linecap:square;stroke-linejoin:round;stroke-miterlimit:4;stroke-dasharray:none;stroke-dashoffset:0;stroke-opacity:1;paint-order:markers fill stroke" id="path7437-7" d="m 31.573588,110.7704 a 14.999999,14.999999 0 0 1 -14.989723,15 A 14.999999,14.999999 0 0 1 1.5736044,110.79095 14.999999,14.999999 0 0 1 16.542762,95.770434 14.999999,14.999999 0 0 1 31.573532,110.7293 l -14.999943,0.0411 z"/></svg>