<svg xmlns="http://www.w3.org/2000/svg" xmlns:svg="http://www.w3.org/2000/svg" id="Ebene_1" x="0" y="0" version="1.0" viewBox="0 0 128 128" style="enable-background:new 0 0 128 128" xml:space="preserve"><metadata id="metadata5100"/><style id="style5057" type="text/css"/><path style="stroke-width:.21605644;fill:#0f0" id="path8623" d="M 55.310547 17.390625 C 53.576697 17.390625 51.842039 17.762402 50.232422 18.507812 L 3.0039062 40.330078 C 1.1674301 41.172697 0 43.029707 0 45.039062 C -2.9605947e-016 47.048384 1.16743 48.885776 3.0039062 49.75 L 50.232422 71.572266 C 53.451656 73.063053 57.167484 73.063053 60.386719 71.572266 L 76.046875 64.335938 L 76.046875 54.003906 L 59.046875 54.003906 C 54.904911 54.003492 51.547289 50.64587 51.546875 46.503906 L 51.546875 25.503906 C 51.547289 21.361942 54.904911 18.00432 59.046875 18.003906 L 59.101562 18.003906 C 57.870721 17.597064 56.591481 17.390625 55.310547 17.390625 z M 104.47852 38.880859 C 104.5007 38.923691 104.52492 38.960279 104.54688 39.003906 L 104.74609 39.003906 L 104.47852 38.880859 z M 14.498047 62.669922 L 3.0039062 67.984375 C 1.1674301 68.826994 3.2382502e-017 70.685992 0 72.695312 C -2.9605947e-016 74.704633 1.16743 76.540073 3.0039062 77.404297 L 50.232422 99.226562 C 53.451656 100.71735 57.167484 100.71735 60.386719 99.226562 L 105.32617 78.462891 C 105.07019 78.489321 104.80983 78.50388 104.54688 78.503906 L 83.546875 78.503906 C 79.713373 78.503523 76.557397 75.626235 76.107422 71.914062 L 63.283203 77.837891 C 58.227492 80.17133 52.393602 80.17133 47.337891 77.837891 L 14.498047 62.669922 z M 14.498047 90.324219 L 3.0039062 95.640625 C 1.1674301 96.483243 0 98.340292 0 100.34961 C -2.9605947e-016 102.35893 1.16743 104.19632 3.0039062 105.06055 L 50.232422 126.88281 C 53.451656 128.37359 57.167484 128.37359 60.386719 126.88281 L 107.61719 105.06055 C 109.45366 104.21793 110.62109 102.38054 110.62109 100.34961 C 110.62109 98.318686 109.45366 96.483243 107.61719 95.640625 L 96.123047 90.324219 L 63.283203 105.49219 C 58.227492 107.82563 52.393602 107.82563 47.337891 105.49219 L 14.498047 90.324219 z"/><g id="g6241" transform="matrix(1.4,0,0,1.4,-24.50197,-16.780265)" style="display:inline"><rect id="rect6222" width="50" height="15" x="59.678" y="30.203" style="fill:#f0f;fill-opacity:1;stroke:none;stroke-width:2.44747567;stroke-linejoin:round;stroke-miterlimit:4;stroke-dasharray:none;stroke-dashoffset:0;stroke-opacity:1;paint-order:markers fill stroke"/><rect id="rect6222-0" width="15" height="50" x="77.178" y="12.703" style="display:inline;fill:#f0f;fill-opacity:1;stroke:none;stroke-width:2.44747567;stroke-linejoin:round;stroke-miterlimit:4;stroke-dasharray:none;stroke-dashoffset:0;stroke-opacity:1;paint-order:markers fill stroke"/></g></svg>