<svg xmlns="http://www.w3.org/2000/svg" xmlns:svg="http://www.w3.org/2000/svg" id="Ebene_1" x="0" y="0" version="1.0" viewBox="0 0 128 128" style="enable-background:new 0 0 128 128" xml:space="preserve"><metadata id="metadata5100"/><style id="style5057" type="text/css"/><path id="path6211" d="m 2.4101161,35.134082 v 35.503281 c 0,4.037158 1.591106,7.908098 4.4408823,10.757842 L 48.647469,123.19162 c 5.936997,5.93703 15.554955,5.93703 21.491937,0 L 101.84296,91.488108 c 5.93703,-5.936991 5.93703,-15.554948 0,-21.491946 L 60.046512,28.199685 C 57.196768,25.349941 53.325828,23.758835 49.28867,23.758835 H 13.80916 C 7.5159313,23.73611 2.4101161,28.840887 2.4101161,35.134082 Z m 26.5977689,7.599412 a 7.5993688,7.5993627 0 1 1 0,15.198724 7.5993688,7.5993627 0 1 1 0,-15.198724 z" style="display:inline;fill:#0f0;stroke-width:.23748"/><rect style="fill:#f0f;fill-opacity:1;stroke:#fffefd;stroke-width:15;stroke-linejoin:round;stroke-miterlimit:4;stroke-dasharray:none;stroke-dashoffset:0;stroke-opacity:1;paint-order:markers fill stroke" id="rect6222-9" width="70" height="21" x="59.047" y="25.504"/><rect style="fill:#f0f;fill-opacity:1;stroke:#fffefd;stroke-width:15;stroke-linejoin:round;stroke-miterlimit:4;stroke-dasharray:none;stroke-dashoffset:0;stroke-opacity:1;paint-order:markers fill stroke" id="rect6222-9-0" width="70" height="21" x="1.004" y="-104.547" transform="rotate(90)"/><rect style="fill:#f0f;fill-opacity:1;stroke:none;stroke-width:3.42646599;stroke-linejoin:round;stroke-miterlimit:4;stroke-dasharray:none;stroke-dashoffset:0;stroke-opacity:1;paint-order:markers fill stroke" id="rect6222" width="70" height="21" x="59.047" y="25.504"/><g id="g6290" transform="matrix(0.79138916,0,0,1,-25.92211,-2.000394)" style="display:inline"><g id="g6295" transform="matrix(0.70710678,0.55959664,-0.89350072,0.70710678,240.3195,79.905399)" style="display:inline"><rect ry="4.5" style="fill:#f0f;fill-opacity:1;stroke:none;stroke-width:0;stroke-linecap:square;stroke-linejoin:round;stroke-miterlimit:4;stroke-dasharray:none;stroke-dashoffset:0;stroke-opacity:1;paint-order:markers fill stroke" id="rect6264" width="37.585" height="9" x="-124.259" y="64.541"/><rect ry="4.5" style="fill:#f0f;fill-opacity:1;stroke:none;stroke-width:0;stroke-linecap:square;stroke-linejoin:round;stroke-miterlimit:4;stroke-dasharray:none;stroke-dashoffset:0;stroke-opacity:1;paint-order:markers fill stroke" id="rect6264-6" width="23.778" height="9" x="-81.854" y="64.541"/><rect ry="4.5" style="fill:#f0f;fill-opacity:1;stroke:none;stroke-width:0;stroke-linecap:square;stroke-linejoin:round;stroke-miterlimit:4;stroke-dasharray:none;stroke-dashoffset:0;stroke-opacity:1;paint-order:markers fill stroke" id="rect6264-0" width="52.925" height="9" x="-124.259" y="79.279"/></g></g><rect style="fill:#f0f;fill-opacity:1;stroke:none;stroke-width:3.42646599;stroke-linejoin:round;stroke-miterlimit:4;stroke-dasharray:none;stroke-dashoffset:0;stroke-opacity:1;paint-order:markers fill stroke" id="rect6222-4" width="70" height="21" x="1.004" y="-104.547" transform="rotate(90)"/></svg>