<svg xmlns="http://www.w3.org/2000/svg" xmlns:svg="http://www.w3.org/2000/svg" id="Ebene_1" x="0" y="0" version="1.0" viewBox="0 0 128 128" style="enable-background:new 0 0 128 128" xml:space="preserve"><metadata id="metadata5100"/><style id="style5057" type="text/css"/><path id="path6211" d="m 35.47487,62.797296 v 24.88679 c 0,2.829933 1.11532,5.543352 3.112932,7.540941 l 29.298137,29.298103 c 4.161666,4.16168 10.903581,4.16168 15.065237,0 l 22.223294,-22.22326 c 4.16168,-4.161666 4.16168,-10.903581 0,-15.065247 L 75.876344,57.936481 c -1.997589,-1.99759 -4.711008,-3.11291 -7.540941,-3.11291 H 43.465276 c -4.411375,-0.01593 -7.990406,3.562374 -7.990406,7.973725 z m 18.64428,5.326972 a 5.3269414,5.3269371 0 1 1 0,10.653873 5.3269414,5.3269371 0 1 1 0,-10.653873 z" style="display:inline;fill:#0f0;stroke-width:.16646673"/><rect style="fill:#f0f;fill-opacity:1;stroke:none;stroke-width:3.42646599;stroke-linejoin:round;stroke-miterlimit:4;stroke-dasharray:none;stroke-dashoffset:0;stroke-opacity:1;paint-order:markers fill stroke" id="rect6222" width="70" height="21" x="59.047" y="25.504"/><path style="fill:#0f0;fill-opacity:1;stroke:#0efefd;stroke-width:0;stroke-linecap:square;stroke-linejoin:round;stroke-miterlimit:4;stroke-dasharray:none;stroke-dashoffset:0;stroke-opacity:1;paint-order:markers fill stroke" id="path7437" d="M 31.573588,64.035324 A 14.999999,14.999999 0 0 1 16.583865,79.03532 14.999999,14.999999 0 0 1 1.5736044,64.055876 14.999999,14.999999 0 0 1 16.542762,49.035357 14.999999,14.999999 0 0 1 31.573532,63.994221 l -14.999943,0.0411 z"/><path style="fill:#f0f;fill-opacity:1;stroke:#0efefd;stroke-width:0;stroke-linecap:square;stroke-linejoin:round;stroke-miterlimit:4;stroke-dasharray:none;stroke-dashoffset:0;stroke-opacity:1;paint-order:markers fill stroke" id="path7437-1" d="M 16.542969 2.3007812 A 14.999999 14.999999 0 0 0 1.5742188 17.320312 A 14.999999 14.999999 0 0 0 16.583984 32.300781 A 14.999999 14.999999 0 0 0 31.574219 17.300781 L 24.074219 17.300781 A 7.4999995 7.4999995 0 0 1 16.578125 24.800781 A 7.4999995 7.4999995 0 0 1 9.0742188 17.310547 A 7.4999995 7.4999995 0 0 1 16.558594 9.8007812 A 7.4999995 7.4999995 0 0 1 24.074219 17.279297 L 31.574219 17.259766 A 14.999999 14.999999 0 0 0 16.542969 2.3007812 z"/><path style="fill:#0f0;fill-opacity:1;stroke:#0efefd;stroke-width:0;stroke-linecap:square;stroke-linejoin:round;stroke-miterlimit:4;stroke-dasharray:none;stroke-dashoffset:0;stroke-opacity:1;paint-order:markers fill stroke" id="path7437-7" d="m 31.573588,110.7704 a 14.999999,14.999999 0 0 1 -14.989723,15 A 14.999999,14.999999 0 0 1 1.5736044,110.79095 14.999999,14.999999 0 0 1 16.542762,95.770434 14.999999,14.999999 0 0 1 31.573532,110.7293 l -14.999943,0.0411 z"/></svg>