<svg xmlns="http://www.w3.org/2000/svg" xmlns:svg="http://www.w3.org/2000/svg" id="svg2" width="113.898" height="81.356" version="1.1" viewBox="0 0 113.898 81.356"><metadata id="metadata10"/><path id="path4" d="m 113.89831,6.1017 v 69.1525 q 0,2.6695 -2.47882,3.75 -0.82627,0.3178 -1.58898,0.3178 -1.7161,0 -2.86017,-1.2076 L 81.355932,52.5 v 10.5508 q 0,7.5636 -5.370763,12.9343 -5.370762,5.3708 -12.934322,5.3708 H 18.305085 q -7.56356,0 -12.9343223,-5.3708 Q 0,70.6144 0,63.0508 V 18.3051 Q 0,10.7415 5.3707627,5.3707 10.741525,0 18.305085,0 h 44.745762 q 7.56356,0 12.934322,5.3707 5.370763,5.3708 5.370763,12.9344 V 28.7923 L 106.97034,3.2415 q 1.14407,-1.2076 2.86017,-1.2076 0.76271,0 1.58898,0.3178 2.47882,1.0805 2.47882,3.75 z" style="fill:#000;fill-opacity:1;stroke:none;stroke-width:.06355932"/></svg>