<svg xmlns="http://www.w3.org/2000/svg" xmlns:svg="http://www.w3.org/2000/svg" id="svg4" width="128" height="128" version="1.1" viewBox="0 0 1188 1188"><metadata id="metadata10"/><path id="path2" d="m 1188,956 q 0,40 -28,68 l -136,136 q -28,28 -68,28 -40,0 -68,-28 L 594,866 300,1160 q -28,28 -68,28 -40,0 -68,-28 L 28,1024 Q 0,996 0,956 0,916 28,888 L 322,594 28,300 Q 0,272 0,232 0,192 28,164 L 164,28 Q 192,0 232,0 272,0 300,28 L 594,322 888,28 q 28,-28 68,-28 40,0 68,28 l 136,136 q 28,28 28,68 0,40 -28,68 l -294,294 294,294 q 28,28 28,68 z" style="fill:#0f0"/></svg>