<svg xmlns="http://www.w3.org/2000/svg" xmlns:svg="http://www.w3.org/2000/svg" id="svg2" width="67.756" height="84.606" version="1.1" viewBox="0 0 63.521 79.318"><defs id="defs4"><clipPath id="clipPath4168" clipPathUnits="userSpaceOnUse"><rect id="rect4170" width="439.286" height="147.143" x="57.857" y="833.076" ry="0" style="color:#000;clip-rule:nonzero;display:inline;overflow:visible;visibility:visible;opacity:1;isolation:auto;mix-blend-mode:normal;color-interpolation:sRGB;color-interpolation-filters:linearRGB;solid-color:#000;solid-opacity:1;fill:#000;fill-opacity:1;fill-rule:nonzero;stroke:none;stroke-width:1;stroke-linecap:butt;stroke-linejoin:miter;stroke-miterlimit:4;stroke-dasharray:none;stroke-dashoffset:0;stroke-opacity:1;color-rendering:auto;image-rendering:optimizeSpeed;shape-rendering:auto;text-rendering:auto;enable-background:accumulate"/></clipPath></defs><metadata id="metadata7"/><g id="layer1" transform="matrix(0.14986386,0,0,0.14986386,-8.065589,-78.225838)" style="fill:#000;fill-opacity:1"><g id="g4172" transform="matrix(0.96582032,0,0,0.96582032,-1.5772305,13.056197)" style="fill:#000;fill-opacity:1"><path id="path4138" d="m 158.28572,906.07644 v 36.5715 H 57.714289 v -36.5715 z m 100.57144,-36.5714 q 7.42857,0 12.85714,5.4286 5.42857,5.4285 5.42857,12.8571 v 73.1428 q 0,7.4286 -5.42857,12.8572 -5.42857,5.4286 -12.85714,5.4286 H 185.7143 q -7.42858,0 -12.85715,-5.4286 -5.42857,-5.4286 -5.42857,-12.8572 v -73.1428 q 0,-7.4286 5.42857,-12.8571 5.42857,-5.4286 12.85715,-5.4286 z m 45.71429,-109.7143 v 36.5714 H 57.714289 v -36.5714 z M 121.71429,613.50501 v 36.57143 H 57.714289 v -36.57143 z m 374.85718,292.57143 v 36.5715 H 286.28573 v -36.5715 z M 222.28573,576.93358 q 7.42857,0 12.85714,5.42857 5.42857,5.42857 5.42857,12.85715 v 73.14286 q 0,7.42856 -5.42857,12.85714 -5.42857,5.42857 -12.85714,5.42857 h -73.14286 q -7.42858,0 -12.85715,-5.42857 -5.42857,-5.42858 -5.42857,-12.85714 V 595.2193 q 0,-7.42858 5.42857,-12.85715 5.42857,-5.42857 12.85715,-5.42857 z M 405.1429,723.21934 q 7.42856,0 12.85714,5.4285 5.42857,5.4286 5.42857,12.8571 v 73.1429 q 0,7.4287 -5.42857,12.8572 -5.42858,5.4286 -12.85714,5.4286 h -73.14288 q -7.42857,0 -12.85714,-5.4286 -5.42858,-5.4285 -5.42858,-12.8572 v -73.1429 q 0,-7.4285 5.42858,-12.8571 5.42857,-5.4285 12.85714,-5.4285 z m 91.42857,36.5714 v 36.5714 h -64 v -36.5714 z m 0,-146.28573 v 36.57143 H 249.7143 v -36.57143 z" style="color:#000;clip-rule:nonzero;display:inline;overflow:visible;visibility:visible;opacity:1;isolation:auto;mix-blend-mode:normal;color-interpolation:sRGB;color-interpolation-filters:linearRGB;solid-color:#000;solid-opacity:1;fill:#000;fill-opacity:1;fill-rule:nonzero;stroke:none;stroke-width:1;stroke-linecap:butt;stroke-linejoin:miter;stroke-miterlimit:4;stroke-dasharray:none;stroke-dashoffset:0;stroke-opacity:1;color-rendering:auto;image-rendering:auto;shape-rendering:auto;text-rendering:auto;enable-background:accumulate" clip-path="url(#clipPath4168)" transform="rotate(180,277.00001,753.07645)"/><path id="path4138-5" d="m 157.92855,1001.7908 v 36.5715 H 57.357118 v -36.5715 z m 100.57144,-36.57144 q 7.42857,0 12.85714,5.4286 5.42857,5.4285 5.42857,12.8571 v 73.14284 q 0,7.4286 -5.42857,12.8572 -5.42857,5.4286 -12.85714,5.4286 h -73.14286 q -7.42858,0 -12.85715,-5.4286 -5.42857,-5.4286 -5.42857,-12.8572 v -73.14284 q 0,-7.4286 5.42857,-12.8571 5.42857,-5.4286 12.85715,-5.4286 z m 45.71429,-109.7143 v 36.5714 H 57.357118 v -36.5714 z M 121.35712,709.21933 v 36.57143 H 57.357118 V 709.21933 Z M 496.2143,1001.7908 v 36.5715 H 285.92856 v -36.5715 z M 221.92856,672.6479 q 7.42857,0 12.85714,5.42857 5.42857,5.42857 5.42857,12.85715 v 73.14286 q 0,7.42856 -5.42857,12.85714 -5.42857,5.42857 -12.85714,5.42857 H 148.7857 q -7.42858,0 -12.85715,-5.42857 -5.42857,-5.42858 -5.42857,-12.85714 v -73.14286 q 0,-7.42858 5.42857,-12.85715 5.42857,-5.42857 12.85715,-5.42857 z m 182.85717,146.28576 q 7.42856,0 12.85714,5.4285 5.42857,5.4286 5.42857,12.8571 v 73.1429 q 0,7.4287 -5.42857,12.8572 -5.42858,5.4286 -12.85714,5.4286 h -73.14288 q -7.42857,0 -12.85714,-5.4286 -5.42858,-5.4285 -5.42858,-12.8572 v -73.1429 q 0,-7.4285 5.42858,-12.8571 5.42857,-5.4285 12.85714,-5.4285 z m 91.42857,36.5714 v 36.5714 h -64 v -36.5714 z m 0,-146.28573 v 36.57143 H 249.35713 v -36.57143 z" style="color:#000;clip-rule:nonzero;display:inline;overflow:visible;visibility:visible;opacity:1;isolation:auto;mix-blend-mode:normal;color-interpolation:sRGB;color-interpolation-filters:linearRGB;solid-color:#000;solid-opacity:1;fill:#000;fill-opacity:1;fill-rule:nonzero;stroke:none;stroke-width:1;stroke-linecap:butt;stroke-linejoin:miter;stroke-miterlimit:4;stroke-dasharray:none;stroke-dashoffset:0;stroke-opacity:1;color-rendering:auto;image-rendering:auto;shape-rendering:auto;text-rendering:auto;enable-background:accumulate"/></g></g></svg>