<svg xmlns="http://www.w3.org/2000/svg" xmlns:xlink="http://www.w3.org/1999/xlink" id="Ebene_1" x="0" y="0" version="1.0" viewBox="0 0 16 16" style="enable-background:new 0 0 16 16" xml:space="preserve"><style type="text/css">.st50{fill:#0f0}</style><path d="M14.8,3.3l-3.6,0.5l0.3-2.6c0.1-0.5-0.3-1-0.9-1.1c-0.5-0.1-1,0.3-1.1,0.9L9.1,4L6.5,4.3l0.1-2.8	c0-0.6-0.4-1-0.9-1c-0.5,0-1,0.4-1,0.9L4.4,4.6L1,5C0.4,5,0,5.5,0.1,6.1C0.2,6.6,0.6,7,1.1,7c0,0,0.1,0,0.1,0l3.1-0.4l-0.2,3.6	l-3.2,0.6c-0.5,0.1-0.9,0.6-0.8,1.2c0.1,0.5,0.5,0.8,1,0.8c0.1,0,0.1,0,0.2,0l2.8-0.5L3.9,15c0,0.6,0.4,1,0.9,1c0,0,0,0,0.1,0	c0.5,0,1-0.4,1-0.9l0.2-3.2l2.2-0.4L8,14c-0.1,0.5,0.3,1,0.9,1.1c0,0,0.1,0,0.1,0c0.5,0,0.9-0.4,1-0.9l0.3-3.1l3.8-0.7	c0.5-0.1,0.9-0.6,0.8-1.2c-0.1-0.5-0.6-0.9-1.2-0.8L10.6,9l0.4-3.3L15,5.3c0.5-0.1,0.9-0.6,0.9-1.1C15.8,3.6,15.3,3.2,14.8,3.3z M8.5,9.4L6.2,9.8l0.2-3.5L8.9,6L8.5,9.4z" class="st50"/></svg>