<svg xmlns="http://www.w3.org/2000/svg" xmlns:svg="http://www.w3.org/2000/svg" id="svg2985" width="64" height="64" version="1.1"><metadata id="metadata2990"/><g id="layer1"><g style="font-style:normal;font-variant:normal;font-weight:400;font-stretch:normal;font-size:71.70020294px;line-height:125%;font-family:FontAwesome;-inkscape-font-specification:FontAwesome;letter-spacing:0;word-spacing:0;fill:#f0f;fill-opacity:1;stroke:none" id="text2993"><path d="m 49.948795,35.243305 c 0,1.400395 -1.160327,2.560721 -2.560722,2.560721 l -30.728658,0 c -1.400395,0 -2.560722,-1.160326 -2.560722,-2.560721 l 0,-5.121443 c 0,-1.400395 1.160327,-2.560722 2.560722,-2.560722 l 30.728658,0 c 1.400395,0 2.560722,1.160327 2.560722,2.560722 l 0,5.121443 z m 12.803608,-2.560722 c 0,-16.96478 -13.763879,-30.728658 -30.728659,-30.728658 -16.96478,0 -30.7286582,13.763878 -30.7286582,30.728658 0,16.964781 13.7638782,30.728659 30.7286582,30.728659 16.96478,0 30.728659,-13.763878 30.728659,-30.728659 z" style="fill:#f0f;fill-opacity:1" id="path13577"/></g></g></svg>