<svg xmlns="http://www.w3.org/2000/svg" xmlns:svg="http://www.w3.org/2000/svg" id="svg2985" width="64" height="64" version="1.1"><metadata id="metadata2990"/><g id="layer1"><g style="font-style:normal;font-variant:normal;font-weight:400;font-stretch:normal;font-size:75.09406281px;line-height:125%;font-family:FontAwesome;-inkscape-font-specification:FontAwesome;letter-spacing:0;word-spacing:0;fill:#0f0;fill-opacity:1;stroke:none" id="text2993"><path d="m 46.296212,53.27431 c 0,-1.466681 -1.21525,-2.681931 -2.681931,-2.681931 l -2.681931,0 0,-24.137377 c 0,-1.466681 -1.215249,-2.681931 -2.68193,-2.681931 l -16.091585,0 c -1.466681,0 -2.681931,1.21525 -2.681931,2.681931 l 0,5.363862 c 0,1.466681 1.21525,2.681931 2.681931,2.681931 l 2.681931,0 0,16.091584 -2.681931,0 c -1.466681,0 -2.681931,1.21525 -2.681931,2.681931 l 0,5.363862 c 0,1.466681 1.21525,2.681931 2.681931,2.681931 l 21.455446,0 c 1.466681,0 2.681931,-1.21525 2.681931,-2.681931 l 0,-5.363862 z M 40.93235,4.9995556 c 0,-1.4666809 -1.215249,-2.6819308 -2.68193,-2.6819308 l -10.727724,0 c -1.466681,0 -2.68193,1.2152499 -2.68193,2.6819308 l 0,8.0457924 c 0,1.466681 1.215249,2.681931 2.68193,2.681931 l 10.727724,0 c 1.466681,0 2.68193,-1.21525 2.68193,-2.681931 l 0,-8.0457924 z" style="fill:#0f0;fill-opacity:1" id="path14127"/></g></g></svg>