<svg xmlns="http://www.w3.org/2000/svg" xmlns:svg="http://www.w3.org/2000/svg" id="svg3008" width="64" height="64" version="1.1"><metadata id="metadata3013"/><g id="layer1"><g style="font-style:normal;font-weight:400;font-size:66.02944183px;line-height:125%;font-family:Sans;letter-spacing:0;word-spacing:0;fill:#0f0;fill-opacity:1;stroke:none" id="text2985"><path d="m 57.745399,49.476495 c 0,1.952879 -1.584412,3.537291 -3.537292,3.537291 l -44.8056924,0 c -1.9528797,0 -3.5372916,-1.584412 -3.5372916,-3.537291 l 0,-35.372915 c 0,-1.95288 1.5844119,-3.537292 3.5372916,-3.537292 l 11.7909714,0 c 1.95288,0 3.537292,1.584412 3.537292,3.537292 l 0,2.358194 c 0,1.95288 1.584412,3.537291 3.537291,3.537291 l 25.940138,0 c 1.95288,0 3.537292,1.584412 3.537292,3.537292 l 0,25.940138 z m 4.716388,-25.940138 c 0,-4.532155 -3.721525,-8.25368 -8.25368,-8.25368 l -24.76104,0 0,-1.179097 c 0,-4.5321552 -3.721526,-8.2536807 -8.253681,-8.2536807 l -11.7909714,0 c -4.5321548,0 -8.2536803,3.7215255 -8.2536803,8.2536807 l 0,35.372915 c 0,4.532155 3.7215255,8.25368 8.2536803,8.25368 l 44.8056924,0 c 4.532155,0 8.25368,-3.721525 8.25368,-8.25368 l 0,-25.940138 z" style="font-style:normal;font-variant:normal;font-weight:400;font-stretch:normal;font-family:FontAwesome;-inkscape-font-specification:FontAwesome;fill:#0f0;fill-opacity:1" id="path13027"/></g></g></svg>