<svg xmlns="http://www.w3.org/2000/svg" xmlns:svg="http://www.w3.org/2000/svg" id="Ebene_1" width="129" height="129" x="0" y="0" version="1.0" viewBox="0 0 129 129" xml:space="preserve"><metadata id="metadata45"/><style id="style2" type="text/css">.st50{fill:#0f0}.st52{fill:#f0f}</style><g id="g38" style="fill:#0084c8" transform="translate(0,1)"><g id="g22" style="fill:#0084c8"><path id="path4" d="M 70.7,48.4 69.8,59 c 0.9,-0.1 1.7,-0.1 2.6,-0.2 L 73.3,48 c -0.8,0.1 -1.7,0.2 -2.6,0.4 z" class="st52" style="fill:#0084c8"/><path id="path6" d="m 55.4,51.2 c -0.9,0.2 -1.8,0.4 -2.6,0.5 -0.2,3 -0.4,5.9 -0.6,8.9 0.9,-0.1 1.7,-0.2 2.6,-0.3 0.1,-3 0.4,-6 0.6,-9.1 z" class="st52" style="fill:#0084c8"/><path id="path8" d="M 90.6,25.1 89.4,37.3 C 90.3,37.2 91.2,37.1 92,37 l 1.3,-12.5 c -0.9,0.2 -1.8,0.4 -2.7,0.6 z" class="st52" style="fill:#0084c8"/><path id="path10" d="m 49.9,52.7 c 0.9,-0.3 1.8,-0.6 2.7,-0.9 -0.9,0.2 -1.8,0.4 -2.7,0.5 z" class="st52" style="fill:#0084c8"/><path id="path12" d="m 71.5,39.9 c 0.9,-0.1 1.7,-0.3 2.6,-0.4 L 75,28.8 c -0.9,0.2 -1.8,0.5 -2.6,0.7 -0.3,3.2 -0.6,6.4 -0.8,9.6 z" class="st52" style="fill:#0084c8"/><path id="path14" d="m 70.9,76.1 0.8,-9 c -0.9,0.1 -1.7,0.1 -2.6,0.2 -0.3,3 -0.5,6.1 -0.8,9.1 -1.1,0.1 -2.3,0.3 -3.5,0.5 L 64.7,78 c 2.9,0 5.8,0.1 8.7,0.1 l 0.3,-2.3 c -0.9,0.1 -1.9,0.2 -2.8,0.3 z" class="st52" style="fill:#0084c8"/><path id="path16" d="m 75.2,58.6 c 0.1,0 0.3,0 0.4,0 0,0 0,0 0,-0.1 -0.1,0 -0.2,0.1 -0.4,0.1 z" class="st52" style="fill:#0084c8"/><path id="path18" d="m 127.4,29.3 c -0.3,-0.2 -0.6,-0.3 -1,-0.2 -4.9,1 -10.3,2.1 -16.4,3.5 0.7,-6.2 1.4,-12.4 2.1,-18.6 0.1,-0.7 -0.4,-1.3 -1.1,-1.4 -0.4,0 -0.7,0.1 -1,0.3 -0.3,0.2 -0.4,0.5 -0.5,0.9 -0.7,6.5 -1.4,13 -2.2,19.5 -4.5,1.1 -9.1,2.2 -13.7,3.4 1.7,-0.2 3.4,-0.4 5.1,-0.6 0.1,0 0.3,0 0.4,0 1.1,0 2.1,0.4 2.8,1.1 1.7,-0.4 3.4,-0.9 5.1,-1.3 -0.6,5.8 -1.3,11.5 -1.9,17.3 -4.9,0.7 -10,1.5 -15.1,2.4 l 1,-10.4 c -0.9,0.1 -1.7,0.2 -2.6,0.3 L 87.3,56 c -1.2,0.2 -2.3,0.4 -3.4,0.6 l -0.1,1.3 c 3.6,-0.2 6.8,-0.3 9.8,-0.4 3.8,-0.7 7.5,-1.3 11.1,-1.8 -0.7,5.8 -1.3,11.5 -2,17.2 -4.8,0.3 -9.8,0.6 -14.7,1.1 0.3,-2.7 0.5,-5.4 0.8,-8.1 -0.9,0 -1.7,0.1 -2.6,0.1 l -0.8,8.3 c -1.2,0.1 -2.4,0.2 -3.6,0.4 l -0.3,2.6 c 1.2,-0.1 2.4,-0.2 3.6,-0.4 0,0.5 -0.1,0.9 -0.1,1.4 0.9,0 1.7,0.1 2.6,0.1 l 0.2,-1.8 c 5,-0.5 9.9,-0.8 14.7,-1.1 l -0.3,2.4 c -0.6,4.9 -1.1,9.9 -1.7,14.8 -4.5,-0.1 -9.1,-0.2 -13.7,-0.2 -0.2,0 -0.4,0 -0.6,0 l 0.6,-5.9 c -0.8,0 -1.7,-0.1 -2.6,-0.1 -0.2,2 -0.4,4 -0.6,6 -1.3,0 -2.5,0 -3.8,0 -0.1,0.9 -0.2,1.7 -0.3,2.6 1.2,0 2.5,0 3.8,0 l -1.7,16.8 c 0,0.3 0.1,0.7 0.3,0.9 0.2,0.3 0.5,0.4 0.9,0.5 0.7,0.1 1.3,-0.4 1.4,-1.2 L 85.9,95 c 4.9,0 9.7,0.1 14.3,0.2 -0.7,6.1 -1.4,12.2 -2.1,18.2 -0.1,0.7 0.4,1.3 1.1,1.4 0.1,0 0.1,0 0.2,0 0.7,0 1.2,-0.5 1.3,-1.1 0.7,-6.1 1.4,-12.3 2.1,-18.4 5.8,0.2 10.9,0.5 15.6,0.8 0.3,0 0.7,-0.1 0.9,-0.3 0.3,-0.2 0.4,-0.5 0.5,-0.9 0,-0.3 -0.1,-0.7 -0.3,-0.9 -0.2,-0.3 -0.5,-0.4 -0.9,-0.4 -4.7,-0.3 -9.7,-0.6 -15.5,-0.8 0.7,-5.8 1.3,-11.6 2,-17.4 6,-0.3 11.3,-0.5 16.2,-0.6 0.3,0 0.7,-0.1 0.9,-0.4 0.2,-0.2 0.4,-0.6 0.4,-0.9 0,-0.7 -0.6,-1.3 -1.3,-1.3 v 0 c -4.8,0.1 -10,0.3 -15.8,0.6 0.7,-5.8 1.3,-11.6 2,-17.5 6.2,-0.9 11.6,-1.6 16.7,-2.1 0.3,0 0.6,-0.2 0.9,-0.5 0.2,-0.3 0.3,-0.6 0.3,-0.9 0,-0.3 -0.2,-0.6 -0.5,-0.9 -0.3,-0.2 -0.6,-0.3 -0.9,-0.3 -4.8,0.5 -10.1,1.2 -16.1,2 l 0.1,-1.2 c 0.6,-5.4 1.2,-10.9 1.8,-16.3 6.3,-1.5 11.9,-2.7 17.2,-3.7 0.3,-0.1 0.6,-0.3 0.8,-0.5 0.2,-0.3 0.3,-0.6 0.2,-1 -0.1,-0.1 -0.3,-0.4 -0.6,-0.6 z" class="st52" style="fill:#0084c8"/><path id="path20" d="m 53.3,43.3 c 0.9,-0.2 1.7,-0.3 2.6,-0.5 0.2,-2.5 0.4,-5 0.5,-7.5 0,-0.5 -0.2,-1 -0.6,-1.2 -0.6,0.2 -1.2,0.3 -1.8,0.5 -0.1,0.2 -0.1,0.3 -0.1,0.5 -0.2,2.7 -0.4,5.4 -0.6,8.2 z" class="st52" style="fill:#0084c8"/></g><g id="g26" style="fill:#000"><path id="path24" d="m 101.5,16.5 c -5,1 -10.1,2.1 -15.3,3.3 C 86.8,14 87.5,8.1 88.1,2.3 88.2,1.2 87.4,0.2 86.3,0 85.2,-0.1 84.2,0.7 84,1.8 83.3,8.1 82.6,14.4 81.9,20.7 77.3,21.8 72.7,22.9 68.1,24.2 68.6,19 69.1,13.8 69.7,8.6 69.8,7.5 69,6.5 67.9,6.3 66.8,6.2 65.8,7 65.6,8.1 65,14 64.4,19.7 63.8,25.4 c -4.6,1.3 -9.2,2.6 -13.9,4 0.4,-4.5 0.8,-9.1 1.2,-13.6 0.1,-1.1 -0.7,-2.1 -1.9,-2.2 -1.1,-0.1 -2.1,0.7 -2.2,1.9 -0.4,5.1 -0.9,10.1 -1.3,15.2 -4.6,1.4 -9.3,2.9 -14,4.4 0.3,-3.9 0.6,-7.8 0.8,-11.7 0.1,-1.1 -0.8,-2.1 -1.9,-2.2 -1.1,-0.1 -2.1,0.8 -2.2,1.9 -0.3,4.4 -0.6,8.9 -1,13.4 -5.6,1.9 -11.2,3.8 -17,5.8 -1.1,0.4 -1.6,1.6 -1.2,2.6 0.3,0.8 1.1,1.4 1.9,1.4 0.2,0 0.5,0 0.7,-0.1 5.2,-1.9 10.3,-3.6 15.3,-5.3 -0.1,1.8 -0.3,3.6 -0.4,5.4 h 4.1 c 0.2,-2.3 0.3,-4.5 0.5,-6.8 4.7,-1.6 9.4,-3 13.9,-4.4 -0.4,4 -0.7,8.1 -1.1,12.1 -0.4,0.1 -0.8,0.2 -1.2,0.3 v 4.2 c 0.3,-0.1 0.6,-0.1 0.8,-0.2 -0.3,3.2 -0.6,6.4 -0.8,9.6 v 2 c 3.4,0.4 6.5,1.7 9.1,3.7 2.5,-0.3 5.1,-0.6 7.6,-0.8 -0.3,3.3 -0.7,6.6 -1,9.9 0.4,1.1 0.7,2.3 0.8,3.5 2.9,1 5.6,2.7 7.8,4.7 2.5,0 5,0 7.4,0.1 -0.4,3.2 -0.7,6.3 -1.1,9.5 0.8,2.3 1.2,4.7 1.2,7.2 v 3 c 1,0 1.9,-0.8 2,-1.8 0.7,-5.9 1.3,-11.8 2,-17.7 5,0.2 10,0.4 14.9,0.7 1.2,0.1 2.1,-0.8 2.2,-1.9 C 95.9,82.1 95,81.1 93.9,81 89,80.7 84.1,80.4 79.2,80.3 79.8,75 80.4,69.7 81,64.4 c 5.2,-0.3 10.4,-0.5 15.5,-0.6 1.1,0 2,-1 2,-2.1 0,-1.1 -0.9,-2 -2.1,-2 v 0 c -4.9,0.1 -9.9,0.3 -15,0.6 0.6,-5.3 1.2,-10.6 1.8,-16 5.4,-0.8 10.8,-1.5 16,-2 1.1,-0.1 1.9,-1.1 1.8,-2.3 -0.1,-1.1 -1.2,-1.9 -2.3,-1.8 -5,0.5 -10,1.2 -15.1,1.9 0.6,-5.3 1.2,-10.7 1.8,-16 5.6,-1.3 11.1,-2.5 16.6,-3.6 1.1,-0.2 1.8,-1.3 1.6,-2.4 0.1,-1.1 -1,-1.9 -2.1,-1.6 z M 60.1,61.9 c -4.3,0.4 -8.7,0.9 -13.2,1.4 0.4,-4.2 0.7,-8.5 1.1,-12.7 4.6,-1 9.1,-1.8 13.5,-2.7 -0.4,4.7 -0.9,9.3 -1.4,14 z M 48.4,46.3 c 0.4,-4.2 0.7,-8.4 1.1,-12.6 4.7,-1.4 9.3,-2.7 13.8,-4 -0.5,4.6 -0.9,9.3 -1.4,13.9 -4.4,0.9 -8.9,1.8 -13.5,2.7 z M 75.2,80.2 C 71,80.1 66.8,80 62.4,80 c 0.5,-4.8 1,-9.6 1.5,-14.4 4.4,-0.4 8.8,-0.7 13.1,-1 -0.6,5.2 -1.2,10.4 -1.8,15.6 z m 2.3,-19.7 c -4.3,0.3 -8.7,0.6 -13.1,1 0.5,-4.8 1,-9.5 1.4,-14.3 4.5,-0.8 9,-1.6 13.5,-2.2 -0.7,5.1 -1.2,10.3 -1.8,15.5 z m 2.2,-19.8 c -4.4,0.7 -8.9,1.4 -13.5,2.2 0.5,-4.8 1,-9.5 1.4,-14.3 4.7,-1.3 9.3,-2.4 13.8,-3.5 -0.5,5.2 -1.1,10.4 -1.7,15.6 z" class="st50" style="fill:#000"/></g><g id="g36" style="fill:#000"><path id="path28" d="m 0,51.9 v 35.5 h 12.4 v -5.7 c 0,-9.6 7.8,-17.4 17.4,-17.4 h 5.7 V 51.9 Z" class="st50" style="fill:#000"/><path id="path30" d="M 41.2,69.7 H 29.8 c -6.7,0 -12.1,5.4 -12.1,12.1 v 11.4 c 0,6.2 4.7,11.3 10.8,12 0,-0.5 -0.1,-1 -0.1,-1.6 0,-12.7 10.4,-23.1 23.1,-23.1 0.5,0 1,0 1.6,0.1 C 52.5,74.4 47.4,69.7 41.2,69.7 Z" class="st50" style="fill:#000"/><circle id="circle32" cx="51.6" cy="103.5" r="17.8" class="st52" style="fill:#000"/><path id="path34" d="m 33.8,103.5 c 0,-9.8 8,-17.8 17.8,-17.8 9.8,0 17.8,8 17.8,17.8 0,9.8 -8,17.8 -17.8,17.8 -9.8,0 -17.8,-8 -17.8,-17.8 z" class="st50" style="fill:#000"/></g></g></svg>