<svg xmlns="http://www.w3.org/2000/svg" xmlns:svg="http://www.w3.org/2000/svg" id="Ebene_1" x="0" y="0" version="1.0" viewBox="0 0 128 128" style="enable-background:new 0 0 128 128" xml:space="preserve"><metadata id="metadata49"/><style id="style2" type="text/css"/><path style="color:#000;font-style:normal;font-variant:normal;font-weight:400;font-stretch:normal;font-size:medium;line-height:normal;font-family:sans-serif;font-variant-ligatures:normal;font-variant-position:normal;font-variant-caps:normal;font-variant-numeric:normal;font-variant-alternates:normal;font-feature-settings:normal;text-indent:0;text-align:start;text-decoration:none;text-decoration-line:none;text-decoration-style:solid;text-decoration-color:#000;letter-spacing:normal;word-spacing:normal;text-transform:none;writing-mode:lr-tb;direction:ltr;text-orientation:mixed;dominant-baseline:auto;baseline-shift:baseline;text-anchor:start;white-space:normal;shape-padding:0;clip-rule:nonzero;display:inline;overflow:visible;visibility:visible;opacity:1;isolation:auto;mix-blend-mode:normal;color-interpolation:sRGB;color-interpolation-filters:linearRGB;solid-color:#000;solid-opacity:1;vector-effect:none;fill:#0f0;fill-opacity:1;fill-rule:evenodd;stroke:none;stroke-width:2;stroke-linecap:butt;stroke-linejoin:miter;stroke-miterlimit:4;stroke-dasharray:6,6;stroke-dashoffset:0;stroke-opacity:1;color-rendering:auto;image-rendering:auto;shape-rendering:auto;text-rendering:auto;enable-background:accumulate" id="path1174-3-7" d="m 103.46094,56.818359 -0.11914,0.0039 0.0605,1.998046 0.0898,-0.002 2.04883,0.101563 2.04687,0.236328 1.57422,0.271484 0.33789,-1.970703 -1.60156,-0.27539 -0.0273,-0.0039 -0.0273,-0.0039 -2.11133,-0.24414 -0.0332,-0.0039 -0.0332,-0.002 -2.125,-0.105469 -0.041,-0.002 z m -6.574221,0.835938 -0.0293,0.0078 -0.0293,0.0098 -0.990234,0.320313 -0.02734,0.0078 -0.02539,0.0098 -1.054687,0.408203 -0.02734,0.0098 -0.02734,0.01367 -2.291015,1.046875 -0.02539,0.01172 -0.02344,0.01172 -0.886719,0.464843 0.927734,1.771485 0.871094,-0.455078 0.01758,-0.0098 2.207031,-1.007812 1.023438,-0.394532 0.0098,-0.0039 0.902344,-0.291015 0.275391,-0.07227 -0.5,-1.935547 z m 18.005861,3.146484 2.50781,0.705078 3.26953,0.917969 0.54102,-1.925781 -3.26953,-0.917969 -2.50586,-0.705078 z m -33.728518,5.128907 -0.146484,0.08789 1.027344,1.716797 0.146484,-0.08789 5.001953,-2.996093 -1.029297,-1.714844 z m -6.376953,3.8125 -0.01758,0.0098 -3.28125,1.873047 -0.01953,0.01172 -0.771484,0.414062 0.949218,1.761719 0.792969,-0.427734 0.0098,-0.0059 0.0098,-0.0059 3.320313,-1.894531 0.0078,-0.0039 0.0098,-0.0059 1.097656,-0.65625 -1.02539,-1.716797 z m -10.027343,5.373046 -0.0039,0.002 -3.318359,1.480468 -0.01953,0.0078 -0.01758,0.0078 -1.416016,0.564453 0.742187,1.857422 1.453126,-0.580078 0.01758,-0.0078 0.01758,-0.0078 3.394531,-1.513672 0.01953,-0.0078 0.01953,-0.0098 0.642578,-0.322265 -0.890625,-1.789063 z m -11.492188,4.121094 -0.01367,0.0039 -1.509765,0.28125 -0.0078,0.002 -1.552734,0.201171 -1.527344,0.103516 0.134766,1.996094 1.560546,-0.107422 0.03125,-0.002 0.0293,-0.0039 1.589844,-0.205079 0.02539,-0.0039 0.02734,-0.0059 1.613281,-0.298828 0.02344,-0.0039 0.02344,-0.0059 1.162109,-0.275391 -0.460937,-1.947265 z"/><path style="color:#000;font-style:normal;font-variant:normal;font-weight:400;font-stretch:normal;font-size:medium;line-height:normal;font-family:sans-serif;font-variant-ligatures:normal;font-variant-position:normal;font-variant-caps:normal;font-variant-numeric:normal;font-variant-alternates:normal;font-feature-settings:normal;text-indent:0;text-align:start;text-decoration:none;text-decoration-line:none;text-decoration-style:solid;text-decoration-color:#000;letter-spacing:normal;word-spacing:normal;text-transform:none;writing-mode:lr-tb;direction:ltr;text-orientation:mixed;dominant-baseline:auto;baseline-shift:baseline;text-anchor:start;white-space:normal;shape-padding:0;clip-rule:nonzero;display:inline;overflow:visible;visibility:visible;opacity:1;isolation:auto;mix-blend-mode:normal;color-interpolation:sRGB;color-interpolation-filters:linearRGB;solid-color:#000;solid-opacity:1;vector-effect:none;fill:#0f0;fill-opacity:1;fill-rule:evenodd;stroke:none;stroke-width:3.5;stroke-linecap:butt;stroke-linejoin:miter;stroke-miterlimit:4;stroke-dasharray:7,3.5;stroke-dashoffset:3.5;stroke-opacity:1;color-rendering:auto;image-rendering:auto;shape-rendering:auto;text-rendering:auto;enable-background:accumulate" id="path1174-3" d="M 108.21875 44.533203 L 107.43359 44.544922 L 107.48828 48.044922 L 108.23047 48.033203 L 111.36914 48.109375 L 114.33398 48.3125 L 114.57227 44.820312 L 111.56055 44.615234 L 111.52344 44.611328 L 111.48438 44.611328 L 108.28906 44.533203 L 108.25391 44.533203 L 108.21875 44.533203 z M 103.82812 44.716797 L 103.12891 44.773438 L 103.0957 44.775391 L 103.06445 44.779297 L 101.375 44.974609 L 101.3418 44.978516 L 101.30664 44.984375 L 99.611328 45.248047 L 99.574219 45.253906 L 99.537109 45.261719 L 97.839844 45.601562 L 97.798828 45.609375 L 97.761719 45.619141 L 96.646484 45.894531 L 97.488281 49.291016 L 98.5625 49.025391 L 100.15039 48.707031 L 100.16797 48.705078 L 101.8457 48.443359 L 103.44141 48.259766 L 103.4668 48.255859 L 104.10547 48.207031 L 103.82812 44.716797 z M 118.15039 45.197266 L 117.71875 48.669922 L 119.77539 48.925781 L 119.77539 48.923828 L 124.20703 49.494141 L 124.24414 49.498047 L 124.28125 49.501953 L 124.73242 49.541016 L 125.0293 46.052734 L 124.61914 46.017578 L 120.21484 45.453125 L 120.21094 45.453125 L 120.20703 45.451172 L 118.15039 45.197266 z M 93.136719 46.980469 L 92.537109 47.195312 L 92.492188 47.210938 L 92.447266 47.230469 L 90.925781 47.871094 L 90.925781 51.601562 C 90.925781 51.659672 90.909034 51.715012 90.900391 51.771484 L 92.183594 51.140625 L 93.759766 50.474609 L 94.316406 50.275391 L 93.136719 46.980469 z M 82.726562 53.201172 L 82.501953 53.394531 L 82.458984 53.431641 L 82.417969 53.472656 L 80.976562 54.888672 L 80.949219 54.916016 L 80.921875 54.943359 L 78.453125 57.59375 L 81.013672 59.978516 L 83.429688 57.384766 L 83.451172 57.363281 L 84.822266 56.015625 L 85.814453 55.162109 L 84.126953 53.201172 L 82.726562 53.201172 z M 88.431641 53.201172 L 88.441406 53.214844 L 88.462891 53.201172 L 88.431641 53.201172 z M 76.091797 60.224609 L 75.832031 60.515625 L 75.820312 60.527344 L 75.810547 60.541016 L 71.712891 65.302734 L 71.708984 65.308594 L 71.501953 65.544922 L 74.146484 67.839844 L 74.357422 67.595703 L 74.359375 67.59375 L 74.361328 67.589844 L 78.441406 62.847656 L 78.462891 62.822266 L 78.701172 62.558594 L 76.091797 60.224609 z M 69.208984 68.189453 L 68.275391 69.265625 L 68.267578 69.273438 L 66.675781 70.976562 L 66.660156 70.994141 L 65.169922 72.443359 L 64.509766 73.007812 L 66.78125 75.669922 L 67.488281 75.068359 L 67.53125 75.03125 L 67.572266 74.990234 L 69.160156 73.443359 L 69.191406 73.414062 L 69.21875 73.384766 L 70.833984 71.65625 L 70.855469 71.632812 L 70.876953 71.607422 L 71.851562 70.482422 L 69.208984 68.189453 z M 61.9375 74.947266 L 61.339844 75.310547 L 60.527344 75.753906 L 59.658203 76.167969 L 59.287109 76.320312 L 59.287109 80.060547 L 59.988281 79.8125 L 60.03125 79.796875 L 60.074219 79.779297 L 61.050781 79.376953 L 61.09375 79.359375 L 61.134766 79.339844 L 62.070312 78.894531 L 62.111328 78.875 L 62.152344 78.853516 L 63.050781 78.365234 L 63.091797 78.34375 L 63.128906 78.320312 L 63.763672 77.931641 L 61.9375 74.947266 z"/><path style="color:#000;font-style:normal;font-variant:normal;font-weight:400;font-stretch:normal;font-size:medium;line-height:normal;font-family:sans-serif;font-variant-ligatures:normal;font-variant-position:normal;font-variant-caps:normal;font-variant-numeric:normal;font-variant-alternates:normal;font-feature-settings:normal;text-indent:0;text-align:start;text-decoration:none;text-decoration-line:none;text-decoration-style:solid;text-decoration-color:#000;letter-spacing:normal;word-spacing:normal;text-transform:none;writing-mode:lr-tb;direction:ltr;text-orientation:mixed;dominant-baseline:auto;baseline-shift:baseline;text-anchor:start;white-space:normal;shape-padding:0;clip-rule:nonzero;display:inline;overflow:visible;visibility:visible;opacity:1;isolation:auto;mix-blend-mode:normal;color-interpolation:sRGB;color-interpolation-filters:linearRGB;solid-color:#000;solid-opacity:1;vector-effect:none;fill:#0f0;fill-opacity:1;fill-rule:evenodd;stroke:none;stroke-width:8;stroke-linecap:butt;stroke-linejoin:miter;stroke-miterlimit:4;stroke-dasharray:none;stroke-dashoffset:0;stroke-opacity:1;color-rendering:auto;image-rendering:auto;shape-rendering:auto;text-rendering:auto;enable-background:accumulate" id="path1174" d="M 127.12109 21.6875 C 126.77593 21.719216 126.00883 21.729323 125.10742 21.734375 L 125.10742 29.755859 C 126.10139 29.748382 127.0435 29.726774 127.85352 29.652344 L 127.12109 21.6875 z M 105.10742 22.861328 C 96.835336 24.162492 87.611925 27.00314 80.044922 33.414062 L 88.529297 33.414062 C 89.810145 33.414062 90.841797 34.129225 90.841797 35.015625 L 90.841797 35.71875 C 95.327077 33.292946 100.26632 31.823115 105.11523 30.960938 C 105.11411 30.940366 105.10742 30.921159 105.10742 30.900391 L 105.10742 22.861328 z M 70.841797 44.199219 C 66.682994 50.648038 64.1125 57.221691 61.621094 62.425781 C 60.809117 64.12185 60.002276 65.63905 59.1875 66.988281 L 59.1875 78.814453 C 60.162502 78.163927 61.066262 77.435021 61.876953 76.628906 C 64.907664 73.615307 66.931695 69.856518 68.835938 65.878906 C 70.758308 61.863423 72.599481 57.593561 74.800781 53.414062 L 73.152344 53.414062 C 71.871496 53.414062 70.841797 52.700853 70.841797 51.814453 L 70.841797 44.199219 z M 2.2226562 65.044922 C 1.369998 65.039907 0.49828945 65.044579 -0.39453125 65.060547 L -0.25 73.058594 C 1.2108746 73.032467 2.5762563 73.04738 3.9023438 73.078125 L 3.9023438 65.082031 C 3.3450209 65.068077 2.8003861 65.04832 2.2226562 65.044922 z M 23.902344 67.863281 L 23.902344 76.164062 C 25.119968 76.532961 26.309707 76.909987 27.455078 77.296875 C 31.320918 78.602693 35.034961 80.008218 39.1875 80.921875 L 39.1875 72.673828 C 36.295921 71.906273 33.417361 70.867802 30.015625 69.71875 C 28.14748 69.087721 26.111607 68.456587 23.902344 67.863281 z"/><rect style="opacity:1;fill:#f0f;fill-opacity:1;stroke:none;stroke-width:3" id="rect1145" width="15" height="15" x="6.302" y="64.003" rx="1.734" ry="1.2"/><rect style="opacity:1;fill:#f0f;fill-opacity:1;stroke:none;stroke-width:3" id="rect1145-7" width="15" height="15" x="73.382" y="36.047" rx="1.734" ry="1.2"/><rect style="opacity:1;fill:#f0f;fill-opacity:1;stroke:none;stroke-width:3" id="rect1145-78" width="15" height="15" x="41.694" y="67.589" rx="1.734" ry="1.2"/><rect style="opacity:1;fill:#f0f;fill-opacity:1;stroke:none;stroke-width:3" id="rect1145-2" width="15" height="15" x="107.608" y="14.999" rx="1.734" ry="1.2"/><text xml:space="preserve" style="font-style:normal;font-variant:normal;font-weight:700;font-stretch:normal;font-size:40px;line-height:1.25;font-family:Arial;-inkscape-font-specification:'Arial Bold';letter-spacing:0;word-spacing:0;fill:#0f0;fill-opacity:1;stroke:none;stroke-width:1px;stroke-linecap:butt;stroke-linejoin:miter;stroke-opacity:1" id="text1208" x="5" y="34.5"><tspan id="tspan1206" x="5" y="34.5" style="font-style:normal;font-variant:normal;font-weight:700;font-stretch:normal;font-size:40px;font-family:Arial;-inkscape-font-specification:'Arial Bold';fill:#0f0">FIT</tspan></text><text xml:space="preserve" style="font-style:normal;font-variant:normal;font-weight:700;font-stretch:normal;font-size:40px;line-height:1.25;font-family:Arial;-inkscape-font-specification:'Arial Bold';letter-spacing:0;word-spacing:0;fill:#0f0;fill-opacity:1;stroke:none;stroke-width:1px;stroke-linecap:butt;stroke-linejoin:miter;stroke-opacity:1" id="text1208-6" x="-.053" y="123.673"><tspan id="tspan1206-4" x="-.053" y="123.673" style="font-style:normal;font-variant:normal;font-weight:700;font-stretch:normal;font-size:48px;font-family:Arial;-inkscape-font-specification:'Arial Bold';fill:#f0f">DATA</tspan></text></svg>