<svg xmlns="http://www.w3.org/2000/svg" xmlns:svg="http://www.w3.org/2000/svg" id="svg2" width="512" height="512" version="1.1" viewBox="0 0 512 512"><metadata id="metadata7"/><g id="layer1" transform="translate(0,-540.36216)"><path style="fill:#0f0;fill-opacity:1;fill-rule:evenodd;stroke:none;stroke-width:1px;stroke-linecap:butt;stroke-linejoin:miter;stroke-opacity:1" id="path4151" d="m 48.321988,783.4165 c -14.122,73.44496 7.470213,130.56342 94.116602,157.94286 -13.62892,30.05997 -24.92792,41.48077 -35.69939,48.68105 -0.85347,7.19642 -3.31449,15.51809 9.7362,12.98159 -5.48239,11.7598 -10.49397,23.3216 10.81799,23.7996 30.05872,-1.668 64.92834,-11.7551 89.78941,-4.3271 84.12809,12.5238 130.35438,-1.3189 182.82424,-10.8181 135.67123,-58.77169 94.63098,-86.359 63.82622,-115.75264 -23.0346,-122.13415 -71.09014,-213.99297 -236.91425,-163.35182 -38.2403,2.71083 -51.42204,-18.31803 -62.74441,-41.10841 44.27796,-46.23293 65.88062,-59.58997 95.73932,-65.44892 31.26852,-9.14542 18.13151,-48.69298 -1.62271,-41.6493 -39.75382,14.17487 -80.94147,27.55319 -108.18001,48.681 0,0 41.17891,-45.0891 30.2904,-67.0716 -4.27082,-8.62225 -19.14117,-9.93193 -28.12681,-6.49081 -30.45688,11.66374 -56.253598,80.05322 -56.253598,80.05322 -30.7047,3.13544 -59.887005,11.09184 -73.562418,68.15341 -17.3052805,63.18308 7.347623,65.04268 25.963214,75.72597 z"/></g></svg>