<svg xmlns="http://www.w3.org/2000/svg" xmlns:svg="http://www.w3.org/2000/svg" id="svg2" x="0" y="0" version="1.1" viewBox="0 0 40 36.7" style="enable-background:new 0 0 40 36.7" xml:space="preserve"><metadata id="metadata31"/><style id="style4" type="text/css">.st0{display:none}.st1{display:inline;fill:#9d9d9c}.st18{fill:#1c1c1b}</style><g id="Ebene_4" class="st0"><rect id="rect7" width="1421.9" height="1801.4" x="-142.8" y="-1023.8" class="st1"/></g><g id="Ebene_3" style="fill:#0f0;fill-opacity:1;stroke:none"><g id="g12" style="fill:#0f0;fill-opacity:1;stroke:none"><g id="g14" style="fill:#0f0;fill-opacity:1;stroke:none"><path id="path16" d="M38.8,23.3H1.2c-0.7,0-1.2,0.6-1.2,1.2v6.2c0,0.7,0.6,1.2,1.2,1.2h37.5c0.7,0,1.2-0.6,1.2-1.2v-6.2 C40,23.9,39.4,23.3,38.8,23.3z M7.7,29.6c-1,0-1.9-0.8-1.9-1.9s0.8-1.9,1.9-1.9c1,0,1.9,0.8,1.9,1.9S8.7,29.6,7.7,29.6z M17.4,29.6c-1,0-1.9-0.8-1.9-1.9s0.8-1.9,1.9-1.9c1,0,1.9,0.8,1.9,1.9S18.5,29.6,17.4,29.6z M22.6,29.6c-1,0-1.9-0.8-1.9-1.9 s0.8-1.9,1.9-1.9c1,0,1.9,0.8,1.9,1.9S23.6,29.6,22.6,29.6z" class="st18" style="fill:#0f0;fill-opacity:1;stroke:none"/><path id="path18" d="M15.4,36.7c-0.4-1.1-0.5-1.2-0.1-1.4l4-2.3c0.4-0.2,0.9-0.2,1.3,0l4,2.3c0.4,0.2,0.3,0.4-0.1,1.4H15.4z" class="st18" style="fill:#0f0;fill-opacity:1;stroke:none"/></g><g id="g20" style="fill:#0f0;fill-opacity:1;stroke:none"><g id="XMLID_56_" style="fill:#0f0;fill-opacity:1;stroke:none"><g id="g23" style="fill:#0f0;fill-opacity:1;stroke:none"><path id="path25" d="M20,13.3c1.8,0,3.3-1.5,3.3-3.3c0-1.8-1.5-3.3-3.3-3.3c-1.8,0-3.3,1.5-3.3,3.3C16.7,11.8,18.2,13.3,20,13.3z M30,9.2 c0,0,0,0.4,0,0.8c0,0.4,0,0.6,0,0.6c0,0.2-0.2,0.5-0.4,0.6l-1.6,0.7c0,0-0.1,0-0.1,0.1c-0.2,0.7-0.4,1.3-0.8,2 c0,0.1,0,0.1,0,0.2l0.7,1.6c0.1,0.2,0,0.6-0.1,0.7l-1,1c-0.2,0.2-0.5,0.2-0.7,0.1L24.2,17c-0.1,0-0.1,0-0.2,0 c-0.6,0.3-1.2,0.6-1.9,0.8c0,0-0.1,0.1-0.1,0.1l-0.7,1.7c-0.1,0.2-0.4,0.4-0.6,0.4c0,0-0.4,0-0.8,0c-0.4,0-0.6,0-0.6,0 c-0.2,0-0.5-0.2-0.6-0.4l-0.7-1.6c0,0,0-0.1-0.1-0.1c-0.7-0.2-1.3-0.4-1.9-0.8c-0.1,0-0.1,0-0.2,0l-1.6,0.7 c-0.2,0.1-0.6,0-0.7-0.1l-1-1c-0.2-0.2-0.2-0.5-0.1-0.7l0.7-1.7c0,0,0-0.1,0-0.2c-0.3-0.6-0.6-1.2-0.8-1.8c0,0-0.1-0.1-0.1-0.1 l-1.7-0.7c-0.2-0.1-0.4-0.4-0.4-0.6c0,0,0-0.4,0-0.8c0-0.4,0-0.6,0-0.6c0-0.2,0.2-0.5,0.4-0.6l1.6-0.7c0,0,0.1,0,0.1-0.1 c0.2-0.7,0.4-1.3,0.8-1.9c0-0.1,0-0.1,0-0.2l-0.7-1.6c-0.1-0.2,0-0.6,0.1-0.7l1-1c0.2-0.2,0.5-0.2,0.7-0.1L15.8,3 c0,0,0.1,0,0.2,0c0.6-0.3,1.2-0.6,1.8-0.8c0,0,0.1-0.1,0.1-0.1l0.7-1.7c0.1-0.2,0.4-0.4,0.6-0.4c0,0,0.4,0,0.8,0 c0.4,0,0.6,0,0.6,0c0.2,0,0.5,0.2,0.6,0.4l0.7,1.6c0,0,0.1,0.1,0.1,0.1c0.7,0.2,1.3,0.4,2,0.8c0.1,0,0.1,0,0.2,0l1.6-0.7 c0.2-0.1,0.6,0,0.7,0.1l1,1c0.2,0.2,0.2,0.5,0.1,0.7L27,5.8c0,0.1,0,0.1,0,0.2c0.3,0.6,0.6,1.2,0.8,1.9c0.1,0,0.1,0.1,0.1,0.1 l1.7,0.7C29.7,8.7,29.9,8.9,30,9.2z" style="fill:#0f0;fill-opacity:1;stroke:none"/></g></g></g></g></g></svg>