<svg xmlns="http://www.w3.org/2000/svg" xmlns:svg="http://www.w3.org/2000/svg" id="svg2" x="0" y="0" version="1.1" viewBox="0 0 40 35.5" style="enable-background:new 0 0 40 35.5" xml:space="preserve"><metadata id="metadata44"/><style id="style4" type="text/css">.st0{display:none}.st1{display:inline;fill:#9d9d9c}.st18{fill:#1c1c1b}</style><g id="Ebene_4" class="st0"><rect id="rect7" width="1421.9" height="1801.4" x="-138.2" y="-1118.1" class="st1"/></g><g id="Ebene_3" style="fill:#0f0;fill-opacity:1;stroke:none"><g id="g12" style="fill:#0f0;fill-opacity:1;stroke:none"><g id="g14" style="fill:#0f0;fill-opacity:1;stroke:none"><g id="g16" style="fill:#0f0;fill-opacity:1;stroke:none"><path id="path18" d="M38.8,22.2H1.2c-0.7,0-1.2,0.6-1.2,1.2v6.2c0,0.7,0.6,1.2,1.2,1.2h37.5c0.7,0,1.2-0.6,1.2-1.2v-6.2 C40,22.7,39.4,22.2,38.8,22.2z M7.7,28.4c-1,0-1.9-0.8-1.9-1.9c0-1,0.8-1.9,1.9-1.9s1.9,0.8,1.9,1.9C9.5,27.6,8.7,28.4,7.7,28.4 z M17.4,28.4c-1,0-1.9-0.8-1.9-1.9c0-1,0.8-1.9,1.9-1.9c1,0,1.9,0.8,1.9,1.9C19.3,27.6,18.5,28.4,17.4,28.4z M22.6,28.4 c-1,0-1.9-0.8-1.9-1.9c0-1,0.8-1.9,1.9-1.9c1,0,1.9,0.8,1.9,1.9C24.4,27.6,23.6,28.4,22.6,28.4z" class="st18" style="fill:#0f0;fill-opacity:1;stroke:none"/><path id="path20" d="M15.4,35.5c-0.4-1.1-0.5-1.2-0.1-1.4l4-2.3c0.4-0.2,0.9-0.2,1.3,0l4,2.3c0.4,0.2,0.3,0.4-0.1,1.4H15.4z" class="st18" style="fill:#0f0;fill-opacity:1;stroke:none"/></g></g><g id="g22" style="fill:#0f0;fill-opacity:1;stroke:none"><rect id="rect24" width="5.2" height="2.1" x="16.4" y="15.8" class="st18" style="fill:#0f0;fill-opacity:1;stroke:none"/><polygon id="polygon26" points="12.1 13.7 10 13.7 10 17.9 14.2 17.9 14.2 15.8 12.1 15.8" class="st18" style="fill:#0f0;fill-opacity:1;stroke:none"/><rect id="rect28" width="2.1" height="5.2" x="10" y="6.4" class="st18" style="fill:#0f0;fill-opacity:1;stroke:none"/><polygon id="polygon30" points="10 4.2 12.1 4.2 12.1 2.1 14.2 2.1 14.2 0 10 0" class="st18" style="fill:#0f0;fill-opacity:1;stroke:none"/><rect id="rect32" width="5.2" height="2.1" x="16.4" class="st18" style="fill:#0f0;fill-opacity:1;stroke:none"/><polygon id="polygon34" points="25.8 4.2 27.9 4.2 27.9 0 23.7 0 23.7 2.1 25.8 2.1" class="st18" style="fill:#0f0;fill-opacity:1;stroke:none"/><rect id="rect36" width="2.1" height="5.2" x="25.8" y="6.4" class="st18" style="fill:#0f0;fill-opacity:1;stroke:none"/><polygon id="polygon38" points="27.9 15.8 27.9 13.7 25.8 13.7 25.8 15.8 23.7 15.8 23.7 17.9 25.8 17.9 25.8 20 27.9 20 27.9 17.9 30 17.9 30 15.8" class="st18" style="fill:#0f0;fill-opacity:1;stroke:none"/></g></g></g></svg>