<svg xmlns="http://www.w3.org/2000/svg" xmlns:svg="http://www.w3.org/2000/svg" id="svg2" x="0" y="0" version="1.1" viewBox="0 0 40 13.3" style="enable-background:new 0 0 40 13.3" xml:space="preserve"><metadata id="metadata24"/><style id="style4" type="text/css">.st0{display:none}.st1{display:inline;fill:#9d9d9c}.st18{fill:#1c1c1b}</style><g id="Ebene_4" class="st0"><rect id="rect7" width="1421.9" height="1801.4" x="-142.8" y="-980.4" class="st1"/></g><g id="Ebene_3" style="stroke:none;stroke-opacity:1;fill:#0f0;fill-opacity:1"><g id="g12" style="stroke:none;stroke-opacity:1;fill:#0f0;fill-opacity:1"><g id="g14" style="stroke:none;stroke-opacity:1;fill:#0f0;fill-opacity:1"><path id="path16" d="M38.8,0H1.2C0.6,0,0,0.6,0,1.2v6.2c0,0.7,0.6,1.2,1.2,1.2h37.5c0.7,0,1.2-0.6,1.2-1.2V1.2 C40,0.6,39.4,0,38.8,0z M7.7,6.2c-1,0-1.9-0.8-1.9-1.9c0-1,0.8-1.9,1.9-1.9c1,0,1.9,0.8,1.9,1.9C9.5,5.4,8.7,6.2,7.7,6.2z M17.4,6.2c-1,0-1.9-0.8-1.9-1.9c0-1,0.8-1.9,1.9-1.9c1,0,1.9,0.8,1.9,1.9C19.3,5.4,18.5,6.2,17.4,6.2z M22.6,6.2 c-1,0-1.9-0.8-1.9-1.9c0-1,0.8-1.9,1.9-1.9c1,0,1.9,0.8,1.9,1.9C24.4,5.4,23.6,6.2,22.6,6.2z" class="st18" style="stroke:none;stroke-opacity:1;fill:#0f0;fill-opacity:1"/><path id="path18" d="M15.4,13.3c-0.4-1.1-0.5-1.2-0.1-1.4l4-2.3c0.4-0.2,0.9-0.2,1.3,0l4,2.3c0.4,0.2,0.3,0.4-0.1,1.4H15.4z" class="st18" style="stroke:none;stroke-opacity:1;fill:#0f0;fill-opacity:1"/></g></g></g></svg>