<svg xmlns="http://www.w3.org/2000/svg" xmlns:svg="http://www.w3.org/2000/svg" id="svg2" width="128" height="128" version="1.1" viewBox="0 0 2158.424 2158.426"><metadata id="metadata10"/><rect style="opacity:1;fill:#adb1b6;fill-opacity:1" id="rect4195" width="1430.214" height="401.809" x="817.623" y="-196.427" ry="103.693" transform="matrix(0.70392444,0.71027487,-0.73008271,0.68335879,0,0)"/><path style="opacity:1;fill:#adb1b6;fill-opacity:1" id="path4176" d="M 1079.211,0 A 1079.2128,1079.2128 0 0 0 0,1079.2129 1079.2128,1079.2128 0 0 0 1079.211,2158.4258 1079.2128,1079.2128 0 0 0 2158.4239,1079.2129 1079.2128,1079.2128 0 0 0 1079.211,0 Z m -5.3692,209.40039 a 875.1825,875.1825 0 0 1 875.1836,875.18171 875.1825,875.1825 0 0 1 -875.1836,875.1816 875.1825,875.1825 0 0 1 -875.18164,-875.1816 875.1825,875.1825 0 0 1 875.18164,-875.18171 z"/><rect style="opacity:1;fill:#adb1b6;fill-opacity:1" id="rect4195-3" width="1430.214" height="401.809" x="-653.147" y="1329.686" ry="103.693" transform="matrix(-0.70392444,0.71027487,0.73008271,0.68335879,0,0)"/></svg>