<svg xmlns="http://www.w3.org/2000/svg" xmlns:svg="http://www.w3.org/2000/svg" id="svg2" x="0" y="0" version="1.1" viewBox="0 0 40 25.6" style="enable-background:new 0 0 40 25.6" xml:space="preserve"><metadata id="metadata74"/><style id="style4" type="text/css">.st0{display:none}.st1{display:inline;fill:#9d9d9c}.st21{fill:#010202}</style><g id="Ebene_4" class="st0"><rect id="rect7" width="1421.9" height="1801.4" x="-132" y="-1365" class="st1"/></g><g id="Ebene_1" style="fill:#0f0;fill-opacity:1;stroke:none"><g id="g11" style="fill:#0f0;fill-opacity:1;stroke:none"><g id="g13" style="fill:#0f0;fill-opacity:1;stroke:none"><g id="g15" style="fill:#0f0;fill-opacity:1;stroke:none"><path id="path17" d="M22.2,15.1c0.2-0.3,0.4-0.6,0.7-0.8l-3-1.7c-0.1,0.3-0.2,0.7-0.4,1c-0.2,0.3-0.4,0.6-0.7,0.8l3,1.7 C21.9,15.8,22,15.5,22.2,15.1z" class="st21" style="fill:#0f0;fill-opacity:1;stroke:none"/><path id="path19" d="M22.2,15.1c0.2-0.3,0.4-0.6,0.7-0.8l-3-1.7c-0.1,0.3-0.2,0.7-0.4,1c-0.2,0.3-0.4,0.6-0.7,0.8l3,1.7 C21.9,15.8,22,15.5,22.2,15.1z" class="st21" style="fill:#0f0;fill-opacity:1;stroke:none"/><path id="path21" d="M22.2,15.1c0.2-0.3,0.4-0.6,0.7-0.8l-3-1.7c-0.1,0.3-0.2,0.7-0.4,1c-0.2,0.3-0.4,0.6-0.7,0.8l3,1.7 C21.9,15.8,22,15.5,22.2,15.1z" class="st21" style="fill:#0f0;fill-opacity:1;stroke:none"/><path id="path23" d="M22.2,15.1c0.2-0.3,0.4-0.6,0.7-0.8l-3-1.7c-0.1,0.3-0.2,0.7-0.4,1c-0.2,0.3-0.4,0.6-0.7,0.8l3,1.7 C21.9,15.8,22,15.5,22.2,15.1z" class="st21" style="fill:#0f0;fill-opacity:1;stroke:none"/></g><g id="g25" style="fill:#0f0;fill-opacity:1;stroke:none"><path id="path27" d="M13.4,10.1c0.2-0.3,0.4-0.6,0.7-0.8l-1.8-1l-0.1-2.4c-0.7,0.2-1.4,0.3-2,0.1l0.1,1.7L6,7.2 c0.1,0.7,0.1,1.4-0.2,2l5.2,0.6l2.1,1.2C13.1,10.7,13.2,10.4,13.4,10.1z" class="st21" style="fill:#0f0;fill-opacity:1;stroke:none"/><path id="path29" d="M13.4,10.1c0.2-0.3,0.4-0.6,0.7-0.8l-1.8-1l-0.1-2.4c-0.7,0.2-1.4,0.3-2,0.1l0.1,1.7L6,7.2 c0.1,0.7,0.1,1.4-0.2,2l5.2,0.6l2.1,1.2C13.1,10.7,13.2,10.4,13.4,10.1z" class="st21" style="fill:#0f0;fill-opacity:1;stroke:none"/><path id="path31" d="M13.4,10.1c0.2-0.3,0.4-0.6,0.7-0.8l-1.8-1l-0.1-2.4c-0.7,0.2-1.4,0.3-2,0.1l0.1,1.7L6,7.2 c0.1,0.7,0.1,1.4-0.2,2l5.2,0.6l2.1,1.2C13.1,10.7,13.2,10.4,13.4,10.1z" class="st21" style="fill:#0f0;fill-opacity:1;stroke:none"/><path id="path33" d="M13.4,10.1c0.2-0.3,0.4-0.6,0.7-0.8l-1.8-1l-0.1-2.4c-0.7,0.2-1.4,0.3-2,0.1l0.1,1.7L6,7.2 c0.1,0.7,0.1,1.4-0.2,2l5.2,0.6l2.1,1.2C13.1,10.7,13.2,10.4,13.4,10.1z" class="st21" style="fill:#0f0;fill-opacity:1;stroke:none"/></g><g id="g35" style="fill:#0f0;fill-opacity:1;stroke:none"><path id="path37" d="M39.8,24.9l-11.4-6.6c0,0.1-0.1,0.2-0.1,0.3c-0.1,0.1-0.1,0.2-0.2,0.3l11.4,6.6c0.2,0.1,0.4,0,0.5-0.1 C40,25.2,40,25,39.8,24.9z" class="st21" style="fill:#0f0;fill-opacity:1;stroke:none"/><path id="path39" d="M39.8,24.9l-11.4-6.6c0,0.1-0.1,0.2-0.1,0.3c-0.1,0.1-0.1,0.2-0.2,0.3l11.4,6.6c0.2,0.1,0.4,0,0.5-0.1 C40,25.2,40,25,39.8,24.9z" class="st21" style="fill:#0f0;fill-opacity:1;stroke:none"/><path id="path41" d="M39.8,24.9l-11.4-6.6c0,0.1-0.1,0.2-0.1,0.3c-0.1,0.1-0.1,0.2-0.2,0.3l11.4,6.6c0.2,0.1,0.4,0,0.5-0.1 C40,25.2,40,25,39.8,24.9z" class="st21" style="fill:#0f0;fill-opacity:1;stroke:none"/><path id="path43" d="M39.8,24.9l-11.4-6.6c0,0.1-0.1,0.2-0.1,0.3c-0.1,0.1-0.1,0.2-0.2,0.3l11.4,6.6c0.2,0.1,0.4,0,0.5-0.1 C40,25.2,40,25,39.8,24.9z" class="st21" style="fill:#0f0;fill-opacity:1;stroke:none"/></g></g><g id="g45" style="fill:#0f0;fill-opacity:1;stroke:none"><g id="g47" style="fill:#0f0;fill-opacity:1;stroke:none"><path id="path49" d="M0.3,6.6C1,5.3,2.6,4.9,3.8,5.6c1.2,0.7,1.6,2.3,0.9,3.5c-0.7,1.2-2.3,1.6-3.5,0.9 C0.1,9.4-0.4,7.8,0.3,6.6" class="st21" style="fill:#0f0;fill-opacity:1;stroke:none"/></g></g><g id="g51" style="fill:#0f0;fill-opacity:1;stroke:none"><g id="g53" style="fill:#0f0;fill-opacity:1;stroke:none"><path id="path55" d="M8.8,1.3c0.7-1.2,2.3-1.6,3.5-0.9c1.2,0.7,1.6,2.3,0.9,3.5c-0.7,1.2-2.3,1.6-3.5,0.9 C8.5,4.1,8.1,2.5,8.8,1.3" class="st21" style="fill:#0f0;fill-opacity:1;stroke:none"/></g></g><g id="g57" style="fill:#0f0;fill-opacity:1;stroke:none"><g id="g59" style="fill:#0f0;fill-opacity:1;stroke:none"><path id="path61" d="M14.3,10.6c0.7-1.2,2.3-1.6,3.5-0.9c1.2,0.7,1.6,2.3,0.9,3.5c-0.7,1.2-2.3,1.6-3.5,0.9 C14,13.4,13.6,11.8,14.3,10.6" class="st21" style="fill:#0f0;fill-opacity:1;stroke:none"/></g></g><g id="g63" style="fill:#0f0;fill-opacity:1;stroke:none"><g id="g65" style="fill:#0f0;fill-opacity:1;stroke:none"><path id="path67" d="M23,15.6c0.7-1.2,2.3-1.6,3.5-0.9c1.2,0.7,1.6,2.3,0.9,3.5c-0.7,1.2-2.3,1.6-3.5,0.9 C22.8,18.4,22.3,16.9,23,15.6" class="st21" style="fill:#0f0;fill-opacity:1;stroke:none"/></g></g></g></g></svg>