<svg xmlns="http://www.w3.org/2000/svg" xmlns:svg="http://www.w3.org/2000/svg" id="svg2" x="0" y="0" version="1.1" viewBox="0 0 40 28.5" style="enable-background:new 0 0 40 28.5" xml:space="preserve"><metadata id="metadata84"/><style id="style4" type="text/css">.st0{display:none}.st1{display:inline;fill:#9d9d9c}.st21{fill:#010202}</style><g id="Ebene_4" class="st0"><rect id="rect7" width="1421.9" height="1801.4" x="-136.8" y="-1546.6" class="st1"/></g><g id="Ebene_3" style="fill:#0f0;fill-opacity:1;stroke:none"><g id="g12" style="fill:#0f0;fill-opacity:1;stroke:none"><g id="g14" style="fill:#0f0;fill-opacity:1;stroke:none"><g id="g16" style="fill:#0f0;fill-opacity:1;stroke:none"><g id="g18" style="fill:#0f0;fill-opacity:1;stroke:none"><path id="path20" d="M22.2,15.1c0.2-0.3,0.4-0.6,0.7-0.8l-3-1.7c-0.1,0.3-0.2,0.7-0.4,1c-0.2,0.3-0.4,0.6-0.7,0.8l3,1.7 C21.9,15.8,22,15.5,22.2,15.1z" class="st21" style="fill:#0f0;fill-opacity:1;stroke:none"/><path id="path22" d="M22.2,15.1c0.2-0.3,0.4-0.6,0.7-0.8l-3-1.7c-0.1,0.3-0.2,0.7-0.4,1c-0.2,0.3-0.4,0.6-0.7,0.8l3,1.7 C21.9,15.8,22,15.5,22.2,15.1z" class="st21" style="fill:#0f0;fill-opacity:1;stroke:none"/><path id="path24" d="M22.2,15.1c0.2-0.3,0.4-0.6,0.7-0.8l-3-1.7c-0.1,0.3-0.2,0.7-0.4,1c-0.2,0.3-0.4,0.6-0.7,0.8l3,1.7 C21.9,15.8,22,15.5,22.2,15.1z" class="st21" style="fill:#0f0;fill-opacity:1;stroke:none"/><path id="path26" d="M22.2,15.1c0.2-0.3,0.4-0.6,0.7-0.8l-3-1.7c-0.1,0.3-0.2,0.7-0.4,1c-0.2,0.3-0.4,0.6-0.7,0.8l3,1.7 C21.9,15.8,22,15.5,22.2,15.1z" class="st21" style="fill:#0f0;fill-opacity:1;stroke:none"/></g><g id="g28" style="fill:#0f0;fill-opacity:1;stroke:none"><path id="path30" d="M13.4,10.1c0.2-0.3,0.4-0.6,0.7-0.8l-1.8-1l-0.1-2.4c-0.7,0.2-1.4,0.3-2,0.1l0.1,1.7L6,7.2 c0.1,0.7,0.1,1.4-0.2,2l5.2,0.6l2.1,1.2C13.1,10.7,13.2,10.4,13.4,10.1z" class="st21" style="fill:#0f0;fill-opacity:1;stroke:none"/><path id="path32" d="M13.4,10.1c0.2-0.3,0.4-0.6,0.7-0.8l-1.8-1l-0.1-2.4c-0.7,0.2-1.4,0.3-2,0.1l0.1,1.7L6,7.2 c0.1,0.7,0.1,1.4-0.2,2l5.2,0.6l2.1,1.2C13.1,10.7,13.2,10.4,13.4,10.1z" class="st21" style="fill:#0f0;fill-opacity:1;stroke:none"/><path id="path34" d="M13.4,10.1c0.2-0.3,0.4-0.6,0.7-0.8l-1.8-1l-0.1-2.4c-0.7,0.2-1.4,0.3-2,0.1l0.1,1.7L6,7.2 c0.1,0.7,0.1,1.4-0.2,2l5.2,0.6l2.1,1.2C13.1,10.7,13.2,10.4,13.4,10.1z" class="st21" style="fill:#0f0;fill-opacity:1;stroke:none"/><path id="path36" d="M13.4,10.1c0.2-0.3,0.4-0.6,0.7-0.8l-1.8-1l-0.1-2.4c-0.7,0.2-1.4,0.3-2,0.1l0.1,1.7L6,7.2 c0.1,0.7,0.1,1.4-0.2,2l5.2,0.6l2.1,1.2C13.1,10.7,13.2,10.4,13.4,10.1z" class="st21" style="fill:#0f0;fill-opacity:1;stroke:none"/></g><g id="g38" style="fill:#0f0;fill-opacity:1;stroke:none"><path id="path40" d="M39.8,24.9l-11.4-6.6c0,0.1-0.1,0.2-0.1,0.3c-0.1,0.1-0.1,0.2-0.2,0.3l11.4,6.6c0.2,0.1,0.4,0,0.5-0.1 C40,25.2,40,25,39.8,24.9z" class="st21" style="fill:#0f0;fill-opacity:1;stroke:none"/><path id="path42" d="M39.8,24.9l-11.4-6.6c0,0.1-0.1,0.2-0.1,0.3c-0.1,0.1-0.1,0.2-0.2,0.3l11.4,6.6c0.2,0.1,0.4,0,0.5-0.1 C40,25.2,40,25,39.8,24.9z" class="st21" style="fill:#0f0;fill-opacity:1;stroke:none"/><path id="path44" d="M39.8,24.9l-11.4-6.6c0,0.1-0.1,0.2-0.1,0.3c-0.1,0.1-0.1,0.2-0.2,0.3l11.4,6.6c0.2,0.1,0.4,0,0.5-0.1 C40,25.2,40,25,39.8,24.9z" class="st21" style="fill:#0f0;fill-opacity:1;stroke:none"/><path id="path46" d="M39.8,24.9l-11.4-6.6c0,0.1-0.1,0.2-0.1,0.3c-0.1,0.1-0.1,0.2-0.2,0.3l11.4,6.6c0.2,0.1,0.4,0,0.5-0.1 C40,25.2,40,25,39.8,24.9z" class="st21" style="fill:#0f0;fill-opacity:1;stroke:none"/></g></g><g id="g48" style="fill:#0f0;fill-opacity:1;stroke:none"><g id="g50" style="fill:#0f0;fill-opacity:1;stroke:none"><path id="path52" d="M0.3,6.6c0.7-1.2,2.3-1.6,3.5-0.9c1.2,0.7,1.6,2.3,0.9,3.5c-0.7,1.2-2.3,1.6-3.5,0.9 C0.1,9.4-0.4,7.8,0.3,6.6" class="st21" style="fill:#0f0;fill-opacity:1;stroke:none"/></g></g><g id="g54" style="fill:#0f0;fill-opacity:1;stroke:none"><g id="g56" style="fill:#0f0;fill-opacity:1;stroke:none"><path id="path58" d="M8.8,1.3c0.7-1.2,2.3-1.6,3.5-0.9c1.2,0.7,1.6,2.3,0.9,3.5c-0.7,1.2-2.3,1.6-3.5,0.9 C8.5,4.1,8.1,2.5,8.8,1.3" class="st21" style="fill:#0f0;fill-opacity:1;stroke:none"/></g></g><g id="g60" style="fill:#0f0;fill-opacity:1;stroke:none"><g id="g62" style="fill:#0f0;fill-opacity:1;stroke:none"><path id="path64" d="M14.3,10.6c0.7-1.2,2.3-1.6,3.5-0.9c1.2,0.7,1.6,2.3,0.9,3.5c-0.7,1.2-2.3,1.6-3.5,0.9 C14,13.4,13.6,11.8,14.3,10.6" class="st21" style="fill:#0f0;fill-opacity:1;stroke:none"/></g></g><g id="g66" style="fill:#0f0;fill-opacity:1;stroke:none"><g id="g68" style="fill:#0f0;fill-opacity:1;stroke:none"><path id="path70" d="M23,15.6c0.7-1.2,2.3-1.6,3.5-0.9c1.2,0.7,1.6,2.3,0.9,3.5c-0.7,1.2-2.3,1.6-3.5,0.9 C22.8,18.4,22.3,16.9,23,15.6" class="st21" style="fill:#0f0;fill-opacity:1;stroke:none"/></g></g></g><g id="g72" style="fill:#0f0;fill-opacity:1;stroke:none"><path id="path74" d="M15.4,16.5H1.1c-0.2,0-0.4,0.2-0.4,0.4v1.5c0,0.2,0.2,0.4,0.4,0.4h14.3c0.2,0,0.4-0.2,0.4-0.4v-1.5 C15.8,16.7,15.6,16.5,15.4,16.5z" style="fill:#0f0;fill-opacity:1;stroke:none"/><path id="path76" d="M15.4,21.4H1.1c-0.2,0-0.4,0.2-0.4,0.4v1.5c0,0.2,0.2,0.4,0.4,0.4h14.3c0.2,0,0.4-0.2,0.4-0.4v-1.5 C15.8,21.6,15.6,21.4,15.4,21.4z" style="fill:#0f0;fill-opacity:1;stroke:none"/><path id="path78" d="M15.4,26.3H1.1c-0.2,0-0.4,0.2-0.4,0.4v1.5c0,0.2,0.2,0.4,0.4,0.4h14.3c0.2,0,0.4-0.2,0.4-0.4v-1.5 C15.8,26.4,15.6,26.3,15.4,26.3z" style="fill:#0f0;fill-opacity:1;stroke:none"/></g></g></g></svg>