<svg xmlns="http://www.w3.org/2000/svg" xmlns:svg="http://www.w3.org/2000/svg" id="svg2" x="0" y="0" version="1.1" viewBox="0 0 40 34.9" style="enable-background:new 0 0 40 34.9" xml:space="preserve"><metadata id="metadata110"/><style id="style4" type="text/css">.st0{display:none}.st1{display:inline;fill:#9d9d9c}.st21{fill:#010202}</style><g id="Ebene_4" class="st0"><rect id="rect7" width="1421.9" height="1801.4" x="-139.9" y="-1699.6" class="st1"/></g><g id="Ebene_3" style="fill:#0f0;fill-opacity:1;stroke:none"><g id="g12" style="fill:#0f0;fill-opacity:1;stroke:none"><g id="g14" style="fill:#0f0;fill-opacity:1;stroke:none"><g id="g16" style="fill:#0f0;fill-opacity:1;stroke:none"><g id="g18" style="fill:#0f0;fill-opacity:1;stroke:none"><path id="path20" d="M7.5,20.8c3.6,0,6.5,2.9,6.5,6.5c0,3.6-2.9,6.5-6.5,6.5S1,30.9,1,27.3C1,23.7,3.9,20.8,7.5,20.8 M7.5,19.8 c-4.2,0-7.5,3.4-7.5,7.5c0,4.2,3.4,7.5,7.5,7.5s7.5-3.4,7.5-7.5C15.1,23.2,11.7,19.8,7.5,19.8L7.5,19.8z" style="fill:#0f0;fill-opacity:1;stroke:none"/></g></g><g id="g22" style="fill:#0f0;fill-opacity:1;stroke:none"><g id="g24" style="fill:#0f0;fill-opacity:1;stroke:none"><circle id="circle26" cx="7.5" cy="27.3" r=".4" style="fill:#0f0;fill-opacity:1;stroke:none"/></g><g id="g28" style="fill:#0f0;fill-opacity:1;stroke:none"><path id="path30" d="M7.5,25.3c-0.2,0-0.4-0.2-0.4-0.4v-2.3c0-0.2,0.2-0.4,0.4-0.4S8,22.3,8,22.6v2.3C8,25.1,7.8,25.3,7.5,25.3z" style="fill:#0f0;fill-opacity:1;stroke:none"/></g><g id="g32" style="fill:#0f0;fill-opacity:1;stroke:none"><path id="path34" d="M7.5,32.6c-0.2,0-0.4-0.2-0.4-0.4v-2.3c0-0.2,0.2-0.4,0.4-0.4S8,29.5,8,29.8v2.3C8,32.4,7.8,32.6,7.5,32.6z" style="fill:#0f0;fill-opacity:1;stroke:none"/></g><g id="g36" style="fill:#0f0;fill-opacity:1;stroke:none"><path id="path38" d="M5.1,27.8H2.8c-0.2,0-0.4-0.2-0.4-0.4c0-0.2,0.2-0.4,0.4-0.4h2.3c0.2,0,0.4,0.2,0.4,0.4C5.5,27.6,5.4,27.8,5.1,27.8z" style="fill:#0f0;fill-opacity:1;stroke:none"/></g><g id="g40" style="fill:#0f0;fill-opacity:1;stroke:none"><path id="path42" d="M12.3,27.8H10c-0.2,0-0.4-0.2-0.4-0.4c0-0.2,0.2-0.4,0.4-0.4h2.3c0.2,0,0.4,0.2,0.4,0.4C12.8,27.6,12.6,27.8,12.3,27.8 z" style="fill:#0f0;fill-opacity:1;stroke:none"/></g></g><path id="path44" d="M12.4,15.7c-3,0-5.6,1.8-6.8,4.4c0.6-0.2,1.2-0.3,1.9-0.3c4.2,0,7.5,3.4,7.5,7.5c0,1.1-0.3,2.2-0.7,3.2 c3.2-0.8,5.6-3.8,5.6-7.3C20,19.1,16.6,15.7,12.4,15.7z M12.9,20.8c0,0.2-0.2,0.4-0.4,0.4c-0.2,0-0.4-0.2-0.4-0.4v-2.3 c0-0.2,0.2-0.4,0.4-0.4c0.2,0,0.4,0.2,0.4,0.4V20.8z M17.2,23.7h-2.3c-0.2,0-0.4-0.2-0.4-0.4c0-0.2,0.2-0.4,0.4-0.4h2.3 c0.2,0,0.4,0.2,0.4,0.4C17.7,23.5,17.5,23.7,17.2,23.7z" style="fill:#0f0;fill-opacity:1;stroke:none"/></g><g id="g46" style="fill:#0f0;fill-opacity:1;stroke:none"><g id="g48" style="fill:#0f0;fill-opacity:1;stroke:none"><g id="g50" style="fill:#0f0;fill-opacity:1;stroke:none"><g id="g52" style="fill:#0f0;fill-opacity:1;stroke:none"><path id="path54" d="M22.2,15.1c0.2-0.3,0.4-0.6,0.7-0.8l-3-1.7c-0.1,0.3-0.2,0.7-0.4,1c-0.2,0.3-0.4,0.6-0.7,0.8l3,1.7 C21.9,15.8,22,15.5,22.2,15.1z" class="st21" style="fill:#0f0;fill-opacity:1;stroke:none"/><path id="path56" d="M22.2,15.1c0.2-0.3,0.4-0.6,0.7-0.8l-3-1.7c-0.1,0.3-0.2,0.7-0.4,1c-0.2,0.3-0.4,0.6-0.7,0.8l3,1.7 C21.9,15.8,22,15.5,22.2,15.1z" class="st21" style="fill:#0f0;fill-opacity:1;stroke:none"/><path id="path58" d="M22.2,15.1c0.2-0.3,0.4-0.6,0.7-0.8l-3-1.7c-0.1,0.3-0.2,0.7-0.4,1c-0.2,0.3-0.4,0.6-0.7,0.8l3,1.7 C21.9,15.8,22,15.5,22.2,15.1z" class="st21" style="fill:#0f0;fill-opacity:1;stroke:none"/><path id="path60" d="M22.2,15.1c0.2-0.3,0.4-0.6,0.7-0.8l-3-1.7c-0.1,0.3-0.2,0.7-0.4,1c-0.2,0.3-0.4,0.6-0.7,0.8l3,1.7 C21.9,15.8,22,15.5,22.2,15.1z" class="st21" style="fill:#0f0;fill-opacity:1;stroke:none"/></g><g id="g62" style="fill:#0f0;fill-opacity:1;stroke:none"><path id="path64" d="M13.4,10.1c0.2-0.3,0.4-0.6,0.7-0.8l-1.8-1l-0.1-2.4c-0.7,0.2-1.4,0.3-2,0.1l0.1,1.7L6,7.2 c0.1,0.7,0.1,1.4-0.2,2l5.2,0.6l2.1,1.2C13.1,10.7,13.2,10.4,13.4,10.1z" class="st21" style="fill:#0f0;fill-opacity:1;stroke:none"/><path id="path66" d="M13.4,10.1c0.2-0.3,0.4-0.6,0.7-0.8l-1.8-1l-0.1-2.4c-0.7,0.2-1.4,0.3-2,0.1l0.1,1.7L6,7.2 c0.1,0.7,0.1,1.4-0.2,2l5.2,0.6l2.1,1.2C13.1,10.7,13.2,10.4,13.4,10.1z" class="st21" style="fill:#0f0;fill-opacity:1;stroke:none"/><path id="path68" d="M13.4,10.1c0.2-0.3,0.4-0.6,0.7-0.8l-1.8-1l-0.1-2.4c-0.7,0.2-1.4,0.3-2,0.1l0.1,1.7L6,7.2 c0.1,0.7,0.1,1.4-0.2,2l5.2,0.6l2.1,1.2C13.1,10.7,13.2,10.4,13.4,10.1z" class="st21" style="fill:#0f0;fill-opacity:1;stroke:none"/><path id="path70" d="M13.4,10.1c0.2-0.3,0.4-0.6,0.7-0.8l-1.8-1l-0.1-2.4c-0.7,0.2-1.4,0.3-2,0.1l0.1,1.7L6,7.2 c0.1,0.7,0.1,1.4-0.2,2l5.2,0.6l2.1,1.2C13.1,10.7,13.2,10.4,13.4,10.1z" class="st21" style="fill:#0f0;fill-opacity:1;stroke:none"/></g><g id="g72" style="fill:#0f0;fill-opacity:1;stroke:none"><path id="path74" d="M39.8,24.9l-11.4-6.6c0,0.1-0.1,0.2-0.1,0.3c-0.1,0.1-0.1,0.2-0.2,0.3l11.4,6.6c0.2,0.1,0.4,0,0.5-0.1 C40.1,25.2,40,25,39.8,24.9z" class="st21" style="fill:#0f0;fill-opacity:1;stroke:none"/><path id="path76" d="M39.8,24.9l-11.4-6.6c0,0.1-0.1,0.2-0.1,0.3c-0.1,0.1-0.1,0.2-0.2,0.3l11.4,6.6c0.2,0.1,0.4,0,0.5-0.1 C40.1,25.2,40,25,39.8,24.9z" class="st21" style="fill:#0f0;fill-opacity:1;stroke:none"/><path id="path78" d="M39.8,24.9l-11.4-6.6c0,0.1-0.1,0.2-0.1,0.3c-0.1,0.1-0.1,0.2-0.2,0.3l11.4,6.6c0.2,0.1,0.4,0,0.5-0.1 C40.1,25.2,40,25,39.8,24.9z" class="st21" style="fill:#0f0;fill-opacity:1;stroke:none"/><path id="path80" d="M39.8,24.9l-11.4-6.6c0,0.1-0.1,0.2-0.1,0.3c-0.1,0.1-0.1,0.2-0.2,0.3l11.4,6.6c0.2,0.1,0.4,0,0.5-0.1 C40.1,25.2,40,25,39.8,24.9z" class="st21" style="fill:#0f0;fill-opacity:1;stroke:none"/></g></g><g id="g82" style="fill:#0f0;fill-opacity:1;stroke:none"><g id="g84" style="fill:#0f0;fill-opacity:1;stroke:none"><path id="path86" d="M0.3,6.6c0.7-1.2,2.3-1.6,3.5-0.9c1.2,0.7,1.6,2.3,0.9,3.5c-0.7,1.2-2.3,1.6-3.5,0.9 C0.1,9.4-0.4,7.8,0.3,6.6" class="st21" style="fill:#0f0;fill-opacity:1;stroke:none"/></g></g><g id="g88" style="fill:#0f0;fill-opacity:1;stroke:none"><g id="g90" style="fill:#0f0;fill-opacity:1;stroke:none"><path id="path92" d="M8.8,1.3c0.7-1.2,2.3-1.6,3.5-0.9c1.2,0.7,1.6,2.3,0.9,3.5c-0.7,1.2-2.3,1.6-3.5,0.9 C8.5,4.1,8.1,2.5,8.8,1.3" class="st21" style="fill:#0f0;fill-opacity:1;stroke:none"/></g></g><g id="g94" style="fill:#0f0;fill-opacity:1;stroke:none"><g id="g96" style="fill:#0f0;fill-opacity:1;stroke:none"><path id="path98" d="M14.3,10.6c0.7-1.2,2.3-1.6,3.5-0.9c1.2,0.7,1.6,2.3,0.9,3.5c-0.7,1.2-2.3,1.6-3.5,0.9 C14,13.4,13.6,11.8,14.3,10.6" class="st21" style="fill:#0f0;fill-opacity:1;stroke:none"/></g></g><g id="g100" style="fill:#0f0;fill-opacity:1;stroke:none"><g id="g102" style="fill:#0f0;fill-opacity:1;stroke:none"><path id="path104" d="M23,15.6c0.7-1.2,2.3-1.6,3.5-0.9c1.2,0.7,1.6,2.3,0.9,3.5c-0.7,1.2-2.3,1.6-3.5,0.9 C22.8,18.4,22.3,16.9,23,15.6" class="st21" style="fill:#0f0;fill-opacity:1;stroke:none"/></g></g></g></g></g></g></svg>