<svg xmlns="http://www.w3.org/2000/svg" xmlns:svg="http://www.w3.org/2000/svg" xmlns:xlink="http://www.w3.org/1999/xlink" id="svg2" x="0" xml:space="preserve" style="enable-background:new 0 0 40 32.9" y="0" version="1.1" viewBox="0 0 40 32.9"><metadata id="metadata50"/><defs id="defs48"><defs id="defs18"><circle id="SVGID_21_" cx="30.1" cy="23" r="9.9"/></defs><clipPath id="SVGID_2_"><use id="use22" width="100%" height="100%" x="0" y="0" style="overflow:visible" xlink:href="#SVGID_21_"/></clipPath></defs><style id="style4" type="text/css">.st0{display:none}.st1{display:inline;fill:#9d9d9c}.st21{fill:#010202}.st28{clip-path:url(#SVGID_2_)}</style><g id="Ebene_4" class="st0"><rect id="rect7" width="1421.9" height="1801.4" x="-131.1" y="-179.7" class="st1"/></g><rect id="rect24" width="6.6" height="6.6" x="20.1" y="13.1" class="st28" clip-path="url(#SVGID_2_)" transform="translate(-20,0)" style="fill:#0f0;fill-opacity:1;stroke:none"/><rect id="rect26" width="6.6" height="6.6" x="33.4" y="13.1" class="st28" clip-path="url(#SVGID_2_)" transform="translate(-20,0)" style="fill:#0f0;fill-opacity:1;stroke:none"/><rect id="rect28" width="6.6" height="6.6" x="26.8" y="19.7" class="st28" clip-path="url(#SVGID_2_)" transform="translate(-20,0)" style="fill:#0f0;fill-opacity:1;stroke:none"/><rect id="rect30" width="6.6" height="6.6" x="20.1" y="26.3" class="st28" clip-path="url(#SVGID_2_)" transform="translate(-20,0)" style="fill:#0f0;fill-opacity:1;stroke:none"/><rect id="rect32" width="6.6" height="6.6" x="33.4" y="26.3" class="st28" clip-path="url(#SVGID_2_)" transform="translate(-20,0)" style="fill:#0f0;fill-opacity:1;stroke:none"/><path id="path34" d="m 10.1,13.1 c -5.5,0 -9.9,4.4 -9.9,9.9 0,5.5 4.4,9.9 9.9,9.9 5.5,0 9.9,-4.4 9.9,-9.9 0,-5.5 -4.5,-9.9 -9.9,-9.9 z m 0,18.6 c -4.8,0 -8.7,-3.9 -8.7,-8.7 0,-4.8 3.9,-8.7 8.7,-8.7 4.8,0 8.7,3.9 8.7,8.7 0,4.8 -3.9,8.7 -8.7,8.7 z" style="fill:#0f0;fill-opacity:1;stroke:none"/><g id="Ebene_1-4" transform="translate(0.08610375,2.3968512)" style="fill:#0f0;fill-opacity:1;stroke:none"><g id="g11" style="fill:#0f0;fill-opacity:1;stroke:none"><g id="g13" style="fill:#0f0;fill-opacity:1;stroke:none"><g id="g15" style="fill:#0f0;fill-opacity:1;stroke:none"><path id="path17" d="m 22.2,15.1 c 0.2,-0.3 0.4,-0.6 0.7,-0.8 l -3,-1.7 c -0.1,0.3 -0.2,0.7 -0.4,1 -0.2,0.3 -0.4,0.6 -0.7,0.8 l 3,1.7 c 0.1,-0.3 0.2,-0.6 0.4,-1 z" class="st21" style="fill:#0f0;fill-opacity:1;stroke:none"/><path id="path19" d="m 22.2,15.1 c 0.2,-0.3 0.4,-0.6 0.7,-0.8 l -3,-1.7 c -0.1,0.3 -0.2,0.7 -0.4,1 -0.2,0.3 -0.4,0.6 -0.7,0.8 l 3,1.7 c 0.1,-0.3 0.2,-0.6 0.4,-1 z" class="st21" style="fill:#0f0;fill-opacity:1;stroke:none"/><path id="path21" d="m 22.2,15.1 c 0.2,-0.3 0.4,-0.6 0.7,-0.8 l -3,-1.7 c -0.1,0.3 -0.2,0.7 -0.4,1 -0.2,0.3 -0.4,0.6 -0.7,0.8 l 3,1.7 c 0.1,-0.3 0.2,-0.6 0.4,-1 z" class="st21" style="fill:#0f0;fill-opacity:1;stroke:none"/><path id="path23" d="m 22.2,15.1 c 0.2,-0.3 0.4,-0.6 0.7,-0.8 l -3,-1.7 c -0.1,0.3 -0.2,0.7 -0.4,1 -0.2,0.3 -0.4,0.6 -0.7,0.8 l 3,1.7 c 0.1,-0.3 0.2,-0.6 0.4,-1 z" class="st21" style="fill:#0f0;fill-opacity:1;stroke:none"/></g><g id="g25" style="fill:#0f0;fill-opacity:1;stroke:none"><path id="path27" d="M 13.4,10.1 C 13.6,9.8 13.8,9.5 14.1,9.3 L 12.3,8.3 12.2,5.9 C 11.5,6.1 10.8,6.2 10.2,6 L 10.3,7.7 6,7.2 c 0.1,0.7 0.1,1.4 -0.2,2 L 11,9.8 13.1,11 c 0,-0.3 0.1,-0.6 0.3,-0.9 z" class="st21" style="fill:#0f0;fill-opacity:1;stroke:none"/><path id="path29" d="M 13.4,10.1 C 13.6,9.8 13.8,9.5 14.1,9.3 L 12.3,8.3 12.2,5.9 C 11.5,6.1 10.8,6.2 10.2,6 L 10.3,7.7 6,7.2 c 0.1,0.7 0.1,1.4 -0.2,2 L 11,9.8 13.1,11 c 0,-0.3 0.1,-0.6 0.3,-0.9 z" class="st21" style="fill:#0f0;fill-opacity:1;stroke:none"/><path id="path31" d="M 13.4,10.1 C 13.6,9.8 13.8,9.5 14.1,9.3 L 12.3,8.3 12.2,5.9 C 11.5,6.1 10.8,6.2 10.2,6 L 10.3,7.7 6,7.2 c 0.1,0.7 0.1,1.4 -0.2,2 L 11,9.8 13.1,11 c 0,-0.3 0.1,-0.6 0.3,-0.9 z" class="st21" style="fill:#0f0;fill-opacity:1;stroke:none"/><path id="path33" d="M 13.4,10.1 C 13.6,9.8 13.8,9.5 14.1,9.3 L 12.3,8.3 12.2,5.9 C 11.5,6.1 10.8,6.2 10.2,6 L 10.3,7.7 6,7.2 c 0.1,0.7 0.1,1.4 -0.2,2 L 11,9.8 13.1,11 c 0,-0.3 0.1,-0.6 0.3,-0.9 z" class="st21" style="fill:#0f0;fill-opacity:1;stroke:none"/></g><g id="g35" style="fill:#0f0;fill-opacity:1;stroke:none"><path id="path37" d="M 39.8,24.9 28.4,18.3 c 0,0.1 -0.1,0.2 -0.1,0.3 -0.1,0.1 -0.1,0.2 -0.2,0.3 l 11.4,6.6 c 0.2,0.1 0.4,0 0.5,-0.1 0,-0.2 0,-0.4 -0.2,-0.5 z" class="st21" style="fill:#0f0;fill-opacity:1;stroke:none"/><path id="path39" d="M 39.8,24.9 28.4,18.3 c 0,0.1 -0.1,0.2 -0.1,0.3 -0.1,0.1 -0.1,0.2 -0.2,0.3 l 11.4,6.6 c 0.2,0.1 0.4,0 0.5,-0.1 0,-0.2 0,-0.4 -0.2,-0.5 z" class="st21" style="fill:#0f0;fill-opacity:1;stroke:none"/><path id="path41" d="M 39.8,24.9 28.4,18.3 c 0,0.1 -0.1,0.2 -0.1,0.3 -0.1,0.1 -0.1,0.2 -0.2,0.3 l 11.4,6.6 c 0.2,0.1 0.4,0 0.5,-0.1 0,-0.2 0,-0.4 -0.2,-0.5 z" class="st21" style="fill:#0f0;fill-opacity:1;stroke:none"/><path id="path43" d="M 39.8,24.9 28.4,18.3 c 0,0.1 -0.1,0.2 -0.1,0.3 -0.1,0.1 -0.1,0.2 -0.2,0.3 l 11.4,6.6 c 0.2,0.1 0.4,0 0.5,-0.1 0,-0.2 0,-0.4 -0.2,-0.5 z" class="st21" style="fill:#0f0;fill-opacity:1;stroke:none"/></g></g><g id="g45" style="fill:#0f0;fill-opacity:1;stroke:none"><g id="g47" style="fill:#0f0;fill-opacity:1;stroke:none"><path id="path49" d="M 0.3,6.6 C 1,5.3 2.6,4.9 3.8,5.6 5,6.3 5.4,7.9 4.7,9.1 4,10.3 2.4,10.7 1.2,10 0.1,9.4 -0.4,7.8 0.3,6.6" class="st21" style="fill:#0f0;fill-opacity:1;stroke:none"/></g></g><g id="g51" style="fill:#0f0;fill-opacity:1;stroke:none"><g id="g53" style="fill:#0f0;fill-opacity:1;stroke:none"><path id="path55" d="m 8.8,1.3 c 0.7,-1.2 2.3,-1.6 3.5,-0.9 1.2,0.7 1.6,2.3 0.9,3.5 C 12.5,5.1 10.9,5.5 9.7,4.8 8.5,4.1 8.1,2.5 8.8,1.3" class="st21" style="fill:#0f0;fill-opacity:1;stroke:none"/></g></g><g id="g57" style="fill:#0f0;fill-opacity:1;stroke:none"><g id="g59" style="fill:#0f0;fill-opacity:1;stroke:none"><path id="path61" d="M 14.3,10.6 C 15,9.4 16.6,9 17.8,9.7 19,10.4 19.4,12 18.7,13.2 18,14.4 16.4,14.8 15.2,14.1 14,13.4 13.6,11.8 14.3,10.6" class="st21" style="fill:#0f0;fill-opacity:1;stroke:none"/></g></g><g id="g63" style="fill:#0f0;fill-opacity:1;stroke:none"><g id="g65" style="fill:#0f0;fill-opacity:1;stroke:none"><path id="path67" d="m 23,15.6 c 0.7,-1.2 2.3,-1.6 3.5,-0.9 1.2,0.7 1.6,2.3 0.9,3.5 -0.7,1.2 -2.3,1.6 -3.5,0.9 -1.1,-0.7 -1.6,-2.2 -0.9,-3.5" class="st21" style="fill:#0f0;fill-opacity:1;stroke:none"/></g></g></g></g></svg>