<svg xmlns="http://www.w3.org/2000/svg" xmlns:svg="http://www.w3.org/2000/svg" xmlns:xlink="http://www.w3.org/1999/xlink" id="svg4485" width="699.354" height="416.01" version="1.1" viewBox="0 0 699.354 416.01"><metadata id="metadata4491"/><defs id="defs4489"><marker style="overflow:visible" id="marker5562" orient="auto" refX="0" refY="0"><path transform="matrix(0.2,0,0,0.2,1.48,0.2)" style="fill:red;fill-opacity:1;fill-rule:evenodd;stroke:red;stroke-width:1.00000003pt;stroke-opacity:1" id="path5560" d="m -2.5,-1 c 0,2.76 -2.24,5 -5,5 -2.76,0 -5,-2.24 -5,-5 0,-2.76 2.24,-5 5,-5 2.76,0 5,2.24 5,5 z"/></marker><marker style="overflow:visible" id="marker5474" orient="auto" refX="0" refY="0"><path transform="matrix(0.2,0,0,0.2,1.48,0.2)" style="fill:#000;fill-opacity:1;fill-rule:evenodd;stroke:#000;stroke-width:1.00000003pt;stroke-opacity:1" id="path5472" d="m -2.5,-1 c 0,2.76 -2.24,5 -5,5 -2.76,0 -5,-2.24 -5,-5 0,-2.76 2.24,-5 5,-5 2.76,0 5,2.24 5,5 z"/></marker><marker id="marker4945" orient="auto" refX="0" refY="0" style="overflow:visible"><path id="path4943" d="m -2.5,-1 c 0,2.76 -2.24,5 -5,5 -2.76,0 -5,-2.24 -5,-5 0,-2.76 2.24,-5 5,-5 2.76,0 5,2.24 5,5 z" style="fill:red;fill-opacity:1;fill-rule:evenodd;stroke:red;stroke-width:1.00000003pt;stroke-opacity:1" transform="matrix(0.4,0,0,0.4,2.96,0.4)"/></marker><marker id="DotS" orient="auto" refX="0" refY="0" style="overflow:visible"><path id="path4564" d="m -2.5,-1 c 0,2.76 -2.24,5 -5,5 -2.76,0 -5,-2.24 -5,-5 0,-2.76 2.24,-5 5,-5 2.76,0 5,2.24 5,5 z" style="fill:red;fill-opacity:1;fill-rule:evenodd;stroke:red;stroke-width:1.00000003pt;stroke-opacity:1" transform="matrix(0.2,0,0,0.2,1.48,0.2)"/></marker><marker id="DotM" orient="auto" refX="0" refY="0" style="overflow:visible"><path id="path4561" d="m -2.5,-1 c 0,2.76 -2.24,5 -5,5 -2.76,0 -5,-2.24 -5,-5 0,-2.76 2.24,-5 5,-5 2.76,0 5,2.24 5,5 z" style="fill:red;fill-opacity:1;fill-rule:evenodd;stroke:red;stroke-width:1.00000003pt;stroke-opacity:1" transform="matrix(0.4,0,0,0.4,2.96,0.4)"/></marker><marker id="marker5281-6" orient="auto" refX="0" refY="0" style="overflow:visible"><path id="path5279-4" d="m -2.5,-1 c 0,2.76 -2.24,5 -5,5 -2.76,0 -5,-2.24 -5,-5 0,-2.76 2.24,-5 5,-5 2.76,0 5,2.24 5,5 z" style="fill:red;fill-opacity:1;fill-rule:evenodd;stroke:red;stroke-width:1.00000003pt;stroke-opacity:1" transform="matrix(0.2,0,0,0.2,1.48,0.2)"/></marker><marker id="marker5281-0" orient="auto" refX="0" refY="0" style="overflow:visible"><path id="path5279-5" d="m -2.5,-1 c 0,2.76 -2.24,5 -5,5 -2.76,0 -5,-2.24 -5,-5 0,-2.76 2.24,-5 5,-5 2.76,0 5,2.24 5,5 z" style="fill:red;fill-opacity:1;fill-rule:evenodd;stroke:red;stroke-width:1.00000003pt;stroke-opacity:1" transform="matrix(0.2,0,0,0.2,1.48,0.2)"/></marker><marker id="marker5281-0-5" orient="auto" refX="0" refY="0" style="overflow:visible"><path id="path5279-5-0" d="m -2.5,-1 c 0,2.76 -2.24,5 -5,5 -2.76,0 -5,-2.24 -5,-5 0,-2.76 2.24,-5 5,-5 2.76,0 5,2.24 5,5 z" style="fill:red;fill-opacity:1;fill-rule:evenodd;stroke:red;stroke-width:1.00000003pt;stroke-opacity:1" transform="matrix(0.2,0,0,0.2,1.48,0.2)"/></marker><marker id="marker5281-0-0" orient="auto" refX="0" refY="0" style="overflow:visible"><path id="path5279-5-3" d="m -2.5,-1 c 0,2.76 -2.24,5 -5,5 -2.76,0 -5,-2.24 -5,-5 0,-2.76 2.24,-5 5,-5 2.76,0 5,2.24 5,5 z" style="fill:red;fill-opacity:1;fill-rule:evenodd;stroke:red;stroke-width:1.00000003pt;stroke-opacity:1" transform="matrix(0.2,0,0,0.2,1.48,0.2)"/></marker><marker id="marker5281-0-01" orient="auto" refX="0" refY="0" style="overflow:visible"><path id="path5279-5-7" d="m -2.5,-1 c 0,2.76 -2.24,5 -5,5 -2.76,0 -5,-2.24 -5,-5 0,-2.76 2.24,-5 5,-5 2.76,0 5,2.24 5,5 z" style="fill:red;fill-opacity:1;fill-rule:evenodd;stroke:red;stroke-width:1.00000003pt;stroke-opacity:1" transform="matrix(0.2,0,0,0.2,1.48,0.2)"/></marker><marker id="marker5281-0-9" orient="auto" refX="0" refY="0" style="overflow:visible"><path id="path5279-5-1" d="m -2.5,-1 c 0,2.76 -2.24,5 -5,5 -2.76,0 -5,-2.24 -5,-5 0,-2.76 2.24,-5 5,-5 2.76,0 5,2.24 5,5 z" style="fill:red;fill-opacity:1;fill-rule:evenodd;stroke:red;stroke-width:1.00000003pt;stroke-opacity:1" transform="matrix(0.2,0,0,0.2,1.48,0.2)"/></marker><marker style="overflow:visible" id="marker5562-8" orient="auto" refX="0" refY="0"><path transform="matrix(0.2,0,0,0.2,1.48,0.2)" style="fill:red;fill-opacity:1;fill-rule:evenodd;stroke:red;stroke-width:1.00000003pt;stroke-opacity:1" id="path5560-3" d="m -2.5,-1 c 0,2.76 -2.24,5 -5,5 -2.76,0 -5,-2.24 -5,-5 0,-2.76 2.24,-5 5,-5 2.76,0 5,2.24 5,5 z"/></marker><marker id="marker5281-0-9-8" orient="auto" refX="0" refY="0" style="overflow:visible"><path id="path5279-5-1-6" d="m -2.5,-1 c 0,2.76 -2.24,5 -5,5 -2.76,0 -5,-2.24 -5,-5 0,-2.76 2.24,-5 5,-5 2.76,0 5,2.24 5,5 z" style="fill:red;fill-opacity:1;fill-rule:evenodd;stroke:red;stroke-width:1.00000003pt;stroke-opacity:1" transform="matrix(0.2,0,0,0.2,1.48,0.2)"/></marker><marker id="marker5281-0-9-8-3" orient="auto" refX="0" refY="0" style="overflow:visible"><path id="path5279-5-1-6-3" d="m -2.5,-1 c 0,2.76 -2.24,5 -5,5 -2.76,0 -5,-2.24 -5,-5 0,-2.76 2.24,-5 5,-5 2.76,0 5,2.24 5,5 z" style="fill:red;fill-opacity:1;fill-rule:evenodd;stroke:red;stroke-width:1.00000003pt;stroke-opacity:1" transform="matrix(0.2,0,0,0.2,1.48,0.2)"/></marker><marker id="marker5281-0-58" orient="auto" refX="0" refY="0" style="overflow:visible"><path id="path5279-5-19" d="m -2.5,-1 c 0,2.76 -2.24,5 -5,5 -2.76,0 -5,-2.24 -5,-5 0,-2.76 2.24,-5 5,-5 2.76,0 5,2.24 5,5 z" style="fill:red;fill-opacity:1;fill-rule:evenodd;stroke:red;stroke-width:1.00000003pt;stroke-opacity:1" transform="matrix(0.2,0,0,0.2,1.48,0.2)"/></marker></defs><image id="image4493" width="426" height="400" x="0" y="0" preserveAspectRatio="none" xlink:href="map_view_manipulator_started_raw.png"/><path style="fill:red;stroke:red;stroke-width:5;stroke-linecap:butt;stroke-linejoin:miter;stroke-miterlimit:4;stroke-dasharray:none;stroke-opacity:1;marker-start:url(#marker5281-6)" id="path4495-3" d="m 405.59771,228.14016 h 29.07449 -1.03837"/><path style="fill:red;stroke:red;stroke-width:5;stroke-linecap:butt;stroke-linejoin:miter;stroke-miterlimit:4;stroke-dasharray:none;stroke-opacity:1;marker-start:url(#marker5281-0)" id="path4495-7" d="m 405.59771,379.00464 h 29.07449 -1.03837"/><path style="fill:red;stroke:red;stroke-width:4.92934513;stroke-linecap:butt;stroke-linejoin:miter;stroke-miterlimit:4;stroke-dasharray:none;stroke-opacity:1;marker-start:url(#marker5281-0-5)" id="path4495-7-1" d="m 382.27704,344.06062 h 52.39516 -1.00923"/><path style="fill:red;stroke:red;stroke-width:5.00747824;stroke-linecap:butt;stroke-linejoin:miter;stroke-miterlimit:4;stroke-dasharray:none;stroke-opacity:1;marker-start:url(#marker5281-0-0)" id="path4495-7-2" d="m 382.4479,33.33238 h 52.2243 -1.04148"/><path style="fill:red;stroke:red;stroke-width:5;stroke-linecap:butt;stroke-linejoin:miter;stroke-miterlimit:4;stroke-dasharray:none;stroke-opacity:1;marker-start:url(#marker5281-0-9)" id="path4495-7-6" d="m 405.59771,123.47931 h 29.07449 -1.03837"/><text xml:space="preserve" style="font-style:normal;font-weight:400;font-size:40px;line-height:1.25;font-family:sans-serif;letter-spacing:0;word-spacing:0;fill:red;fill-opacity:1;stroke:none" id="text9677-0" x="437.885" y="39.521"><tspan id="tspan9675-2" x="437.885" y="39.521" style="font-style:normal;font-variant:normal;font-weight:400;font-stretch:normal;font-size:21.33333397px;font-family:Arial;-inkscape-font-specification:Arial;fill:red">(7) New registration name</tspan></text><text xml:space="preserve" style="font-style:normal;font-weight:400;font-size:40px;line-height:1.25;font-family:sans-serif;letter-spacing:0;word-spacing:0;fill:red;fill-opacity:1;stroke:none" id="text9677-5" x="437.885" y="129.521"><tspan id="tspan9675-8" x="437.885" y="129.521" style="font-style:normal;font-variant:normal;font-weight:400;font-stretch:normal;font-size:21.33333397px;font-family:Arial;-inkscape-font-specification:Arial;fill:red">(10) Translation parameters</tspan></text><text xml:space="preserve" style="font-style:normal;font-weight:400;font-size:40px;line-height:1.25;font-family:sans-serif;letter-spacing:0;word-spacing:0;fill:red;fill-opacity:1;stroke:none" id="text9677-1" x="437.885" y="234.521"><tspan id="tspan9675-1" x="437.885" y="234.521" style="font-style:normal;font-variant:normal;font-weight:400;font-stretch:normal;font-size:21.33333397px;font-family:Arial;-inkscape-font-specification:Arial;fill:red">(11) Rotation parameters</tspan></text><text xml:space="preserve" style="font-style:normal;font-weight:400;font-size:40px;line-height:1.25;font-family:sans-serif;letter-spacing:0;word-spacing:0;fill:red;fill-opacity:1;stroke:none" id="text9677-09" x="437.885" y="384.521"><tspan id="tspan9675-0" x="437.885" y="384.521" style="font-style:normal;font-variant:normal;font-weight:400;font-stretch:normal;font-size:21.33333397px;font-family:Arial;-inkscape-font-specification:Arial;fill:red">(13) Confirm registration</tspan></text><text xml:space="preserve" style="font-style:normal;font-weight:400;font-size:40px;line-height:1.25;font-family:sans-serif;letter-spacing:0;word-spacing:0;fill:red;fill-opacity:1;stroke:none" id="text9677-50" x="437.885" y="348.521"><tspan id="tspan9675-6" x="437.885" y="348.521" style="font-style:normal;font-variant:normal;font-weight:400;font-stretch:normal;font-size:21.33333397px;font-family:Arial;-inkscape-font-specification:Arial;fill:red">(12) Center of rotation type</tspan></text><flowRoot id="flowRoot4717" transform="translate(0,-1)" xml:space="preserve" style="font-style:normal;font-weight:400;font-size:40px;line-height:1.25;font-family:sans-serif;letter-spacing:0;word-spacing:0;fill:#000;fill-opacity:1;stroke:none;stroke-width:1px;stroke-linecap:butt;stroke-linejoin:miter;stroke-opacity:1"><flowRegion id="flowRegion4719"><rect id="rect4721" width="337" height="48" x="353" y="188"/></flowRegion><flowPara id="flowPara4723"/></flowRoot><path style="fill:red;stroke:red;stroke-width:5;stroke-linecap:butt;stroke-linejoin:miter;stroke-miterlimit:4;stroke-dasharray:none;stroke-opacity:1;marker-start:url(#marker5281-0-9-8)" id="path4495-7-6-1" d="M 233.34176,58.47931 H 434.6722 427.48186"/><text xml:space="preserve" style="font-style:normal;font-weight:400;font-size:40px;line-height:1.25;font-family:sans-serif;letter-spacing:0;word-spacing:0;fill:red;fill-opacity:1;stroke:none" id="text9677-5-0" x="437.885" y="64.521"><tspan id="tspan9675-8-4" x="437.885" y="64.521" style="font-style:normal;font-variant:normal;font-weight:400;font-stretch:normal;font-size:21.33333397px;font-family:Arial;-inkscape-font-specification:Arial;fill:red">(8) Auto image mapping</tspan></text><path style="fill:red;stroke:red;stroke-width:5;stroke-linecap:butt;stroke-linejoin:miter;stroke-miterlimit:4;stroke-dasharray:none;stroke-opacity:1;marker-start:url(#marker5281-0-9-8-3)" id="path4495-7-6-1-5" d="M 274.59782,84.4793 H 434.6722 428.95528"/><text xml:space="preserve" style="font-style:normal;font-weight:400;font-size:40px;line-height:1.25;font-family:sans-serif;letter-spacing:0;word-spacing:0;fill:red;fill-opacity:1;stroke:none" id="text9677-5-0-6" x="437.885" y="90.521"><tspan id="tspan9675-8-4-6" x="437.885" y="90.521" style="font-style:normal;font-variant:normal;font-weight:400;font-stretch:normal;font-size:21.33333397px;font-family:Arial;-inkscape-font-specification:Arial;fill:red">(9) Setting tabs</tspan></text><path style="fill:none;stroke:red;stroke-width:5;stroke-linecap:butt;stroke-linejoin:miter;stroke-miterlimit:4;stroke-dasharray:none;stroke-opacity:1;marker-start:url(#marker5281-0-58)" id="path4495-7-7" d="m 182.433,380.8786 v 25.12606 h 252.2392 -8.61565"/><text xml:space="preserve" style="font-style:normal;font-weight:400;font-size:40px;line-height:1.25;font-family:sans-serif;letter-spacing:0;word-spacing:0;fill:red;fill-opacity:1;stroke:none" id="text9677-09-1" x="437.885" y="411.521"><tspan id="tspan9675-0-9" x="437.885" y="411.521" style="font-style:normal;font-variant:normal;font-weight:400;font-stretch:normal;font-size:21.33333397px;font-family:Arial;-inkscape-font-specification:Arial;fill:red">(14) Cancel manipulation</tspan></text><flowRoot id="flowRoot962" xml:space="preserve" style="font-style:normal;font-weight:400;font-size:40px;line-height:1.25;font-family:sans-serif;letter-spacing:0;word-spacing:0;fill:#000;fill-opacity:1;stroke:none;stroke-width:1px;stroke-linecap:butt;stroke-linejoin:miter;stroke-opacity:1"><flowRegion id="flowRegion964"><rect id="rect966" width="807" height="661" x="-64" y="-26.99"/></flowRegion><flowPara id="flowPara968"/></flowRoot></svg>