<svg xmlns="http://www.w3.org/2000/svg" xmlns:svg="http://www.w3.org/2000/svg" id="svg2" width="128" height="128" version="1.1" viewBox="0 0 2293760 2293760"><metadata id="metadata10"/><path id="path4" d="m 2222080,504611.1 v 1314742.2 q 0,50753 -46800,71295.8 -15599.9,6042 -30000,6042 -32399.9,0 -54000,-22959.6 L 1607680,1386745.1 V 1587340 q 0,143799.9 -101400,245910 -101400,102110 -244200,102110 H 417280.01 Q 274480,1935360 173080,1833250 71680,1731139.9 71680,1587340 V 736624.4 Q 71680,592824.5 173080,490714.46 274480,388604.43 417280.01,388604.43 H 1262080 q 142800,0 244200,102110.03 101400,102110.04 101400,245909.94 v 199386.5 l 483600,-485777.93 q 21600.1,-22959.65 54000,-22959.65 14400.1,0 30000,6042.01 46800,20542.85 46800,71295.77 z" style="fill:#0f0;fill-opacity:1;stroke:none;stroke-width:1.00000167"/></svg>