<svg xmlns="http://www.w3.org/2000/svg" xmlns:svg="http://www.w3.org/2000/svg" xmlns:xlink="http://www.w3.org/1999/xlink" id="svg4485" width="593.438" height="315" version="1.1" viewBox="0 0 593.438 315"><metadata id="metadata4491"/><defs id="defs4489"><marker style="overflow:visible" id="marker5562" orient="auto" refX="0" refY="0"><path transform="matrix(0.2,0,0,0.2,1.48,0.2)" style="fill:red;fill-opacity:1;fill-rule:evenodd;stroke:red;stroke-width:1.00000003pt;stroke-opacity:1" id="path5560" d="m -2.5,-1 c 0,2.76 -2.24,5 -5,5 -2.76,0 -5,-2.24 -5,-5 0,-2.76 2.24,-5 5,-5 2.76,0 5,2.24 5,5 z"/></marker><marker style="overflow:visible" id="marker5474" orient="auto" refX="0" refY="0"><path transform="matrix(0.2,0,0,0.2,1.48,0.2)" style="fill:#000;fill-opacity:1;fill-rule:evenodd;stroke:#000;stroke-width:1.00000003pt;stroke-opacity:1" id="path5472" d="m -2.5,-1 c 0,2.76 -2.24,5 -5,5 -2.76,0 -5,-2.24 -5,-5 0,-2.76 2.24,-5 5,-5 2.76,0 5,2.24 5,5 z"/></marker><marker id="marker4945" orient="auto" refX="0" refY="0" style="overflow:visible"><path id="path4943" d="m -2.5,-1 c 0,2.76 -2.24,5 -5,5 -2.76,0 -5,-2.24 -5,-5 0,-2.76 2.24,-5 5,-5 2.76,0 5,2.24 5,5 z" style="fill:red;fill-opacity:1;fill-rule:evenodd;stroke:red;stroke-width:1.00000003pt;stroke-opacity:1" transform="matrix(0.4,0,0,0.4,2.96,0.4)"/></marker><marker id="DotS" orient="auto" refX="0" refY="0" style="overflow:visible"><path id="path4564" d="m -2.5,-1 c 0,2.76 -2.24,5 -5,5 -2.76,0 -5,-2.24 -5,-5 0,-2.76 2.24,-5 5,-5 2.76,0 5,2.24 5,5 z" style="fill:red;fill-opacity:1;fill-rule:evenodd;stroke:red;stroke-width:1.00000003pt;stroke-opacity:1" transform="matrix(0.2,0,0,0.2,1.48,0.2)"/></marker><marker id="DotM" orient="auto" refX="0" refY="0" style="overflow:visible"><path id="path4561" d="m -2.5,-1 c 0,2.76 -2.24,5 -5,5 -2.76,0 -5,-2.24 -5,-5 0,-2.76 2.24,-5 5,-5 2.76,0 5,2.24 5,5 z" style="fill:red;fill-opacity:1;fill-rule:evenodd;stroke:red;stroke-width:1.00000003pt;stroke-opacity:1" transform="matrix(0.4,0,0,0.4,2.96,0.4)"/></marker><marker id="marker5281-6" orient="auto" refX="0" refY="0" style="overflow:visible"><path id="path5279-4" d="m -2.5,-1 c 0,2.76 -2.24,5 -5,5 -2.76,0 -5,-2.24 -5,-5 0,-2.76 2.24,-5 5,-5 2.76,0 5,2.24 5,5 z" style="fill:red;fill-opacity:1;fill-rule:evenodd;stroke:red;stroke-width:1.00000003pt;stroke-opacity:1" transform="matrix(0.2,0,0,0.2,1.48,0.2)"/></marker><marker id="marker5281-0" orient="auto" refX="0" refY="0" style="overflow:visible"><path id="path5279-5" d="m -2.5,-1 c 0,2.76 -2.24,5 -5,5 -2.76,0 -5,-2.24 -5,-5 0,-2.76 2.24,-5 5,-5 2.76,0 5,2.24 5,5 z" style="fill:red;fill-opacity:1;fill-rule:evenodd;stroke:red;stroke-width:1.00000003pt;stroke-opacity:1" transform="matrix(0.2,0,0,0.2,1.48,0.2)"/></marker><marker id="marker5281-0-5" orient="auto" refX="0" refY="0" style="overflow:visible"><path id="path5279-5-0" d="m -2.5,-1 c 0,2.76 -2.24,5 -5,5 -2.76,0 -5,-2.24 -5,-5 0,-2.76 2.24,-5 5,-5 2.76,0 5,2.24 5,5 z" style="fill:red;fill-opacity:1;fill-rule:evenodd;stroke:red;stroke-width:1.00000003pt;stroke-opacity:1" transform="matrix(0.2,0,0,0.2,1.48,0.2)"/></marker><marker id="marker5281-0-0" orient="auto" refX="0" refY="0" style="overflow:visible"><path id="path5279-5-3" d="m -2.5,-1 c 0,2.76 -2.24,5 -5,5 -2.76,0 -5,-2.24 -5,-5 0,-2.76 2.24,-5 5,-5 2.76,0 5,2.24 5,5 z" style="fill:red;fill-opacity:1;fill-rule:evenodd;stroke:red;stroke-width:1.00000003pt;stroke-opacity:1" transform="matrix(0.2,0,0,0.2,1.48,0.2)"/></marker><marker id="marker5281-0-01" orient="auto" refX="0" refY="0" style="overflow:visible"><path id="path5279-5-7" d="m -2.5,-1 c 0,2.76 -2.24,5 -5,5 -2.76,0 -5,-2.24 -5,-5 0,-2.76 2.24,-5 5,-5 2.76,0 5,2.24 5,5 z" style="fill:red;fill-opacity:1;fill-rule:evenodd;stroke:red;stroke-width:1.00000003pt;stroke-opacity:1" transform="matrix(0.2,0,0,0.2,1.48,0.2)"/></marker><marker id="marker5281-0-9" orient="auto" refX="0" refY="0" style="overflow:visible"><path id="path5279-5-1" d="m -2.5,-1 c 0,2.76 -2.24,5 -5,5 -2.76,0 -5,-2.24 -5,-5 0,-2.76 2.24,-5 5,-5 2.76,0 5,2.24 5,5 z" style="fill:red;fill-opacity:1;fill-rule:evenodd;stroke:red;stroke-width:1.00000003pt;stroke-opacity:1" transform="matrix(0.2,0,0,0.2,1.48,0.2)"/></marker><marker style="overflow:visible" id="marker5562-8" orient="auto" refX="0" refY="0"><path transform="matrix(0.2,0,0,0.2,1.48,0.2)" style="fill:red;fill-opacity:1;fill-rule:evenodd;stroke:red;stroke-width:1.00000003pt;stroke-opacity:1" id="path5560-3" d="m -2.5,-1 c 0,2.76 -2.24,5 -5,5 -2.76,0 -5,-2.24 -5,-5 0,-2.76 2.24,-5 5,-5 2.76,0 5,2.24 5,5 z"/></marker><marker id="marker5281-0-9-8" orient="auto" refX="0" refY="0" style="overflow:visible"><path id="path5279-5-1-6" d="m -2.5,-1 c 0,2.76 -2.24,5 -5,5 -2.76,0 -5,-2.24 -5,-5 0,-2.76 2.24,-5 5,-5 2.76,0 5,2.24 5,5 z" style="fill:red;fill-opacity:1;fill-rule:evenodd;stroke:red;stroke-width:1.00000003pt;stroke-opacity:1" transform="matrix(0.2,0,0,0.2,1.48,0.2)"/></marker><marker id="marker5281-0-3" orient="auto" refX="0" refY="0" style="overflow:visible"><path id="path5279-5-31" d="m -2.5,-1 c 0,2.76 -2.24,5 -5,5 -2.76,0 -5,-2.24 -5,-5 0,-2.76 2.24,-5 5,-5 2.76,0 5,2.24 5,5 z" style="fill:red;fill-opacity:1;fill-rule:evenodd;stroke:red;stroke-width:1.00000003pt;stroke-opacity:1" transform="matrix(0.2,0,0,0.2,1.48,0.2)"/></marker><marker id="marker5281-0-4" orient="auto" refX="0" refY="0" style="overflow:visible"><path id="path5279-5-16" d="m -2.5,-1 c 0,2.76 -2.24,5 -5,5 -2.76,0 -5,-2.24 -5,-5 0,-2.76 2.24,-5 5,-5 2.76,0 5,2.24 5,5 z" style="fill:red;fill-opacity:1;fill-rule:evenodd;stroke:red;stroke-width:1.00000003pt;stroke-opacity:1" transform="matrix(0.2,0,0,0.2,1.48,0.2)"/></marker><mask id="mask5650" maskUnits="userSpaceOnUse"><rect style="opacity:1;fill:#fff;fill-opacity:1;stroke:#000;stroke-width:5;stroke-linecap:butt;stroke-miterlimit:4;stroke-dasharray:none;stroke-dashoffset:0;stroke-opacity:0" id="rect5652" width="368" height="323" x="-5" y="392"/></mask></defs><image id="image4493" width="353" height="707" x="0" y="0" mask="url(#mask5650)" preserveAspectRatio="none" transform="translate(0,-392)" xlink:href="map_view_visualizer_example_raw.png"/><path style="fill:red;stroke:red;stroke-width:5;stroke-linecap:butt;stroke-linejoin:miter;stroke-miterlimit:4;stroke-dasharray:none;stroke-opacity:1;marker-start:url(#marker5281-6)" id="path4495-3" d="M 258.68105,151.1402 H 359.6722 356.06539"/><path style="fill:red;stroke:red;stroke-width:5;stroke-linecap:butt;stroke-linejoin:miter;stroke-miterlimit:4;stroke-dasharray:none;stroke-opacity:1;marker-start:url(#marker5281-0-9)" id="path4495-7-6" d="M 171.02514,88.4793 H 359.6722 352.93484"/><text xml:space="preserve" style="font-style:normal;font-weight:400;font-size:40px;line-height:1.25;font-family:sans-serif;letter-spacing:0;word-spacing:0;fill:red;fill-opacity:1;stroke:none" id="text9677-5" x="362.885" y="94.521"><tspan id="tspan9675-8" x="362.885" y="94.521" style="font-style:normal;font-variant:normal;font-weight:400;font-stretch:normal;font-size:21.33333397px;font-family:Arial;-inkscape-font-specification:Arial;fill:red">(6) Color style</tspan></text><text xml:space="preserve" style="font-style:normal;font-weight:400;font-size:40px;line-height:1.25;font-family:sans-serif;letter-spacing:0;word-spacing:0;fill:red;fill-opacity:1;stroke:none" id="text9677-1" x="362.885" y="157.521"><tspan id="tspan9675-1" x="362.885" y="157.521" style="font-style:normal;font-variant:normal;font-weight:400;font-stretch:normal;font-size:21.33333397px;font-family:Arial;-inkscape-font-specification:Arial;fill:red">(7) Color coding settings</tspan></text><flowRoot id="flowRoot4717" transform="translate(0,-393)" xml:space="preserve" style="font-style:normal;font-weight:400;font-size:40px;line-height:1.25;font-family:sans-serif;letter-spacing:0;word-spacing:0;fill:#000;fill-opacity:1;stroke:none;stroke-width:1px;stroke-linecap:butt;stroke-linejoin:miter;stroke-opacity:1"><flowRegion id="flowRegion4719"><rect id="rect4721" width="337" height="48" x="353" y="188"/></flowRegion><flowPara id="flowPara4723"/></flowRoot><path style="fill:red;stroke:red;stroke-width:5;stroke-linecap:butt;stroke-linejoin:miter;stroke-miterlimit:4;stroke-dasharray:none;stroke-opacity:1;marker-start:url(#marker5281-0-4)" id="path4495-7-5" d="M 167.19587,286.0047 H 359.6722 352.79808"/><text xml:space="preserve" style="font-style:normal;font-weight:400;font-size:40px;line-height:1.25;font-family:sans-serif;letter-spacing:0;word-spacing:0;fill:red;fill-opacity:1;stroke:none" id="text9677-09-9" x="362.885" y="291.521"><tspan id="tspan9675-0-2" x="362.885" y="291.521" style="font-style:normal;font-variant:normal;font-weight:400;font-stretch:normal;font-size:21.33333397px;font-family:Arial;-inkscape-font-specification:Arial;fill:red">(8) Interpolation style</tspan></text><flowRoot id="flowRoot6290" transform="translate(0,-392)" xml:space="preserve" style="font-style:normal;font-weight:400;font-size:40px;line-height:1.25;font-family:sans-serif;letter-spacing:0;word-spacing:0;fill:#000;fill-opacity:1;stroke:none;stroke-width:1px;stroke-linecap:butt;stroke-linejoin:miter;stroke-opacity:1"><flowRegion id="flowRegion6292"><rect id="rect6294" width="839" height="562" x="-158" y="273"/></flowRegion><flowPara id="flowPara6296"/></flowRoot></svg>