<svg xmlns="http://www.w3.org/2000/svg" xmlns:svg="http://www.w3.org/2000/svg" xmlns:xlink="http://www.w3.org/1999/xlink" id="svg4485" width="804.49" height="124" version="1.1" viewBox="0 0 804.49 124"><metadata id="metadata4491"/><defs id="defs4489"><marker style="overflow:visible" id="marker5562" orient="auto" refX="0" refY="0"><path transform="matrix(0.2,0,0,0.2,1.48,0.2)" style="fill:red;fill-opacity:1;fill-rule:evenodd;stroke:red;stroke-width:1.00000003pt;stroke-opacity:1" id="path5560" d="m -2.5,-1 c 0,2.76 -2.24,5 -5,5 -2.76,0 -5,-2.24 -5,-5 0,-2.76 2.24,-5 5,-5 2.76,0 5,2.24 5,5 z"/></marker><marker style="overflow:visible" id="marker5474" orient="auto" refX="0" refY="0"><path transform="matrix(0.2,0,0,0.2,1.48,0.2)" style="fill:#000;fill-opacity:1;fill-rule:evenodd;stroke:#000;stroke-width:1.00000003pt;stroke-opacity:1" id="path5472" d="m -2.5,-1 c 0,2.76 -2.24,5 -5,5 -2.76,0 -5,-2.24 -5,-5 0,-2.76 2.24,-5 5,-5 2.76,0 5,2.24 5,5 z"/></marker><marker id="marker4945" orient="auto" refX="0" refY="0" style="overflow:visible"><path id="path4943" d="m -2.5,-1 c 0,2.76 -2.24,5 -5,5 -2.76,0 -5,-2.24 -5,-5 0,-2.76 2.24,-5 5,-5 2.76,0 5,2.24 5,5 z" style="fill:red;fill-opacity:1;fill-rule:evenodd;stroke:red;stroke-width:1.00000003pt;stroke-opacity:1" transform="matrix(0.4,0,0,0.4,2.96,0.4)"/></marker><marker id="DotS" orient="auto" refX="0" refY="0" style="overflow:visible"><path id="path4564" d="m -2.5,-1 c 0,2.76 -2.24,5 -5,5 -2.76,0 -5,-2.24 -5,-5 0,-2.76 2.24,-5 5,-5 2.76,0 5,2.24 5,5 z" style="fill:red;fill-opacity:1;fill-rule:evenodd;stroke:red;stroke-width:1.00000003pt;stroke-opacity:1" transform="matrix(0.2,0,0,0.2,1.48,0.2)"/></marker><marker id="DotM" orient="auto" refX="0" refY="0" style="overflow:visible"><path id="path4561" d="m -2.5,-1 c 0,2.76 -2.24,5 -5,5 -2.76,0 -5,-2.24 -5,-5 0,-2.76 2.24,-5 5,-5 2.76,0 5,2.24 5,5 z" style="fill:red;fill-opacity:1;fill-rule:evenodd;stroke:red;stroke-width:1.00000003pt;stroke-opacity:1" transform="matrix(0.4,0,0,0.4,2.96,0.4)"/></marker><marker id="marker5281-6" orient="auto" refX="0" refY="0" style="overflow:visible"><path id="path5279-4" d="m -2.5,-1 c 0,2.76 -2.24,5 -5,5 -2.76,0 -5,-2.24 -5,-5 0,-2.76 2.24,-5 5,-5 2.76,0 5,2.24 5,5 z" style="fill:red;fill-opacity:1;fill-rule:evenodd;stroke:red;stroke-width:1.00000003pt;stroke-opacity:1" transform="matrix(0.2,0,0,0.2,1.48,0.2)"/></marker><marker id="marker5281-0" orient="auto" refX="0" refY="0" style="overflow:visible"><path id="path5279-5" d="m -2.5,-1 c 0,2.76 -2.24,5 -5,5 -2.76,0 -5,-2.24 -5,-5 0,-2.76 2.24,-5 5,-5 2.76,0 5,2.24 5,5 z" style="fill:red;fill-opacity:1;fill-rule:evenodd;stroke:red;stroke-width:1.00000003pt;stroke-opacity:1" transform="matrix(0.2,0,0,0.2,1.48,0.2)"/></marker><marker id="marker5281-0-5" orient="auto" refX="0" refY="0" style="overflow:visible"><path id="path5279-5-0" d="m -2.5,-1 c 0,2.76 -2.24,5 -5,5 -2.76,0 -5,-2.24 -5,-5 0,-2.76 2.24,-5 5,-5 2.76,0 5,2.24 5,5 z" style="fill:red;fill-opacity:1;fill-rule:evenodd;stroke:red;stroke-width:1.00000003pt;stroke-opacity:1" transform="matrix(0.2,0,0,0.2,1.48,0.2)"/></marker><marker id="marker5281-0-0" orient="auto" refX="0" refY="0" style="overflow:visible"><path id="path5279-5-3" d="m -2.5,-1 c 0,2.76 -2.24,5 -5,5 -2.76,0 -5,-2.24 -5,-5 0,-2.76 2.24,-5 5,-5 2.76,0 5,2.24 5,5 z" style="fill:red;fill-opacity:1;fill-rule:evenodd;stroke:red;stroke-width:1.00000003pt;stroke-opacity:1" transform="matrix(0.2,0,0,0.2,1.48,0.2)"/></marker><marker id="marker5281-0-01" orient="auto" refX="0" refY="0" style="overflow:visible"><path id="path5279-5-7" d="m -2.5,-1 c 0,2.76 -2.24,5 -5,5 -2.76,0 -5,-2.24 -5,-5 0,-2.76 2.24,-5 5,-5 2.76,0 5,2.24 5,5 z" style="fill:red;fill-opacity:1;fill-rule:evenodd;stroke:red;stroke-width:1.00000003pt;stroke-opacity:1" transform="matrix(0.2,0,0,0.2,1.48,0.2)"/></marker><marker id="marker5281-0-9" orient="auto" refX="0" refY="0" style="overflow:visible"><path id="path5279-5-1" d="m -2.5,-1 c 0,2.76 -2.24,5 -5,5 -2.76,0 -5,-2.24 -5,-5 0,-2.76 2.24,-5 5,-5 2.76,0 5,2.24 5,5 z" style="fill:red;fill-opacity:1;fill-rule:evenodd;stroke:red;stroke-width:1.00000003pt;stroke-opacity:1" transform="matrix(0.2,0,0,0.2,1.48,0.2)"/></marker><marker style="overflow:visible" id="marker5562-8" orient="auto" refX="0" refY="0"><path transform="matrix(0.2,0,0,0.2,1.48,0.2)" style="fill:red;fill-opacity:1;fill-rule:evenodd;stroke:red;stroke-width:1.00000003pt;stroke-opacity:1" id="path5560-3" d="m -2.5,-1 c 0,2.76 -2.24,5 -5,5 -2.76,0 -5,-2.24 -5,-5 0,-2.76 2.24,-5 5,-5 2.76,0 5,2.24 5,5 z"/></marker><marker id="marker5281-0-9-8" orient="auto" refX="0" refY="0" style="overflow:visible"><path id="path5279-5-1-6" d="m -2.5,-1 c 0,2.76 -2.24,5 -5,5 -2.76,0 -5,-2.24 -5,-5 0,-2.76 2.24,-5 5,-5 2.76,0 5,2.24 5,5 z" style="fill:red;fill-opacity:1;fill-rule:evenodd;stroke:red;stroke-width:1.00000003pt;stroke-opacity:1" transform="matrix(0.2,0,0,0.2,1.48,0.2)"/></marker><marker id="marker5281-0-3" orient="auto" refX="0" refY="0" style="overflow:visible"><path id="path5279-5-31" d="m -2.5,-1 c 0,2.76 -2.24,5 -5,5 -2.76,0 -5,-2.24 -5,-5 0,-2.76 2.24,-5 5,-5 2.76,0 5,2.24 5,5 z" style="fill:red;fill-opacity:1;fill-rule:evenodd;stroke:red;stroke-width:1.00000003pt;stroke-opacity:1" transform="matrix(0.2,0,0,0.2,1.48,0.2)"/></marker><marker id="marker5281-0-4" orient="auto" refX="0" refY="0" style="overflow:visible"><path id="path5279-5-16" d="m -2.5,-1 c 0,2.76 -2.24,5 -5,5 -2.76,0 -5,-2.24 -5,-5 0,-2.76 2.24,-5 5,-5 2.76,0 5,2.24 5,5 z" style="fill:red;fill-opacity:1;fill-rule:evenodd;stroke:red;stroke-width:1.00000003pt;stroke-opacity:1" transform="matrix(0.2,0,0,0.2,1.48,0.2)"/></marker></defs><image id="image4493" width="329" height="124" x="0" y="0" mask="none" preserveAspectRatio="none" xlink:href="map_view_visualizer_grid_settings_raw.png"/><path style="fill:red;stroke:red;stroke-width:5;stroke-linecap:butt;stroke-linejoin:miter;stroke-miterlimit:4;stroke-dasharray:none;stroke-opacity:1;marker-start:url(#marker5281-6)" id="path4495-3" d="M 224.61004,71.1402 H 335.6722 331.70571"/><path style="fill:red;stroke:red;stroke-width:5;stroke-linecap:butt;stroke-linejoin:miter;stroke-miterlimit:4;stroke-dasharray:none;stroke-opacity:1;marker-start:url(#marker5281-0-9)" id="path4495-7-6" d="M 147.02514,44.4793 H 335.6722 328.93484"/><text xml:space="preserve" style="font-style:normal;font-weight:400;font-size:40px;line-height:1.25;font-family:sans-serif;letter-spacing:0;word-spacing:0;fill:red;fill-opacity:1;stroke:none" id="text9677-5" x="338.885" y="50.521"><tspan id="tspan9675-8" x="338.885" y="50.521" style="font-style:normal;font-variant:normal;font-weight:400;font-stretch:normal;font-size:21.33333397px;font-family:Arial;-inkscape-font-specification:Arial;fill:red">(9) Set freqency of visible gride frames</tspan></text><text xml:space="preserve" style="font-style:normal;font-weight:400;font-size:40px;line-height:1.25;font-family:sans-serif;letter-spacing:0;word-spacing:0;fill:red;fill-opacity:1;stroke:none" id="text9677-1" x="338.885" y="77.521"><tspan id="tspan9675-1" x="338.885" y="77.521" style="font-style:normal;font-variant:normal;font-weight:400;font-stretch:normal;font-size:21.33333397px;font-family:Arial;-inkscape-font-specification:Arial;fill:red">(10) Visibility of start grid of the mapping direction</tspan></text><flowRoot id="flowRoot4717" transform="translate(0,-393)" xml:space="preserve" style="font-style:normal;font-weight:400;font-size:40px;line-height:1.25;font-family:sans-serif;letter-spacing:0;word-spacing:0;fill:#000;fill-opacity:1;stroke:none;stroke-width:1px;stroke-linecap:butt;stroke-linejoin:miter;stroke-opacity:1"><flowRegion id="flowRegion4719"><rect id="rect4721" width="337" height="48" x="353" y="188"/></flowRegion><flowPara id="flowPara4723"/></flowRoot><path style="fill:red;stroke:red;stroke-width:5;stroke-linecap:butt;stroke-linejoin:miter;stroke-miterlimit:4;stroke-dasharray:none;stroke-opacity:1;marker-start:url(#marker5281-0-4)" id="path4495-7-5" d="M 105.40533,98.0047 H 335.6722 327.44843"/><text xml:space="preserve" style="font-style:normal;font-weight:400;font-size:40px;line-height:1.25;font-family:sans-serif;letter-spacing:0;word-spacing:0;fill:red;fill-opacity:1;stroke:none" id="text9677-09-9" x="338.885" y="103.521"><tspan id="tspan9675-0-2" x="338.885" y="103.521" style="font-style:normal;font-variant:normal;font-weight:400;font-stretch:normal;font-size:21.33333397px;font-family:Arial;-inkscape-font-specification:Arial;fill:red">(11) Color of the start grid</tspan></text><flowRoot id="flowRoot6290" transform="translate(0,-392)" xml:space="preserve" style="font-style:normal;font-weight:400;font-size:40px;line-height:1.25;font-family:sans-serif;letter-spacing:0;word-spacing:0;fill:#000;fill-opacity:1;stroke:none;stroke-width:1px;stroke-linecap:butt;stroke-linejoin:miter;stroke-opacity:1"><flowRegion id="flowRegion6292"><rect id="rect6294" width="839" height="562" x="-158" y="273"/></flowRegion><flowPara id="flowPara6296"/></flowRoot><flowRoot id="flowRoot6719" xml:space="preserve" style="font-style:normal;font-weight:400;font-size:40px;line-height:1.25;font-family:sans-serif;letter-spacing:0;word-spacing:0;fill:#000;fill-opacity:1;stroke:none;stroke-width:1px;stroke-linecap:butt;stroke-linejoin:miter;stroke-opacity:1"><flowRegion id="flowRegion6721"><rect id="rect6723" width="620" height="252" x="-129" y="-103"/></flowRegion><flowPara id="flowPara6725"/></flowRoot></svg>