<svg xmlns="http://www.w3.org/2000/svg" xmlns:svg="http://www.w3.org/2000/svg" id="svg2" x="0" y="0" xml:space="preserve" style="enable-background:new 0 0 37.6 40.2" version="1.1" viewBox="0 0 37.6 40.2"><metadata id="metadata48"/><style id="style4" type="text/css">.st0{display:none}.st1{display:inline;fill:#9d9d9c}</style><g id="Ebene_4" class="st0"><rect id="rect7" width="1421.9" height="1801.4" x="-132.2" y="-484.6" class="st1"/></g><g id="Ebene_3" style="fill:#0f0;fill-opacity:1;stroke:none"><g id="g12" style="fill:#0f0;fill-opacity:1;stroke:none"><g id="g14" style="fill:#0f0;fill-opacity:1;stroke:none"><g id="g16" style="fill:#0f0;fill-opacity:1;stroke:none"><path id="path18" d="M14.8,15c0.2,0.6,0.4,1.3,0.7,1.8l0,0c0.5-0.4,1-0.9,1.4-1.4" style="fill:#0f0;fill-opacity:1;stroke:none"/><path id="path20" d="M16.9,15.5c0.2-0.3,0.4-0.5,0.5-0.8c-0.2-0.6-0.4-1.2-0.4-1.8c-0.1-0.4-0.1-0.8-0.1-1.2c0-5,4.1-9.1,9.1-9.1 c5,0,9.1,4.1,9.1,9.1c0,5-4.1,9.1-9.1,9.1c-1,0-2-0.2-3-0.5c-0.6,0.7-1.2,1.4-1.9,2c1.5,0.7,3.1,1.1,4.8,1.1 c6.4,0,11.6-5.2,11.6-11.6C37.6,5.2,32.4,0,25.9,0c-6.4,0-11.6,5.2-11.6,11.6c0,1.2,0.2,2.3,0.5,3.4" style="fill:#0f0;fill-opacity:1;stroke:none"/></g><g id="g22" style="fill:#0f0;fill-opacity:1;stroke:none"><path id="path24" d="M22.8,8.3c-0.2-0.6-0.4-1.3-0.7-1.8l0,0c-0.5,0.4-1,0.9-1.4,1.4" style="fill:#0f0;fill-opacity:1;stroke:none"/><path id="path26" d="M20.7,7.8c-0.2,0.3-0.4,0.5-0.5,0.8c0.2,0.6,0.4,1.2,0.4,1.8c0.1,0.4,0.1,0.8,0.1,1.2c0,5-4.1,9.1-9.1,9.1 c-5,0-9.1-4.1-9.1-9.1c0-5,4.1-9.1,9.1-9.1c1,0,2,0.2,3,0.5c0.6-0.7,1.2-1.4,1.9-2C15,0.4,13.4,0,11.6,0C5.2,0,0,5.2,0,11.6 c0,6.4,5.2,11.6,11.6,11.6c6.4,0,11.6-5.2,11.6-11.6c0-1.2-0.2-2.3-0.5-3.4" style="fill:#0f0;fill-opacity:1;stroke:none"/></g></g><path id="path28" d="M16.2,32.5c0-0.1-0.1-0.2-0.2-0.2h-3.1v-6.5c0-0.1-0.1-0.2-0.2-0.2H4.5c-0.1,0-0.2,0.1-0.2,0.2v6.5H1.2 c-0.1,0-0.2,0.1-0.2,0.2c0,0.1,0,0.2,0.1,0.3l7.4,7.4c0,0,0.1,0.1,0.2,0.1s0.1,0,0.2-0.1l7.4-7.4C16.2,32.7,16.2,32.6,16.2,32.5z" style="fill:#0f0;fill-opacity:1;stroke:none"/><g id="g30" style="fill:#0f0;fill-opacity:1;stroke:none"><path id="path32" d="M18.6,35.9h-0.9l2-7.3h1L18.6,35.9z" style="fill:#0f0;fill-opacity:1;stroke:none"/><path id="path34" d="M20.5,35.9h-0.9l2-7.3h1L20.5,35.9z" style="fill:#0f0;fill-opacity:1;stroke:none"/><path id="path36" d="M25.5,35.4c-0.6,0-1.1-0.2-1.5-0.6c-0.4-0.4-0.6-0.9-0.6-1.6v-0.7c0-0.7,0.2-1.2,0.5-1.7c0.3-0.4,0.8-0.6,1.4-0.6 c0.6,0,1,0.2,1.4,0.6c0.3,0.4,0.5,0.9,0.5,1.6v0.8h-2.5v0c0,0.3,0.1,0.6,0.2,0.8c0.2,0.2,0.4,0.3,0.7,0.3c0.2,0,0.4,0,0.6-0.1 c0.2-0.1,0.3-0.1,0.6-0.3l0.3,0.8c-0.2,0.2-0.4,0.3-0.7,0.4C26.1,35.4,25.8,35.4,25.5,35.4z M25.3,31.3c-0.2,0-0.4,0.1-0.5,0.3 c-0.1,0.2-0.2,0.5-0.2,0.8h1.2v-0.2c0-0.3,0-0.5-0.1-0.6C25.7,31.3,25.5,31.3,25.3,31.3z" style="fill:#0f0;fill-opacity:1;stroke:none"/><path id="path38" d="M29.3,35.3H28v-1.2h1.3V35.3z" style="fill:#0f0;fill-opacity:1;stroke:none"/><path id="path40" d="M30.2,32.6c0-0.7,0.1-1.3,0.4-1.7c0.3-0.4,0.7-0.7,1.2-0.7c0.2,0,0.4,0.1,0.6,0.2c0.2,0.1,0.3,0.3,0.4,0.5l0.1-0.6h1.1 v4.9c0,0.7-0.2,1.2-0.6,1.6c-0.4,0.4-0.9,0.6-1.6,0.6c-0.2,0-0.4,0-0.7-0.1c-0.2-0.1-0.5-0.2-0.7-0.3l0.2-1 c0.2,0.1,0.4,0.2,0.5,0.2c0.2,0,0.4,0.1,0.6,0.1c0.3,0,0.5-0.1,0.6-0.3c0.1-0.2,0.2-0.4,0.2-0.8v-0.3c-0.1,0.2-0.3,0.3-0.4,0.4 c-0.2,0.1-0.3,0.1-0.5,0.1c-0.5,0-0.9-0.2-1.2-0.6c-0.3-0.4-0.4-0.9-0.4-1.6V32.6z M31.5,33.2c0,0.4,0.1,0.6,0.2,0.9 c0.1,0.2,0.3,0.3,0.5,0.3c0.1,0,0.3,0,0.4-0.1c0.1-0.1,0.2-0.1,0.3-0.2v-2.4c-0.1-0.1-0.2-0.2-0.3-0.3c-0.1-0.1-0.2-0.1-0.4-0.1 c-0.2,0-0.4,0.1-0.5,0.4c-0.1,0.2-0.2,0.6-0.2,1V33.2z" style="fill:#0f0;fill-opacity:1;stroke:none"/><path id="path42" d="M36.4,35.3h-1.3v-1.2h1.3V35.3z" style="fill:#0f0;fill-opacity:1;stroke:none"/></g></g></g></svg>