<svg xmlns="http://www.w3.org/2000/svg" xmlns:svg="http://www.w3.org/2000/svg" id="svg2" x="0" y="0" xml:space="preserve" style="enable-background:new 0 0 39.5 41.4" version="1.1" viewBox="0 0 39.5 41.4"><metadata id="metadata48"/><style id="style4" type="text/css">.st0{display:none}.st1{display:inline;fill:#9d9d9c}</style><g id="Ebene_4" class="st0"><rect id="rect7" width="1421.9" height="1801.4" x="-129.8" y="-585" class="st1"/></g><g id="Ebene_3" style="fill:#0f0;fill-opacity:1;stroke:none"><g id="g12" style="fill:#0f0;fill-opacity:1;stroke:none"><g id="g14" style="fill:#0f0;fill-opacity:1;stroke:none"><g id="g16" style="fill:#0f0;fill-opacity:1;stroke:none"><path id="path18" d="M15.5,15.8c0.2,0.7,0.5,1.3,0.8,1.9l0,0c0.5-0.4,1-0.9,1.4-1.5" style="fill:#0f0;fill-opacity:1;stroke:none"/><path id="path20" d="M17.8,16.2c0.2-0.3,0.4-0.5,0.5-0.8c-0.2-0.6-0.4-1.3-0.5-1.9c-0.1-0.4-0.1-0.8-0.1-1.3c0-5.3,4.3-9.5,9.5-9.5 c5.3,0,9.5,4.3,9.5,9.5c0,5.3-4.3,9.5-9.5,9.5c-1.1,0-2.1-0.2-3.1-0.5c-0.6,0.8-1.2,1.5-2,2.1c1.5,0.7,3.3,1.1,5.1,1.1 c6.7,0,12.2-5.5,12.2-12.2C39.5,5.5,34,0,27.2,0C20.5,0,15,5.5,15,12.2c0,1.2,0.2,2.4,0.5,3.5" style="fill:#0f0;fill-opacity:1;stroke:none"/></g><g id="g22" style="fill:#0f0;fill-opacity:1;stroke:none"><path id="path24" d="M23.9,8.7c-0.2-0.7-0.5-1.3-0.8-1.9l0,0c-0.5,0.4-1,0.9-1.4,1.5" style="fill:#0f0;fill-opacity:1;stroke:none"/><path id="path26" d="M21.7,8.2c-0.2,0.3-0.4,0.5-0.5,0.8c0.2,0.6,0.4,1.3,0.5,1.9c0.1,0.4,0.1,0.8,0.1,1.3c0,5.3-4.3,9.5-9.5,9.5 c-5.3,0-9.5-4.3-9.5-9.5C2.7,7,7,2.7,12.2,2.7c1.1,0,2.1,0.2,3.1,0.5c0.6-0.8,1.2-1.5,2-2.1C15.8,0.4,14,0,12.2,0 C5.5,0,0,5.5,0,12.2C0,19,5.5,24.5,12.2,24.5S24.5,19,24.5,12.2c0-1.2-0.2-2.4-0.5-3.5" style="fill:#0f0;fill-opacity:1;stroke:none"/></g></g><g id="g28" style="fill:#0f0;fill-opacity:1;stroke:none"><path id="path30" d="M19.5,38.5h-1l2.1-7.7h1L19.5,38.5z" style="fill:#0f0;fill-opacity:1;stroke:none"/><path id="path32" d="M21.6,38.5h-1l2.1-7.7h1L21.6,38.5z" style="fill:#0f0;fill-opacity:1;stroke:none"/><path id="path34" d="M26.7,38c-0.7,0-1.2-0.2-1.6-0.7c-0.4-0.4-0.6-1-0.6-1.6v-0.7c0-0.7,0.2-1.3,0.5-1.7c0.4-0.5,0.9-0.7,1.5-0.7 c0.6,0,1.1,0.2,1.4,0.6c0.3,0.4,0.5,1,0.5,1.7v0.8H26v0c0,0.3,0.1,0.6,0.2,0.9c0.2,0.2,0.4,0.3,0.7,0.3c0.3,0,0.5,0,0.6-0.1 c0.2-0.1,0.4-0.2,0.6-0.3l0.4,0.9c-0.2,0.2-0.4,0.3-0.7,0.4C27.4,37.9,27.1,38,26.7,38z M26.6,33.6c-0.2,0-0.4,0.1-0.5,0.3 C26,34.1,26,34.4,26,34.7h1.2v-0.2c0-0.3,0-0.5-0.1-0.7C27,33.7,26.8,33.6,26.6,33.6z" style="fill:#0f0;fill-opacity:1;stroke:none"/><path id="path36" d="M30.8,37.9h-1.4v-1.3h1.4V37.9z" style="fill:#0f0;fill-opacity:1;stroke:none"/><path id="path38" d="M31.7,35c0-0.7,0.2-1.3,0.5-1.8c0.3-0.5,0.7-0.7,1.3-0.7c0.2,0,0.4,0.1,0.6,0.2c0.2,0.1,0.3,0.3,0.5,0.5l0.1-0.6h1.2v5.2 c0,0.7-0.2,1.2-0.6,1.6c-0.4,0.4-1,0.6-1.6,0.6c-0.2,0-0.5,0-0.7-0.1c-0.3-0.1-0.5-0.2-0.7-0.3l0.2-1.1c0.2,0.1,0.4,0.2,0.6,0.2 c0.2,0.1,0.4,0.1,0.6,0.1c0.3,0,0.5-0.1,0.7-0.3c0.1-0.2,0.2-0.4,0.2-0.8v-0.3c-0.1,0.2-0.3,0.3-0.4,0.4 c-0.2,0.1-0.4,0.1-0.6,0.1c-0.6,0-1-0.2-1.3-0.6c-0.3-0.4-0.5-1-0.5-1.7V35z M33.1,35.6c0,0.4,0.1,0.7,0.2,0.9 c0.1,0.2,0.3,0.3,0.6,0.3c0.1,0,0.3,0,0.4-0.1c0.1-0.1,0.2-0.1,0.3-0.3V34c-0.1-0.1-0.2-0.2-0.3-0.3c-0.1-0.1-0.2-0.1-0.4-0.1 c-0.3,0-0.4,0.1-0.6,0.4c-0.1,0.3-0.2,0.6-0.2,1V35.6z" style="fill:#0f0;fill-opacity:1;stroke:none"/><path id="path40" d="M38.3,37.9h-1.4v-1.3h1.4V37.9z" style="fill:#0f0;fill-opacity:1;stroke:none"/></g><path id="path42" d="M1.3,34.5c0,0.1,0.1,0.2,0.2,0.2h3.1v6.5c0,0.1,0.1,0.2,0.2,0.2H13c0.1,0,0.2-0.1,0.2-0.2v-6.5h3.1c0.1,0,0.2-0.1,0.2-0.2 c0-0.1,0-0.2-0.1-0.3l-7.4-7.4c0,0-0.1-0.1-0.2-0.1c-0.1,0-0.1,0-0.2,0.1l-7.4,7.4C1.3,34.3,1.3,34.4,1.3,34.5z" style="fill:#0f0;fill-opacity:1;stroke:none"/></g></g></svg>