<svg xmlns="http://www.w3.org/2000/svg" xmlns:svg="http://www.w3.org/2000/svg" id="svg2" x="0" y="0" xml:space="preserve" style="enable-background:new 0 0 39.9 34.9" version="1.1" viewBox="0 0 39.9 34.9"><metadata id="metadata96"/><style id="style4" type="text/css">.st0{display:none}.st1{display:inline;fill:#9d9d9c}.st21{fill:#010202}</style><g id="Ebene_4" class="st0"><rect id="rect7" width="1421.9" height="1801.4" x="-127.2" y="-305.1" class="st1"/></g><g id="Ebene_3" style="fill:#0f0;fill-opacity:1;stroke:none"><g id="g12" style="fill:#0f0;fill-opacity:1;stroke:none"><g id="g14" style="fill:#0f0;fill-opacity:1;stroke:none"><g id="g16" style="fill:#0f0;fill-opacity:1;stroke:none"><g id="g18" style="fill:#0f0;fill-opacity:1;stroke:none"><path id="path20" d="M22.5,14.8c0.2-0.3,0.4-0.6,0.6-0.8l-2.9-1.7c-0.1,0.3-0.2,0.6-0.4,0.9c-0.2,0.3-0.4,0.6-0.7,0.8l2.9,1.7 C22.2,15.4,22.3,15.1,22.5,14.8z" class="st21" style="fill:#0f0;fill-opacity:1;stroke:none"/><path id="path22" d="M22.5,14.8c0.2-0.3,0.4-0.6,0.6-0.8l-2.9-1.7c-0.1,0.3-0.2,0.6-0.4,0.9c-0.2,0.3-0.4,0.6-0.7,0.8l2.9,1.7 C22.2,15.4,22.3,15.1,22.5,14.8z" class="st21" style="fill:#0f0;fill-opacity:1;stroke:none"/><path id="path24" d="M22.5,14.8c0.2-0.3,0.4-0.6,0.6-0.8l-2.9-1.7c-0.1,0.3-0.2,0.6-0.4,0.9c-0.2,0.3-0.4,0.6-0.7,0.8l2.9,1.7 C22.2,15.4,22.3,15.1,22.5,14.8z" class="st21" style="fill:#0f0;fill-opacity:1;stroke:none"/><path id="path26" d="M22.5,14.8c0.2-0.3,0.4-0.6,0.6-0.8l-2.9-1.7c-0.1,0.3-0.2,0.6-0.4,0.9c-0.2,0.3-0.4,0.6-0.7,0.8l2.9,1.7 C22.2,15.4,22.3,15.1,22.5,14.8z" class="st21" style="fill:#0f0;fill-opacity:1;stroke:none"/></g><g id="g28" style="fill:#0f0;fill-opacity:1;stroke:none"><path id="path30" d="M13.9,9.8c0.2-0.3,0.4-0.6,0.6-0.8l-1.8-1l-0.1-2.3C12,6,11.4,6,10.7,5.8l0.1,1.7L6.7,7 c0.1,0.7,0.1,1.3-0.2,2l5,0.6l2.1,1.2C13.6,10.5,13.7,10.1,13.9,9.8z" class="st21" style="fill:#0f0;fill-opacity:1;stroke:none"/><path id="path32" d="M13.9,9.8c0.2-0.3,0.4-0.6,0.6-0.8l-1.8-1l-0.1-2.3C12,6,11.4,6,10.7,5.8l0.1,1.7L6.7,7 c0.1,0.7,0.1,1.3-0.2,2l5,0.6l2.1,1.2C13.6,10.5,13.7,10.1,13.9,9.8z" class="st21" style="fill:#0f0;fill-opacity:1;stroke:none"/><path id="path34" d="M13.9,9.8c0.2-0.3,0.4-0.6,0.6-0.8l-1.8-1l-0.1-2.3C12,6,11.4,6,10.7,5.8l0.1,1.7L6.7,7 c0.1,0.7,0.1,1.3-0.2,2l5,0.6l2.1,1.2C13.6,10.5,13.7,10.1,13.9,9.8z" class="st21" style="fill:#0f0;fill-opacity:1;stroke:none"/><path id="path36" d="M13.9,9.8c0.2-0.3,0.4-0.6,0.6-0.8l-1.8-1l-0.1-2.3C12,6,11.4,6,10.7,5.8l0.1,1.7L6.7,7 c0.1,0.7,0.1,1.3-0.2,2l5,0.6l2.1,1.2C13.6,10.5,13.7,10.1,13.9,9.8z" class="st21" style="fill:#0f0;fill-opacity:1;stroke:none"/></g><g id="g38" style="fill:#0f0;fill-opacity:1;stroke:none"><path id="path40" d="M39.7,24.3l-11.1-6.4c0,0.1-0.1,0.2-0.1,0.3c-0.1,0.1-0.1,0.2-0.2,0.3l11.1,6.4c0.2,0.1,0.4,0,0.5-0.1 C39.9,24.6,39.9,24.4,39.7,24.3z" class="st21" style="fill:#0f0;fill-opacity:1;stroke:none"/><path id="path42" d="M39.7,24.3l-11.1-6.4c0,0.1-0.1,0.2-0.1,0.3c-0.1,0.1-0.1,0.2-0.2,0.3l11.1,6.4c0.2,0.1,0.4,0,0.5-0.1 C39.9,24.6,39.9,24.4,39.7,24.3z" class="st21" style="fill:#0f0;fill-opacity:1;stroke:none"/><path id="path44" d="M39.7,24.3l-11.1-6.4c0,0.1-0.1,0.2-0.1,0.3c-0.1,0.1-0.1,0.2-0.2,0.3l11.1,6.4c0.2,0.1,0.4,0,0.5-0.1 C39.9,24.6,39.9,24.4,39.7,24.3z" class="st21" style="fill:#0f0;fill-opacity:1;stroke:none"/><path id="path46" d="M39.7,24.3l-11.1-6.4c0,0.1-0.1,0.2-0.1,0.3c-0.1,0.1-0.1,0.2-0.2,0.3l11.1,6.4c0.2,0.1,0.4,0,0.5-0.1 C39.9,24.6,39.9,24.4,39.7,24.3z" class="st21" style="fill:#0f0;fill-opacity:1;stroke:none"/></g></g><g id="g48" style="fill:#0f0;fill-opacity:1;stroke:none"><g id="g50" style="fill:#0f0;fill-opacity:1;stroke:none"><path id="path52" d="M1.1,6.4c0.7-1.2,2.2-1.6,3.4-0.9c1.2,0.7,1.6,2.2,0.9,3.4c-0.7,1.2-2.2,1.6-3.4,0.9 C0.9,9.1,0.4,7.6,1.1,6.4" class="st21" style="fill:#0f0;fill-opacity:1;stroke:none"/></g></g><g id="g54" style="fill:#0f0;fill-opacity:1;stroke:none"><g id="g56" style="fill:#0f0;fill-opacity:1;stroke:none"><path id="path58" d="M9.4,1.3c0.7-1.2,2.2-1.6,3.4-0.9C14,1,14.4,2.6,13.7,3.8c-0.7,1.2-2.2,1.6-3.4,0.9 C9.1,4,8.7,2.4,9.4,1.3" class="st21" style="fill:#0f0;fill-opacity:1;stroke:none"/></g></g><g id="g60" style="fill:#0f0;fill-opacity:1;stroke:none"><g id="g62" style="fill:#0f0;fill-opacity:1;stroke:none"><path id="path64" d="M14.7,10.3c0.7-1.2,2.2-1.6,3.4-0.9c1.2,0.7,1.6,2.2,0.9,3.4c-0.7,1.2-2.2,1.6-3.4,0.9 C14.4,13,14,11.5,14.7,10.3" class="st21" style="fill:#0f0;fill-opacity:1;stroke:none"/></g></g><g id="g66" style="fill:#0f0;fill-opacity:1;stroke:none"><g id="g68" style="fill:#0f0;fill-opacity:1;stroke:none"><path id="path70" d="M23.3,15.3c0.7-1.2,2.2-1.6,3.4-0.9c1.2,0.7,1.6,2.2,0.9,3.4c-0.7,1.2-2.2,1.6-3.4,0.9 C23,18,22.6,16.5,23.3,15.3" class="st21" style="fill:#0f0;fill-opacity:1;stroke:none"/></g></g></g><g id="g72" style="fill:#0f0;fill-opacity:1;stroke:none"><path id="path74" d="M20,33.4h-1l2.1-7.8h1L20,33.4z" style="fill:#0f0;fill-opacity:1;stroke:none"/><path id="path76" d="M22,33.4h-1l2.1-7.8h1L22,33.4z" style="fill:#0f0;fill-opacity:1;stroke:none"/><path id="path78" d="M27.3,32.9c-0.7,0-1.2-0.2-1.6-0.7c-0.4-0.4-0.6-1-0.6-1.7v-0.8c0-0.7,0.2-1.3,0.6-1.8c0.4-0.5,0.9-0.7,1.5-0.7 c0.6,0,1.1,0.2,1.5,0.6c0.3,0.4,0.5,1,0.5,1.7v0.9h-2.6v0c0,0.4,0.1,0.6,0.2,0.9c0.2,0.2,0.4,0.3,0.7,0.3c0.3,0,0.5,0,0.6-0.1 c0.2-0.1,0.4-0.2,0.6-0.3l0.4,0.9c-0.2,0.2-0.4,0.3-0.7,0.4C28,32.8,27.6,32.9,27.3,32.9z M27.2,28.5c-0.2,0-0.4,0.1-0.5,0.3 c-0.1,0.2-0.2,0.5-0.2,0.8h1.3v-0.2c0-0.3,0-0.5-0.1-0.7C27.5,28.5,27.4,28.5,27.2,28.5z" style="fill:#0f0;fill-opacity:1;stroke:none"/><path id="path80" d="M31.4,32.8H30v-1.3h1.4V32.8z" style="fill:#0f0;fill-opacity:1;stroke:none"/><path id="path82" d="M32.3,29.9c0-0.8,0.2-1.4,0.5-1.8c0.3-0.5,0.8-0.7,1.3-0.7c0.2,0,0.4,0.1,0.6,0.2c0.2,0.1,0.3,0.3,0.5,0.5l0.1-0.6h1.2 v5.2c0,0.7-0.2,1.3-0.6,1.7c-0.4,0.4-1,0.6-1.7,0.6c-0.2,0-0.5,0-0.7-0.1c-0.3-0.1-0.5-0.2-0.7-0.3l0.2-1.1 c0.2,0.1,0.4,0.2,0.6,0.2c0.2,0.1,0.4,0.1,0.6,0.1c0.3,0,0.5-0.1,0.7-0.3c0.1-0.2,0.2-0.5,0.2-0.8v-0.3c-0.1,0.2-0.3,0.3-0.4,0.4 c-0.2,0.1-0.4,0.1-0.6,0.1c-0.6,0-1-0.2-1.3-0.6c-0.3-0.4-0.5-1-0.5-1.7V29.9z M33.7,30.5c0,0.4,0.1,0.7,0.2,0.9 c0.1,0.2,0.3,0.3,0.6,0.3c0.1,0,0.3,0,0.4-0.1c0.1-0.1,0.2-0.1,0.3-0.3v-2.5c-0.1-0.1-0.2-0.2-0.3-0.3c-0.1-0.1-0.2-0.1-0.4-0.1 c-0.3,0-0.5,0.1-0.6,0.4c-0.1,0.3-0.2,0.6-0.2,1V30.5z" style="fill:#0f0;fill-opacity:1;stroke:none"/><path id="path84" d="M38.9,32.8h-1.4v-1.3h1.4V32.8z" style="fill:#0f0;fill-opacity:1;stroke:none"/></g><g id="g86" style="fill:#0f0;fill-opacity:1;stroke:none"><path id="path88" d="M4.6,27.1c0-0.6,0-1.5,0-2.1V22c0-0.6,0.4-0.8,0.9-0.5L8,23c0.5,0.3,1.3,0.8,1.8,1.1l2.5,1.5c0.5,0.3,0.5,0.8,0,1.1 L9.9,28c-0.5,0.3-1.3,0.8-1.8,1.1l-2.6,1.5C5,30.8,4.6,30.6,4.6,30V27.1z" style="fill:#0f0;fill-opacity:1;stroke:none"/><path id="path90" d="M7.5,19.6c3.5,0,6.4,2.9,6.4,6.4c0,3.5-2.9,6.4-6.4,6.4c-3.5,0-6.4-2.9-6.4-6.4C1.1,22.5,4,19.6,7.5,19.6 M7.5,18.5 C3.4,18.5,0,21.9,0,26c0,4.1,3.4,7.5,7.5,7.5c4.1,0,7.5-3.4,7.5-7.5C15,21.9,11.6,18.5,7.5,18.5L7.5,18.5z" style="fill:#0f0;fill-opacity:1;stroke:none"/></g></g></g></svg>