<svg xmlns="http://www.w3.org/2000/svg" xmlns:svg="http://www.w3.org/2000/svg" id="svg2" x="0" y="0" xml:space="preserve" style="enable-background:new 0 0 39.9 34.8" version="1.1" viewBox="0 0 39.9 34.8"><metadata id="metadata124"/><style id="style4" type="text/css">.st0{display:none}.st1{display:inline;fill:#9d9d9c}.st21{fill:#010202}</style><g id="Ebene_4" class="st0"><rect id="rect7" width="1421.9" height="1801.4" x="-130.3" y="-392.3" class="st1"/></g><g id="Ebene_3" style="fill:#0f0;fill-opacity:1;stroke:none"><g id="g12" style="fill:#0f0;fill-opacity:1;stroke:none"><g id="g14" style="fill:#0f0;fill-opacity:1;stroke:none"><g id="g16" style="fill:#0f0;fill-opacity:1;stroke:none"><g id="g18" style="fill:#0f0;fill-opacity:1;stroke:none"><path id="path20" d="M5.7,24.1c2.7,0,4.9,2.2,4.9,4.9c0,2.7-2.2,4.9-4.9,4.9c-2.7,0-4.9-2.2-4.9-4.9C0.8,26.3,3,24.1,5.7,24.1 M5.7,23.4 c-3.1,0-5.7,2.5-5.7,5.7c0,3.1,2.5,5.7,5.7,5.7c3.1,0,5.7-2.5,5.7-5.7C11.3,25.9,8.8,23.4,5.7,23.4L5.7,23.4z" style="fill:#0f0;fill-opacity:1;stroke:none"/></g></g><g id="g22" style="fill:#0f0;fill-opacity:1;stroke:none"><g id="g24" style="fill:#0f0;fill-opacity:1;stroke:none"><circle id="circle26" cx="5.7" cy="29.1" r=".3" style="fill:#0f0;fill-opacity:1;stroke:none"/></g><g id="g28" style="fill:#0f0;fill-opacity:1;stroke:none"><path id="path30" d="M5.7,27.6c-0.2,0-0.3-0.1-0.3-0.3v-1.8c0-0.2,0.1-0.3,0.3-0.3c0.2,0,0.3,0.1,0.3,0.3v1.8C6,27.4,5.8,27.6,5.7,27.6z" style="fill:#0f0;fill-opacity:1;stroke:none"/></g><g id="g32" style="fill:#0f0;fill-opacity:1;stroke:none"><path id="path34" d="M5.7,33c-0.2,0-0.3-0.1-0.3-0.3v-1.8c0-0.2,0.1-0.3,0.3-0.3c0.2,0,0.3,0.1,0.3,0.3v1.8C6,32.8,5.8,33,5.7,33z" style="fill:#0f0;fill-opacity:1;stroke:none"/></g><g id="g36" style="fill:#0f0;fill-opacity:1;stroke:none"><path id="path38" d="M3.8,29.4H2.1c-0.2,0-0.3-0.1-0.3-0.3c0-0.2,0.1-0.3,0.3-0.3h1.8c0.2,0,0.3,0.1,0.3,0.3C4.2,29.2,4,29.4,3.8,29.4z" style="fill:#0f0;fill-opacity:1;stroke:none"/></g><g id="g40" style="fill:#0f0;fill-opacity:1;stroke:none"><path id="path42" d="M9.2,29.4H7.5c-0.2,0-0.3-0.1-0.3-0.3c0-0.2,0.1-0.3,0.3-0.3h1.8c0.2,0,0.3,0.1,0.3,0.3C9.6,29.2,9.4,29.4,9.2,29.4z" style="fill:#0f0;fill-opacity:1;stroke:none"/></g></g><path id="path44" d="M9.3,20.3c-2.3,0-4.2,1.3-5.1,3.3c0.5-0.1,0.9-0.2,1.4-0.2c3.1,0,5.7,2.5,5.7,5.7c0,0.9-0.2,1.7-0.5,2.4 c2.4-0.6,4.2-2.8,4.2-5.5C15,22.9,12.5,20.3,9.3,20.3z M9.7,24.2c0,0.2-0.1,0.3-0.3,0.3c-0.2,0-0.3-0.1-0.3-0.3v-1.8 c0-0.2,0.1-0.3,0.3-0.3c0.2,0,0.3,0.1,0.3,0.3V24.2z M12.9,26.3h-1.8c-0.2,0-0.3-0.1-0.3-0.3c0-0.2,0.1-0.3,0.3-0.3h1.8 c0.2,0,0.3,0.1,0.3,0.3C13.3,26.2,13.1,26.3,12.9,26.3z" style="fill:#0f0;fill-opacity:1;stroke:none"/></g><g id="g46" style="fill:#0f0;fill-opacity:1;stroke:none"><path id="path48" d="M18.4,33.2h-1l2.1-7.8h1L18.4,33.2z" style="fill:#0f0;fill-opacity:1;stroke:none"/><path id="path50" d="M20.5,33.2h-1l2.1-7.8h1L20.5,33.2z" style="fill:#0f0;fill-opacity:1;stroke:none"/><path id="path52" d="M25.8,32.7c-0.7,0-1.2-0.2-1.6-0.7c-0.4-0.4-0.6-1-0.6-1.7v-0.8c0-0.7,0.2-1.3,0.6-1.8c0.4-0.5,0.9-0.7,1.5-0.7 c0.6,0,1.1,0.2,1.5,0.6c0.3,0.4,0.5,1,0.5,1.7v0.9H25v0c0,0.4,0.1,0.6,0.2,0.9c0.2,0.2,0.4,0.3,0.7,0.3c0.3,0,0.5,0,0.6-0.1 c0.2-0.1,0.4-0.2,0.6-0.3l0.4,0.9c-0.2,0.2-0.4,0.3-0.7,0.4C26.5,32.7,26.1,32.7,25.8,32.7z M25.6,28.3c-0.2,0-0.4,0.1-0.5,0.3 C25,28.8,25,29.1,25,29.4h1.3v-0.2c0-0.3,0-0.5-0.1-0.7C26,28.4,25.8,28.3,25.6,28.3z" style="fill:#0f0;fill-opacity:1;stroke:none"/><path id="path54" d="M29.8,32.6h-1.4v-1.3h1.4V32.6z" style="fill:#0f0;fill-opacity:1;stroke:none"/><path id="path56" d="M30.8,29.7c0-0.8,0.2-1.4,0.5-1.8c0.3-0.5,0.8-0.7,1.3-0.7c0.2,0,0.4,0.1,0.6,0.2c0.2,0.1,0.3,0.3,0.5,0.5l0.1-0.6H35 v5.2c0,0.7-0.2,1.3-0.6,1.7c-0.4,0.4-1,0.6-1.7,0.6c-0.2,0-0.5,0-0.7-0.1c-0.3-0.1-0.5-0.2-0.7-0.3l0.2-1.1 c0.2,0.1,0.4,0.2,0.6,0.2c0.2,0.1,0.4,0.1,0.6,0.1c0.3,0,0.5-0.1,0.7-0.3c0.1-0.2,0.2-0.5,0.2-0.8v-0.3c-0.1,0.2-0.3,0.3-0.4,0.4 c-0.2,0.1-0.4,0.1-0.6,0.1c-0.6,0-1-0.2-1.3-0.6c-0.3-0.4-0.5-1-0.5-1.7V29.7z M32.2,30.4c0,0.4,0.1,0.7,0.2,0.9 c0.1,0.2,0.3,0.3,0.6,0.3c0.1,0,0.3,0,0.4-0.1c0.1-0.1,0.2-0.1,0.3-0.3v-2.5c-0.1-0.1-0.2-0.2-0.3-0.3c-0.1-0.1-0.2-0.1-0.4-0.1 c-0.3,0-0.5,0.1-0.6,0.4c-0.1,0.3-0.2,0.6-0.2,1V30.4z" style="fill:#0f0;fill-opacity:1;stroke:none"/><path id="path58" d="M37.4,32.6H36v-1.3h1.4V32.6z" style="fill:#0f0;fill-opacity:1;stroke:none"/></g><g id="g60" style="fill:#0f0;fill-opacity:1;stroke:none"><g id="g62" style="fill:#0f0;fill-opacity:1;stroke:none"><g id="g64" style="fill:#0f0;fill-opacity:1;stroke:none"><g id="g66" style="fill:#0f0;fill-opacity:1;stroke:none"><path id="path68" d="M22.6,14.8c0.2-0.3,0.4-0.6,0.6-0.8l-2.9-1.7c-0.1,0.3-0.2,0.6-0.4,0.9c-0.2,0.3-0.4,0.6-0.7,0.8 l2.9,1.7C22.3,15.4,22.4,15.1,22.6,14.8z" class="st21" style="fill:#0f0;fill-opacity:1;stroke:none"/><path id="path70" d="M22.6,14.8c0.2-0.3,0.4-0.6,0.6-0.8l-2.9-1.7c-0.1,0.3-0.2,0.6-0.4,0.9c-0.2,0.3-0.4,0.6-0.7,0.8 l2.9,1.7C22.3,15.4,22.4,15.1,22.6,14.8z" class="st21" style="fill:#0f0;fill-opacity:1;stroke:none"/><path id="path72" d="M22.6,14.8c0.2-0.3,0.4-0.6,0.6-0.8l-2.9-1.7c-0.1,0.3-0.2,0.6-0.4,0.9c-0.2,0.3-0.4,0.6-0.7,0.8 l2.9,1.7C22.3,15.4,22.4,15.1,22.6,14.8z" class="st21" style="fill:#0f0;fill-opacity:1;stroke:none"/><path id="path74" d="M22.6,14.8c0.2-0.3,0.4-0.6,0.6-0.8l-2.9-1.7c-0.1,0.3-0.2,0.6-0.4,0.9c-0.2,0.3-0.4,0.6-0.7,0.8 l2.9,1.7C22.3,15.4,22.4,15.1,22.6,14.8z" class="st21" style="fill:#0f0;fill-opacity:1;stroke:none"/></g><g id="g76" style="fill:#0f0;fill-opacity:1;stroke:none"><path id="path78" d="M14,9.8c0.2-0.3,0.4-0.6,0.6-0.8l-1.8-1l-0.1-2.3c-0.6,0.2-1.3,0.3-2,0.1l0.1,1.7L6.8,7 c0.1,0.7,0.1,1.3-0.2,2l5,0.6l2.1,1.2C13.7,10.5,13.8,10.1,14,9.8z" class="st21" style="fill:#0f0;fill-opacity:1;stroke:none"/><path id="path80" d="M14,9.8c0.2-0.3,0.4-0.6,0.6-0.8l-1.8-1l-0.1-2.3c-0.6,0.2-1.3,0.3-2,0.1l0.1,1.7L6.8,7 c0.1,0.7,0.1,1.3-0.2,2l5,0.6l2.1,1.2C13.7,10.5,13.8,10.1,14,9.8z" class="st21" style="fill:#0f0;fill-opacity:1;stroke:none"/><path id="path82" d="M14,9.8c0.2-0.3,0.4-0.6,0.6-0.8l-1.8-1l-0.1-2.3c-0.6,0.2-1.3,0.3-2,0.1l0.1,1.7L6.8,7 c0.1,0.7,0.1,1.3-0.2,2l5,0.6l2.1,1.2C13.7,10.5,13.8,10.1,14,9.8z" class="st21" style="fill:#0f0;fill-opacity:1;stroke:none"/><path id="path84" d="M14,9.8c0.2-0.3,0.4-0.6,0.6-0.8l-1.8-1l-0.1-2.3c-0.6,0.2-1.3,0.3-2,0.1l0.1,1.7L6.8,7 c0.1,0.7,0.1,1.3-0.2,2l5,0.6l2.1,1.2C13.7,10.5,13.8,10.1,14,9.8z" class="st21" style="fill:#0f0;fill-opacity:1;stroke:none"/></g><g id="g86" style="fill:#0f0;fill-opacity:1;stroke:none"><path id="path88" d="M39.8,24.3l-11.1-6.4c0,0.1-0.1,0.2-0.1,0.3c-0.1,0.1-0.1,0.2-0.2,0.3l11.1,6.4c0.2,0.1,0.4,0,0.5-0.1 C40,24.6,39.9,24.4,39.8,24.3z" class="st21" style="fill:#0f0;fill-opacity:1;stroke:none"/><path id="path90" d="M39.8,24.3l-11.1-6.4c0,0.1-0.1,0.2-0.1,0.3c-0.1,0.1-0.1,0.2-0.2,0.3l11.1,6.4c0.2,0.1,0.4,0,0.5-0.1 C40,24.6,39.9,24.4,39.8,24.3z" class="st21" style="fill:#0f0;fill-opacity:1;stroke:none"/><path id="path92" d="M39.8,24.3l-11.1-6.4c0,0.1-0.1,0.2-0.1,0.3c-0.1,0.1-0.1,0.2-0.2,0.3l11.1,6.4c0.2,0.1,0.4,0,0.5-0.1 C40,24.6,39.9,24.4,39.8,24.3z" class="st21" style="fill:#0f0;fill-opacity:1;stroke:none"/><path id="path94" d="M39.8,24.3l-11.1-6.4c0,0.1-0.1,0.2-0.1,0.3c-0.1,0.1-0.1,0.2-0.2,0.3l11.1,6.4c0.2,0.1,0.4,0,0.5-0.1 C40,24.6,39.9,24.4,39.8,24.3z" class="st21" style="fill:#0f0;fill-opacity:1;stroke:none"/></g></g><g id="g96" style="fill:#0f0;fill-opacity:1;stroke:none"><g id="g98" style="fill:#0f0;fill-opacity:1;stroke:none"><path id="path100" d="M1.2,6.4c0.7-1.2,2.2-1.6,3.4-0.9c1.2,0.7,1.6,2.2,0.9,3.4c-0.7,1.2-2.2,1.6-3.4,0.9 C0.9,9.1,0.5,7.6,1.2,6.4" class="st21" style="fill:#0f0;fill-opacity:1;stroke:none"/></g></g><g id="g102" style="fill:#0f0;fill-opacity:1;stroke:none"><g id="g104" style="fill:#0f0;fill-opacity:1;stroke:none"><path id="path106" d="M9.5,1.3c0.7-1.2,2.2-1.6,3.4-0.9c1.2,0.7,1.6,2.2,0.9,3.4c-0.7,1.2-2.2,1.6-3.4,0.9 C9.2,4,8.8,2.4,9.5,1.3" class="st21" style="fill:#0f0;fill-opacity:1;stroke:none"/></g></g><g id="g108" style="fill:#0f0;fill-opacity:1;stroke:none"><g id="g110" style="fill:#0f0;fill-opacity:1;stroke:none"><path id="path112" d="M14.8,10.3c0.7-1.2,2.2-1.6,3.4-0.9c1.2,0.7,1.6,2.2,0.9,3.4c-0.7,1.2-2.2,1.6-3.4,0.9 C14.5,13,14.1,11.5,14.8,10.3" class="st21" style="fill:#0f0;fill-opacity:1;stroke:none"/></g></g><g id="g114" style="fill:#0f0;fill-opacity:1;stroke:none"><g id="g116" style="fill:#0f0;fill-opacity:1;stroke:none"><path id="path118" d="M23.4,15.3c0.7-1.2,2.2-1.6,3.4-0.9c1.2,0.7,1.6,2.2,0.9,3.4c-0.7,1.2-2.2,1.6-3.4,0.9 C23.1,18,22.7,16.5,23.4,15.3" class="st21" style="fill:#0f0;fill-opacity:1;stroke:none"/></g></g></g></g></g></g></svg>