<svg xmlns="http://www.w3.org/2000/svg" xmlns:svg="http://www.w3.org/2000/svg" id="svg2" x="0" y="0" xml:space="preserve" style="enable-background:new 0 0 40.5 41" version="1.1" viewBox="0 0 40.5 41"><metadata id="metadata52"/><style id="style4" type="text/css">.st0{display:none}.st1{display:inline;fill:#9d9d9c}</style><g id="Ebene_4" class="st0"><rect id="rect7" width="1421.9" height="1801.4" x="-131.9" y="-678.7" class="st1"/></g><g id="Ebene_3" style="fill:#0f0;fill-opacity:1;stroke:none"><g id="g12" style="fill:#0f0;fill-opacity:1;stroke:none"><g id="g14" style="fill:#0f0;fill-opacity:1;stroke:none"><path id="path16" d="M5.1,35c-0.3-0.3-0.4-0.7-0.2-1.1c0.2-0.4,0.5-0.6,0.9-0.6h1.9v-4.8c0-0.1,0-0.2,0.1-0.2H3.5c-0.1,0-0.2,0.1-0.2,0.2v5.5 H0.7c-0.1,0-0.2,0.1-0.2,0.2c0,0.1,0,0.2,0.1,0.3l6.4,6.4C6.9,40.9,7,41,7,41c0.1,0,0.1,0,0.2-0.1L9.1,39L5.1,35z" style="fill:#0f0;fill-opacity:1;stroke:none"/><path id="path18" d="M18.8,34.2c0-0.1-0.1-0.2-0.2-0.2H16v-5.5c0-0.1-0.1-0.2-0.2-0.2h-7c-0.1,0-0.2,0.1-0.2,0.2v5.5H5.9 c-0.1,0-0.2,0.1-0.2,0.2c0,0.1,0,0.2,0.1,0.3l6.4,6.4c0,0,0.1,0.1,0.2,0.1c0.1,0,0.1,0,0.2-0.1l6.4-6.4 C18.9,34.4,18.9,34.3,18.8,34.2z" style="fill:#0f0;fill-opacity:1;stroke:none"/></g><g id="g20" style="fill:#0f0;fill-opacity:1;stroke:none"><g id="g22" style="fill:#0f0;fill-opacity:1;stroke:none"><path id="path24" d="M15.7,16c0.2,0.7,0.5,1.3,0.8,2l0,0c0.6-0.4,1-0.9,1.5-1.5" style="fill:#0f0;fill-opacity:1;stroke:none"/><path id="path26" d="M18,16.5c0.2-0.3,0.4-0.5,0.5-0.8c-0.2-0.6-0.4-1.3-0.5-2C18,13.2,18,12.8,18,12.4c0-5.3,4.3-9.7,9.7-9.7 c5.3,0,9.7,4.3,9.7,9.7S32.9,22,27.6,22c-1.1,0-2.2-0.2-3.2-0.5c-0.6,0.8-1.3,1.5-2,2.2c1.6,0.7,3.3,1.1,5.1,1.1 c6.8,0,12.4-5.6,12.4-12.4C40,5.6,34.4,0,27.6,0c-6.8,0-12.4,5.6-12.4,12.4c0,1.2,0.2,2.4,0.5,3.6" style="fill:#0f0;fill-opacity:1;stroke:none"/></g><g id="g28" style="fill:#0f0;fill-opacity:1;stroke:none"><path id="path30" d="M24.3,8.8c-0.2-0.7-0.5-1.3-0.8-2l0,0c-0.6,0.4-1,0.9-1.5,1.5" style="fill:#0f0;fill-opacity:1;stroke:none"/><path id="path32" d="M22,8.3c-0.2,0.3-0.4,0.5-0.5,0.8c0.2,0.6,0.4,1.3,0.5,2c0.1,0.4,0.1,0.8,0.1,1.3c0,5.3-4.3,9.7-9.7,9.7 c-5.3,0-9.7-4.3-9.7-9.7s4.3-9.7,9.7-9.7c1.1,0,2.2,0.2,3.2,0.5c0.6-0.8,1.3-1.5,2-2.2C16,0.4,14.2,0,12.4,0C5.6,0,0,5.6,0,12.4 c0,6.8,5.6,12.4,12.4,12.4c6.8,0,12.4-5.6,12.4-12.4c0-1.2-0.2-2.4-0.5-3.6" style="fill:#0f0;fill-opacity:1;stroke:none"/></g></g><g id="g34" style="fill:#0f0;fill-opacity:1;stroke:none"><path id="path36" d="M21.5,37.6h-1l2.1-7.8h1L21.5,37.6z" style="fill:#0f0;fill-opacity:1;stroke:none"/><path id="path38" d="M23.5,37.6h-1l2.1-7.8h1L23.5,37.6z" style="fill:#0f0;fill-opacity:1;stroke:none"/><path id="path40" d="M28.8,37.1c-0.7,0-1.2-0.2-1.6-0.7c-0.4-0.4-0.6-1-0.6-1.7V34c0-0.7,0.2-1.3,0.6-1.8c0.4-0.5,0.9-0.7,1.5-0.7 c0.6,0,1.1,0.2,1.4,0.6c0.3,0.4,0.5,1,0.5,1.7v0.9H28v0c0,0.4,0.1,0.6,0.2,0.9c0.2,0.2,0.4,0.3,0.7,0.3c0.3,0,0.5,0,0.6-0.1 c0.2-0.1,0.4-0.2,0.6-0.3l0.4,0.9c-0.2,0.2-0.4,0.3-0.7,0.4C29.5,37,29.2,37.1,28.8,37.1z M28.7,32.7c-0.2,0-0.4,0.1-0.5,0.3 c-0.1,0.2-0.2,0.5-0.2,0.8h1.3v-0.2c0-0.3,0-0.5-0.1-0.7C29,32.7,28.9,32.7,28.7,32.7z" style="fill:#0f0;fill-opacity:1;stroke:none"/><path id="path42" d="M32.9,37h-1.4v-1.3h1.4V37z" style="fill:#0f0;fill-opacity:1;stroke:none"/><path id="path44" d="M33.8,34.1c0-0.8,0.2-1.4,0.5-1.8c0.3-0.5,0.8-0.7,1.3-0.7c0.2,0,0.4,0.1,0.6,0.2c0.2,0.1,0.3,0.3,0.5,0.5l0.1-0.6H38 v5.2c0,0.7-0.2,1.3-0.6,1.7c-0.4,0.4-1,0.6-1.7,0.6c-0.2,0-0.5,0-0.7-0.1c-0.3-0.1-0.5-0.2-0.7-0.3l0.2-1.1 c0.2,0.1,0.4,0.2,0.6,0.2c0.2,0.1,0.4,0.1,0.6,0.1c0.3,0,0.5-0.1,0.7-0.3c0.1-0.2,0.2-0.5,0.2-0.8v-0.3c-0.1,0.2-0.3,0.3-0.4,0.4 c-0.2,0.1-0.4,0.1-0.6,0.1c-0.6,0-1-0.2-1.3-0.6c-0.3-0.4-0.5-1-0.5-1.7V34.1z M35.2,34.7c0,0.4,0.1,0.7,0.2,0.9 c0.1,0.2,0.3,0.3,0.6,0.3c0.1,0,0.3,0,0.4-0.1c0.1-0.1,0.2-0.1,0.3-0.3v-2.5c-0.1-0.1-0.2-0.2-0.3-0.3c-0.1-0.1-0.2-0.1-0.4-0.1 c-0.3,0-0.5,0.1-0.6,0.4c-0.1,0.3-0.2,0.6-0.2,1V34.7z" style="fill:#0f0;fill-opacity:1;stroke:none"/><path id="path46" d="M40.5,37h-1.4v-1.3h1.4V37z" style="fill:#0f0;fill-opacity:1;stroke:none"/></g></g></g></svg>