<svg xmlns="http://www.w3.org/2000/svg" xmlns:svg="http://www.w3.org/2000/svg" id="svg2" x="0" y="0" version="1.1" viewBox="0 0 40 25.6" style="enable-background:new 0 0 40 25.6" xml:space="preserve"><metadata id="metadata40"/><style id="style4" type="text/css">.st0{display:none}.st1{display:inline;fill:#9d9d9c}.st18{fill:#1c1c1b}</style><g id="Ebene_4" class="st0"><rect id="rect7" width="1421.9" height="1801.4" x="-122.8" y="-1224" class="st1"/></g><g id="Ebene_3" style="fill:#0f0;fill-opacity:1;stroke:none"><g id="g12" style="fill:#0f0;fill-opacity:1;stroke:none"><g id="g14" style="fill:#0f0;fill-opacity:1;stroke:none"><g id="g16" style="fill:#0f0;fill-opacity:1;stroke:none"><path id="path18" d="M38.7,12.2H1.2c-0.7,0-1.2,0.6-1.2,1.2v6.2C0,20.4,0.6,21,1.2,21h37.5c0.7,0,1.2-0.6,1.2-1.2v-6.2 C40,12.8,39.4,12.2,38.7,12.2z M7.7,18.5c-1,0-1.9-0.8-1.9-1.9c0-1,0.8-1.9,1.9-1.9c1,0,1.9,0.8,1.9,1.9 C9.5,17.6,8.7,18.5,7.7,18.5z M17.4,18.5c-1,0-1.9-0.8-1.9-1.9c0-1,0.8-1.9,1.9-1.9c1,0,1.9,0.8,1.9,1.9 C19.3,17.6,18.5,18.5,17.4,18.5z M22.6,18.5c-1,0-1.9-0.8-1.9-1.9c0-1,0.8-1.9,1.9-1.9c1,0,1.9,0.8,1.9,1.9 C24.4,17.6,23.6,18.5,22.6,18.5z" class="st18" style="fill:#0f0;fill-opacity:1;stroke:none"/><path id="path20" d="M15.4,25.6c-0.4-1.1-0.5-1.2-0.1-1.4l4-2.3c0.4-0.2,0.9-0.2,1.3,0l4,2.3c0.4,0.2,0.3,0.4-0.1,1.4H15.4z" class="st18" style="fill:#0f0;fill-opacity:1;stroke:none"/></g></g><g id="g22" style="fill:#0f0;fill-opacity:1;stroke:none"><path id="path24" d="M9.6,7.8h-1L10.7,0h1L9.6,7.8z" style="fill:#0f0;fill-opacity:1;stroke:none"/><path id="path26" d="M11.7,7.8h-1L12.8,0h1L11.7,7.8z" style="fill:#0f0;fill-opacity:1;stroke:none"/><path id="path28" d="M16.9,7.3c-0.7,0-1.2-0.2-1.6-0.7c-0.4-0.4-0.6-1-0.6-1.7V4.2c0-0.7,0.2-1.3,0.5-1.8c0.4-0.5,0.9-0.7,1.5-0.7 c0.6,0,1.1,0.2,1.5,0.6c0.3,0.4,0.5,1,0.5,1.7v0.9h-2.6v0c0,0.4,0.1,0.6,0.2,0.9c0.2,0.2,0.4,0.3,0.7,0.3c0.3,0,0.5,0,0.6-0.1 c0.2-0.1,0.4-0.2,0.6-0.3l0.4,0.9c-0.2,0.2-0.4,0.3-0.7,0.4C17.6,7.2,17.3,7.3,16.9,7.3z M16.8,2.9c-0.2,0-0.4,0.1-0.5,0.3 c-0.1,0.2-0.2,0.5-0.2,0.8h1.3V3.8c0-0.3,0-0.5-0.1-0.7C17.1,2.9,17,2.9,16.8,2.9z" style="fill:#0f0;fill-opacity:1;stroke:none"/><path id="path30" d="M21,7.2h-1.4V5.9H21V7.2z" style="fill:#0f0;fill-opacity:1;stroke:none"/><path id="path32" d="M22,4.3c0-0.8,0.2-1.4,0.5-1.8c0.3-0.5,0.8-0.7,1.3-0.7c0.2,0,0.4,0.1,0.6,0.2c0.2,0.1,0.3,0.3,0.5,0.5l0.1-0.6h1.2v5.2 c0,0.7-0.2,1.3-0.6,1.7c-0.4,0.4-1,0.6-1.7,0.6c-0.2,0-0.5,0-0.7-0.1c-0.3-0.1-0.5-0.2-0.7-0.3l0.2-1.1C22.8,8,23,8,23.2,8.1 c0.2,0.1,0.4,0.1,0.6,0.1c0.3,0,0.5-0.1,0.7-0.3c0.1-0.2,0.2-0.5,0.2-0.8V6.8c-0.1,0.2-0.3,0.3-0.4,0.4c-0.2,0.1-0.4,0.1-0.6,0.1 c-0.6,0-1-0.2-1.3-0.6S22,5.6,22,4.9V4.3z M23.4,4.9c0,0.4,0.1,0.7,0.2,0.9c0.1,0.2,0.3,0.3,0.6,0.3c0.1,0,0.3,0,0.4-0.1 c0.1-0.1,0.2-0.1,0.3-0.3V3.3c-0.1-0.1-0.2-0.2-0.3-0.3c-0.1-0.1-0.2-0.1-0.4-0.1c-0.3,0-0.5,0.1-0.6,0.4c-0.1,0.3-0.2,0.6-0.2,1 V4.9z" style="fill:#0f0;fill-opacity:1;stroke:none"/><path id="path34" d="M28.6,7.2h-1.4V5.9h1.4V7.2z" style="fill:#0f0;fill-opacity:1;stroke:none"/></g></g></g></svg>