<svg xmlns="http://www.w3.org/2000/svg" xmlns:svg="http://www.w3.org/2000/svg" id="svg2" width="5.5cm" height="6.25cm" version="1.1" viewBox="0 0 207.874 236.22" xml:space="preserve"><metadata id="metadata8"/><defs id="defs6"><clipPath id="clipPath18" clipPathUnits="userSpaceOnUse"><path id="path16" d="M 0,6.104e-6 H 311.88 V 354.36001 H 0 Z" style="clip-rule:evenodd"/></clipPath><clipPath id="clipPath32" clipPathUnits="userSpaceOnUse"><path id="path30" d="m 9.117,92.464 c -3.6534,0 -6.615,-2.962 -6.615,-6.615 v -26.46 c 0,-3.653 2.9616,-6.615 6.615,-6.615 H 302.06 c 3.66,0 6.62,2.962 6.62,6.615 v 26.46 c 0,3.653 -2.96,6.615 -6.62,6.615 z M -2.26e-7,354.36 H 311.88 V 0 H -2.26e-7 Z" style="clip-rule:evenodd"/></clipPath><clipPath id="clipPath48" clipPathUnits="userSpaceOnUse"><path id="path46" d="m 13.543,352.14 c -6.0976,0 -11.041,-4.95 -11.041,-11.05 V 114.44 c 0,-6.1 4.9434,-11.04 11.041,-11.04 H 297.64 c 6.09,0 11.04,4.94 11.04,11.04 v 226.65 c 0,6.1 -4.95,11.05 -11.04,11.05 z M -2.26e-7,354.36 H 311.88 V 0 H -2.26e-7 Z" style="clip-rule:evenodd"/></clipPath><clipPath id="clipPath64" clipPathUnits="userSpaceOnUse"><path id="path62" d="M 0,0 H 311.88 V 354.36 H 0 Z" style="clip-rule:evenodd"/></clipPath><clipPath id="clipPath74" clipPathUnits="userSpaceOnUse"><path id="path72" d="M 0,0 H 311.88 V 354.36 H 0 Z" style="clip-rule:evenodd"/></clipPath><clipPath id="clipPath88" clipPathUnits="userSpaceOnUse"><path id="path86" d="M 0,0 H 311.88 V 354.36 H 0 Z" style="clip-rule:evenodd"/></clipPath><clipPath id="clipPath98" clipPathUnits="userSpaceOnUse"><path id="path96" d="M 0,0 H 311.88 V 354.36 H 0 Z" style="clip-rule:evenodd"/></clipPath><clipPath id="clipPath112" clipPathUnits="userSpaceOnUse"><path id="path110" d="M 0,0 H 311.88 V 354.36 H 0 Z" style="clip-rule:evenodd"/></clipPath><clipPath id="clipPath122" clipPathUnits="userSpaceOnUse"><path id="path120" d="M 0,0 H 311.88 V 354.36 H 0 Z" style="clip-rule:evenodd"/></clipPath><clipPath id="clipPath136" clipPathUnits="userSpaceOnUse"><path id="path134" d="M -7e-8,354.36 H 311.88 V 9.155e-6 H -7e-8" style="clip-rule:evenodd"/></clipPath><clipPath id="clipPath170" clipPathUnits="userSpaceOnUse"><path id="path168" d="M -1.61e-7,354.36 H 311.88 V 6.104e-6 H -1.61e-7" style="clip-rule:evenodd"/></clipPath><clipPath id="clipPath188" clipPathUnits="userSpaceOnUse"><path id="path186" d="M -5.66e-7,354.36 H 311.88 V 3.052e-6 H -1.551e-6" style="clip-rule:evenodd"/></clipPath><clipPath id="clipPath216" clipPathUnits="userSpaceOnUse"><path id="path214" d="M -3.5e-8,354.36 H 311.88 V -3.052e-6 L -3.5e-8,0" style="clip-rule:evenodd"/></clipPath><clipPath id="clipPath226" clipPathUnits="userSpaceOnUse"><path id="path224" d="M -7.5e-7,354.36 H 311.88 V -3.052e-6 H -1.734e-6" style="clip-rule:evenodd"/></clipPath><clipPath id="clipPath248" clipPathUnits="userSpaceOnUse"><path id="path246" d="M -7.2e-8,354.36 H 311.88 V 0 H -7.2e-8" style="clip-rule:evenodd"/></clipPath><clipPath id="clipPath258" clipPathUnits="userSpaceOnUse"><path id="path256" d="M -7.92e-7,354.36 H 311.88 V 0 H -1.777e-6" style="clip-rule:evenodd"/></clipPath></defs><g id="g10" transform="matrix(1.3333333,0,0,-1.3333333,0,236.22045)"><g id="g12" transform="matrix(0.49988943,0,0,0.49995868,0,3.0522522e-6)"><g id="g14" clip-path="url(#clipPath18)"><path d="M 0,-0.015015 H 311.88 V 354.36498 H 0 Z" style="fill:#fff;fill-opacity:1;fill-rule:evenodd;stroke:none" id="path20"/></g></g><g id="g22" transform="matrix(0.49988943,0,0,0.49995868,0,3.0522522e-6)"><path d="m 2.502,34.909 c 0,3.653 2.9616,6.615 6.615,6.615 H 302.06 c 3.66,0 6.62,-2.962 6.62,-6.615 V 8.4497 c 0,-3.6534 -2.96,-6.615 -6.62,-6.615 H 9.117 c -3.6534,0 -6.615,2.9616 -6.615,6.615 z" style="fill:none;stroke:#7f7f7f;stroke-width:2;stroke-linecap:round;stroke-linejoin:round;stroke-miterlimit:10;stroke-dasharray:4,4;stroke-dashoffset:0;stroke-opacity:1" id="path24"/></g><path d="m 1.2507233,42.920956 c 0,1.826349 1.4804726,3.307226 3.3067686,3.307226 H 150.9966 c 1.8296,0 3.30927,-1.480877 3.30927,-3.307226 V 29.692049 c 0,-1.826349 -1.47967,-3.307227 -3.30927,-3.307227 H 4.5574919 c -1.826296,0 -3.3067686,1.480878 -3.3067686,3.307227 z" style="fill:#d9d9d9;fill-opacity:1;fill-rule:evenodd;stroke:none;stroke-width:.49992403" id="path36"/><g id="g38" transform="matrix(0.49988943,0,0,0.49995868,0,3.0522522e-6)"><path d="m 2.502,85.849 c 0,3.653 2.9616,6.615 6.615,6.615 H 302.06 c 3.66,0 6.62,-2.962 6.62,-6.615 v -26.46 c 0,-3.653 -2.96,-6.615 -6.62,-6.615 H 9.117 c -3.6534,0 -6.615,2.962 -6.615,6.615 z" style="fill:none;stroke:#7f7f7f;stroke-width:2;stroke-linecap:round;stroke-linejoin:round;stroke-miterlimit:10;stroke-dasharray:4,4;stroke-dashoffset:0;stroke-opacity:1" id="path40"/></g><path d="m 1.2507233,170.53091 c 0,3.04975 2.4711534,5.52454 5.5192792,5.52454 H 148.78709 c 3.04433,0 5.51878,-2.47479 5.51878,-5.52454 V 57.215274 c 0,-3.049748 -2.47445,-5.519544 -5.51878,-5.519544 H 6.7700025 c -3.0481258,0 -5.5192792,2.469796 -5.5192792,5.519544 z" style="fill:#d9d9d9;fill-opacity:1;fill-rule:evenodd;stroke:none;stroke-width:.49992403" id="path52"/><g id="g54" transform="matrix(0.49988943,0,0,0.49995868,0,3.0522522e-6)"><path d="m 2.502,341.09 c 0,6.1 4.9434,11.05 11.041,11.05 H 297.64 c 6.09,0 11.04,-4.95 11.04,-11.05 V 114.44 c 0,-6.1 -4.95,-11.04 -11.04,-11.04 H 13.543 c -6.0976,0 -11.041,4.94 -11.041,11.04 z" style="fill:none;stroke:#7f7f7f;stroke-width:2;stroke-linecap:round;stroke-linejoin:round;stroke-miterlimit:10;stroke-dasharray:4,4;stroke-dashoffset:0;stroke-opacity:1" id="path56"/></g><text transform="scale(0.99993074,-1.0000693)" style="font-style:italic;font-variant:normal;font-weight:400;font-size:7.01893377px;font-family:Calibri;-inkscape-font-specification:'Calibri Italic';writing-mode:lr-tb;fill:#7f7f7f;fill-opacity:1;fill-rule:nonzero;stroke:none;stroke-width:.49992403" id="text80" x="118.242" y="-10.654"><tspan id="tspan78" x="118.242 122.615 126.223 128.63 132.238 137.256 140.864 143.272" y="-10.654" style="stroke-width:.49992403">Hardware</tspan></text><text transform="scale(0.99993074,-1.0000693)" style="font-style:italic;font-variant:normal;font-weight:400;font-size:7.01893377px;font-family:Calibri;-inkscape-font-specification:'Calibri Italic';writing-mode:lr-tb;fill:#17375e;fill-opacity:1;fill-rule:nonzero;stroke:none;stroke-width:.49992403" id="text104" x="106.194" y="-35.743"><tspan id="tspan102" x="106.194 109.254 111.662 115.269 118.189 121.383 122.997 126.605 130.192 131.862 134.81 138.418 141.52 144.875" y="-35.743" style="stroke-width:.49992403">Tracking Layer</tspan></text><text transform="scale(0.99993074,-1.0000693)" style="font-style:italic;font-variant:normal;font-weight:400;font-size:7.01893377px;font-family:Calibri;-inkscape-font-specification:'Calibri Italic';writing-mode:lr-tb;fill:#4f6228;fill-opacity:1;fill-rule:nonzero;stroke:none;stroke-width:.49992403" id="text128" x="99.02" y="-165.265"><tspan id="tspan126" x="99.02 103.547 107.155 110.285 111.9 115.507 119.115 121.467 123.081 126.682 130.303 131.974 134.922 138.53 141.667 145.022" y="-165.265" style="stroke-width:.49992403">Navigation Layer</tspan></text><g id="g130" transform="matrix(0.49988943,0,0,0.49995868,0,3.0522522e-6)"><g id="g132" clip-path="url(#clipPath136)"><path d="M 98.253,64.024 98.128,30.274" style="fill:none;stroke:#000;stroke-width:1;stroke-linecap:round;stroke-linejoin:round;stroke-miterlimit:10;stroke-dasharray:none;stroke-opacity:1" id="path138"/></g></g><path d="m 7.174413,138.46856 c 0,5.83452 4.731954,10.56912 10.569662,10.56912 H 78.80257 c 5.833709,0 10.567662,-4.7346 10.567662,-10.56912 v 0 c 0,-5.83952 -4.733953,-10.57413 -10.567662,-10.57413 H 17.744075 c -5.837708,0 -10.569662,4.73461 -10.569662,10.57413 z" style="fill:#fff;fill-opacity:1;fill-rule:evenodd;stroke:none;stroke-width:.49992403" id="path140"/><path d="m 7.174413,138.46856 c 0,5.83452 4.731954,10.56912 10.569662,10.56912 H 78.80257 c 5.833709,0 10.567662,-4.7346 10.567662,-10.56912 v 0 c 0,-5.83952 -4.733953,-10.57413 -10.567662,-10.57413 H 17.744075 c -5.837708,0 -10.569662,4.73461 -10.569662,10.57413 z" style="fill:none;stroke:#7f7f7f;stroke-width:.49992403;stroke-linecap:round;stroke-linejoin:round;stroke-miterlimit:10;stroke-dasharray:none;stroke-opacity:1" id="path142"/><text transform="scale(0.99993074,-1.0000693)" style="font-variant:normal;font-weight:400;font-size:7.01893377px;font-family:Calibri;-inkscape-font-specification:Calibri;writing-mode:lr-tb;fill:#000;fill-opacity:1;fill-rule:nonzero;stroke:none;stroke-width:.49992403" id="text146" x="35.347" y="-140.679"><tspan id="tspan144" x="35.347 37.087 41.467 44.885 46.5 49.721 51.35 52.964 55.252 58.748" y="-140.679" style="stroke-width:.49992403">IGT Filter</tspan></text><text transform="scale(0.99993074,-1.0000693)" style="font-variant:normal;font-weight:400;font-size:5.5191617px;font-family:Calibri;-inkscape-font-specification:Calibri;writing-mode:lr-tb;fill:#000;fill-opacity:1;fill-rule:nonzero;stroke:none;stroke-width:.49992403" id="text150" x="23.168" y="-133.66"><tspan id="tspan148" x="23.168 24.841 27.021 28.39 31.392 32.783" y="-133.66" style="stroke-width:.49992403">(z.B.</tspan></text><text transform="scale(0.99993074,-1.0000693)" style="font-variant:normal;font-weight:400;font-size:5.5191617px;font-family:Calibri;-inkscape-font-specification:Calibri;writing-mode:lr-tb;fill:#000;fill-opacity:1;fill-rule:nonzero;stroke:none;stroke-width:.49992403" id="text154" x="34.027" y="-133.66"><tspan id="tspan152" x="34.027 35.876 38.823 41.759" y="-133.66" style="stroke-width:.49992403">tool</tspan></text><text transform="scale(0.99993074,-1.0000693)" style="font-variant:normal;font-weight:400;font-size:5.5191617px;font-family:Calibri;-inkscape-font-specification:Calibri;writing-mode:lr-tb;fill:#000;fill-opacity:1;fill-rule:nonzero;stroke:none;stroke-width:.49992403" id="text158" x="44.117" y="-133.66"><tspan id="tspan156" x="44.117 46.634 47.903 50.061 52.931 55.575 56.844 58.092 60.25 62.893 64.742 66.012 68.887" y="-133.66" style="stroke-width:.49992403">visualization</tspan></text><text transform="scale(0.99993074,-1.0000693)" style="font-variant:normal;font-weight:400;font-size:5.5191617px;font-family:Calibri;-inkscape-font-specification:Calibri;writing-mode:lr-tb;fill:#000;fill-opacity:1;fill-rule:nonzero;stroke:none;stroke-width:.49992403" id="text162" x="71.784" y="-133.66"><tspan id="tspan160" x="71.784" y="-133.66" style="stroke-width:.49992403">)</tspan></text><g id="g164" transform="matrix(0.49988943,0,0,0.49995868,0,3.0522522e-6)"><g id="g166" clip-path="url(#clipPath170)"><path d="m 55.666,333.98 -0.12,-34.31 c -0.002,-0.41 -0.339,-0.75 -0.753,-0.75 -0.414,0 -0.749,0.34 -0.747,0.76 v 0 l 0.12,34.31 c 0.001,0.41 0.338,0.75 0.752,0.75 0.415,-0.01 0.749,-0.34 0.748,-0.76 z m 3.297,-28.7 -4.172,-7.1 -4.123,7.13 c -0.208,0.36 -0.085,0.82 0.273,1.02 0.359,0.21 0.817,0.09 1.025,-0.27 l 3.479,-6.01 h -1.296 l 3.521,5.99 c 0.21,0.36 0.67,0.48 1.027,0.27 0.357,-0.21 0.476,-0.67 0.266,-1.03 z" style="fill:#7f7f7f;fill-opacity:1;fill-rule:nonzero;stroke:none" id="path172"/></g></g><path d="m 8.9565188,164.00145 c 0,3.5897 2.9103562,6.49946 6.5005622,6.49946 h 24.112667 c 3.590205,0 6.500562,-2.90976 6.500562,-6.49946 v 0 c 0,-3.5947 -2.910357,-6.50446 -6.500562,-6.50446 H 15.457081 c -3.590206,0 -6.5005622,2.90976 -6.5005622,6.50446 z" style="fill:#fff;fill-opacity:1;fill-rule:evenodd;stroke:none;stroke-width:.49992403" id="path174"/><path d="m 8.9565188,164.00145 c 0,3.5897 2.9103562,6.49946 6.5005622,6.49946 h 24.112667 c 3.590205,0 6.500562,-2.90976 6.500562,-6.49946 v 0 c 0,-3.5947 -2.910357,-6.50446 -6.500562,-6.50446 H 15.457081 c -3.590206,0 -6.5005622,2.90976 -6.5005622,6.50446 z" style="fill:none;stroke:#7f7f7f;stroke-width:.49992403;stroke-linecap:round;stroke-linejoin:round;stroke-miterlimit:10;stroke-dasharray:none;stroke-opacity:1" id="path176"/><text transform="scale(0.99993074,-1.0000693)" style="font-variant:normal;font-weight:400;font-size:7.01893377px;font-family:Calibri;-inkscape-font-specification:Calibri;writing-mode:lr-tb;fill:#7f7f7f;fill-opacity:1;fill-rule:nonzero;stroke:none;stroke-width:.49992403" id="text180" x="19.113" y="-161.985"><tspan id="tspan178" x="19.113 22.531 24.146 29.733 33.228" y="-161.985" style="stroke-width:.49992403">Timer</tspan></text><g id="g182" transform="matrix(0.49988943,0,0,0.49995868,0,3.0522522e-6)"><g id="g184" clip-path="url(#clipPath188)"><path d="m 96.628,68.149 v 33.371 h 3 V 68.149 Z m -3,31.871 4.5,9 4.502,-9 z" style="fill:#000;fill-opacity:1;fill-rule:nonzero;stroke:none" id="path190"/></g></g><path d="m 6.9194694,35.638557 c 0,3.646199 2.9553464,6.601955 6.6010396,6.601955 H 83.04663 c 3.649193,0 6.60354,-2.955756 6.60354,-6.601955 v 0 c 0,-3.646198 -2.954347,-6.601954 -6.60354,-6.601954 H 13.520509 c -3.6456932,0 -6.6010396,2.955756 -6.6010396,6.601954 z" style="fill:#fff;fill-opacity:1;fill-rule:evenodd;stroke:none;stroke-width:.49992403" id="path192"/><path d="m 6.9194694,35.638557 c 0,3.646199 2.9553464,6.601955 6.6010396,6.601955 H 83.04663 c 3.649193,0 6.60354,-2.955756 6.60354,-6.601955 v 0 c 0,-3.646198 -2.954347,-6.601954 -6.60354,-6.601954 H 13.520509 c -3.6456932,0 -6.6010396,2.955756 -6.6010396,6.601954 z" style="fill:none;stroke:#7f7f7f;stroke-width:.49992403;stroke-linecap:round;stroke-linejoin:round;stroke-miterlimit:10;stroke-dasharray:none;stroke-opacity:1" id="path194"/><text transform="scale(0.99993074,-1.0000693)" style="font-variant:normal;font-weight:400;font-size:7.03093195px;font-family:Calibri;-inkscape-font-specification:Calibri;writing-mode:lr-tb;fill:#000;fill-opacity:1;fill-rule:nonzero;stroke:none;stroke-width:.49992403" id="text198" x="18.957" y="-33.619"><tspan id="tspan196" x="18.957 20.694 25.074 28.498 30.108 33.11 35.452 38.82 41.751 44.95 46.568 50.21 53.521 55.068 59.392 62.809 65.987 67.604 70.55" y="-33.619" style="stroke-width:.49992403">IGT Tracking Device</tspan></text><path d="m 91.229821,150.12759 c 2.909357,0 5.263835,-0.54995 5.263835,-1.22989 v -45.21627 c 0,-0.67994 2.359478,-1.22989 5.263834,-1.22989 -2.904356,0 -5.263834,-0.54996 -5.263834,-1.2299 V 55.33043 c 0,-0.674944 -2.354478,-1.224899 -5.263835,-1.224899" style="fill:none;stroke:#000;stroke-width:.62490505;stroke-linecap:round;stroke-linejoin:round;stroke-miterlimit:10;stroke-dasharray:none;stroke-opacity:1" id="path200"/><text transform="scale(0.99993074,-1.0000693)" style="font-style:italic;font-variant:normal;font-weight:400;font-size:7.01893377px;font-family:Calibri;-inkscape-font-specification:'Calibri Italic';writing-mode:lr-tb;fill:#000;fill-opacity:1;fill-rule:nonzero;stroke:none;stroke-width:.49992403" id="text204" x="108.309" y="-100.055"><tspan id="tspan202" x="108.309 110.049 114.429 117.847 119.462 123.062 124.677 128.284 131.639 133.254 134.868 138.476" y="-100.055" style="stroke-width:.49992403">IGT Pipeline</tspan></text><path d="m 48.040874,117.96025 c 0,0.77494 0.62936,1.40489 1.406188,1.40489 0.776829,0 1.406689,-0.62995 1.406689,-1.40489 0,-0.77493 -0.62986,-1.40488 -1.406689,-1.40488 -0.776828,0 -1.406188,0.62995 -1.406188,1.40488 z" style="fill:#000;fill-opacity:1;fill-rule:evenodd;stroke:none;stroke-width:.49992403" id="path206"/><path d="m 45.228996,117.96025 c 0,2.32981 1.888582,4.21965 4.218066,4.21965 2.331485,0 4.216068,-1.88984 4.216068,-4.21965 0,-0.075 0,-0.14998 -0.005,-0.21998 l -1.354701,0.07 c 0.08499,1.57987 -1.12975,2.92475 -2.706401,3.00975 -1.579151,0.08 -2.925853,-1.12991 -3.008834,-2.70978 -0.0025,-0.05 -0.004,-0.1 -0.004,-0.14999 z" style="fill:#000;fill-opacity:1;fill-rule:evenodd;stroke:none;stroke-width:.49992403" id="path208"/><g id="g210" transform="matrix(0.49988943,0,0,0.49995868,0,3.0522522e-6)"><g id="g212" clip-path="url(#clipPath216)"><path d="m 100,217.55 -0.002,6.52 -3,-0.01 0.007,-6.51 z m 3,5.02 -4.509,8.99 -4.491,-9 z" style="fill:#000;fill-opacity:1;fill-rule:nonzero;stroke:none" id="path218"/></g></g><g id="g220" transform="matrix(0.49988943,0,0,0.49995868,0,3.0522522e-6)"><g id="g222" clip-path="url(#clipPath226)"><path d="m 97.364,243.44 0.096,5.04 3,-0.06 -0.1,-5.04 z m -2.932,3.6 4.671,8.91 4.327,-9.08 z" style="fill:#000;fill-opacity:1;fill-rule:nonzero;stroke:none" id="path228"/></g></g><path d="m 5.6892415,61.109952 c 0,3.644699 2.9553464,6.599455 6.6010395,6.599455 h 69.526622 c 3.649193,0 6.603538,-2.954756 6.603538,-6.599455 v 0 c 0,-3.644699 -2.954345,-6.604454 -6.603538,-6.604454 H 12.290281 c -3.6456931,0 -6.6010395,2.959755 -6.6010395,6.604454 z" style="fill:#fff;fill-opacity:1;fill-rule:evenodd;stroke:none;stroke-width:.49992403" id="path230"/><path d="m 5.6892415,61.109952 c 0,3.644699 2.9553464,6.599455 6.6010395,6.599455 h 69.526622 c 3.649193,0 6.603538,-2.954756 6.603538,-6.599455 v 0 c 0,-3.644699 -2.954345,-6.604454 -6.603538,-6.604454 H 12.290281 c -3.6456931,0 -6.6010395,2.959755 -6.6010395,6.604454 z" style="fill:none;stroke:#7f7f7f;stroke-width:.49992403;stroke-linecap:round;stroke-linejoin:round;stroke-miterlimit:10;stroke-dasharray:none;stroke-opacity:1" id="path232"/><text transform="scale(0.99993074,-1.0000693)" style="font-variant:normal;font-weight:400;font-size:7.03093195px;font-family:Calibri;-inkscape-font-specification:Calibri;writing-mode:lr-tb;fill:#000;fill-opacity:1;fill-rule:nonzero;stroke:none;stroke-width:.49992403" id="text236" x="17.001" y="-58.791"><tspan id="tspan234" x="17.001 20.004 22.345 25.713 28.645 31.844 33.461 37.103 40.414 44.738 48.141 51.319 52.937 55.882 59.363 62.59 66.316 69.972 72.314 75.253" y="-58.791" style="stroke-width:.49992403">TrackingDeviceSource</tspan></text><path d="m 47.703948,77.388607 c 0,0.774936 0.629861,1.404884 1.40619,1.404884 0.776328,0 1.403689,-0.629948 1.403689,-1.404884 0,-0.774936 -0.627361,-1.404884 -1.403689,-1.404884 -0.776329,0 -1.40619,0.629948 -1.40619,1.404884 z" style="fill:#000;fill-opacity:1;fill-rule:evenodd;stroke:none;stroke-width:.49992403" id="path238"/><path d="m 44.89207,77.388607 c 0,2.329807 1.888582,4.219651 4.218068,4.219651 2.328484,0 4.218066,-1.889844 4.218066,-4.219651 0,-0.07499 0,-0.149988 -0.005,-0.219982 l -1.354699,0.06999 c 0.08499,1.579869 -1.129751,2.924758 -2.708402,3.009751 -1.579151,0.07999 -2.925852,-1.129906 -3.008834,-2.709776 -0.0025,-0.05 -0.004,-0.09999 -0.004,-0.149987 z" style="fill:#000;fill-opacity:1;fill-rule:evenodd;stroke:none;stroke-width:.49992403" id="path240"/><g id="g242" transform="matrix(0.49988943,0,0,0.49995868,0,3.0522522e-6)"><g id="g244" clip-path="url(#clipPath248)"><path d="m 99.331,136.4 -0.007,6.52 -3,-0.01 0.007,-6.51 z m 2.999,5.02 -4.513,8.99 -4.491,-9 z" style="fill:#000;fill-opacity:1;fill-rule:nonzero;stroke:none" id="path250"/></g></g><g id="g252" transform="matrix(0.49988943,0,0,0.49995868,0,3.0522522e-6)"><g id="g254" clip-path="url(#clipPath258)"><path d="m 96.69,162.29 0.096,5.04 3,-0.06 -0.096,-5.03 z m -2.932,3.6 4.671,8.91 4.331,-9.08 z" style="fill:#000;fill-opacity:1;fill-rule:nonzero;stroke:none" id="path260"/></g></g><path d="m 6.523557,98.226884 c 0,5.839516 4.732454,10.569126 10.569662,10.569126 h 61.059494 c 5.83371,0 10.567662,-4.72961 10.567662,-10.569126 v 0 c 0,-5.839517 -4.733952,-10.574126 -10.567662,-10.574126 l -61.059494,0.005 c -5.837208,0 -10.569662,4.729609 -10.569662,10.569126 z" style="fill:#fff;fill-opacity:1;fill-rule:evenodd;stroke:none;stroke-width:.49992403" id="path262"/><path d="m 6.523557,98.226884 c 0,5.839516 4.732454,10.569126 10.569662,10.569126 h 61.059494 c 5.83371,0 10.567662,-4.72961 10.567662,-10.569126 v 0 c 0,-5.839517 -4.733952,-10.574126 -10.567662,-10.574126 l -61.059494,0.005 c -5.837208,0 -10.569662,4.729609 -10.569662,10.569126 z" style="fill:none;stroke:#7f7f7f;stroke-width:.49992403;stroke-linecap:round;stroke-linejoin:round;stroke-miterlimit:10;stroke-dasharray:none;stroke-opacity:1" id="path264"/><text transform="scale(0.99993074,-1.0000693)" style="font-variant:normal;font-weight:400;font-size:7.01893377px;font-family:Calibri;-inkscape-font-specification:Calibri;writing-mode:lr-tb;fill:#000;fill-opacity:1;fill-rule:nonzero;stroke:none;stroke-width:.49992403" id="text268" x="33.943" y="-99.885"><tspan id="tspan266" x="33.943 35.684 40.063 43.482 45.096 48.318 49.946 51.56 53.849 57.344" y="-99.885" style="stroke-width:.49992403">IGT Filter</tspan></text><text transform="scale(0.99993074,-1.0000693)" style="font-variant:normal;font-weight:400;font-size:5.53115988px;font-family:Calibri;-inkscape-font-specification:Calibri;writing-mode:lr-tb;fill:#000;fill-opacity:1;fill-rule:nonzero;stroke:none;stroke-width:.49992403" id="text272" x="13.546" y="-92.856"><tspan id="tspan270" x="13.546 15.222 17.385 18.778 21.765 23.159" y="-92.856" style="stroke-width:.49992403">(z.B.</tspan></text><text transform="scale(0.99993074,-1.0000693)" style="font-variant:normal;font-weight:400;font-size:5.53115988px;font-family:Calibri;-inkscape-font-specification:Calibri;writing-mode:lr-tb;fill:#000;fill-opacity:1;fill-rule:nonzero;stroke:none;stroke-width:.49992403" id="text276" x="24.404" y="-92.856"><tspan id="tspan274" x="24.404 26.257 28.188 30.837 33.177 35.693 36.943 39.825" y="-92.856" style="stroke-width:.49992403">tracking</tspan></text><text transform="scale(0.99993074,-1.0000693)" style="font-variant:normal;font-weight:400;font-size:5.53115988px;font-family:Calibri;-inkscape-font-specification:Calibri;writing-mode:lr-tb;fill:#000;fill-opacity:1;fill-rule:nonzero;stroke:none;stroke-width:.49992403" id="text280" x="43.541" y="-92.856"><tspan id="tspan278" x="43.541 46.423 49.073 50.925" y="-92.856" style="stroke-width:.49992403">data</tspan></text><text transform="scale(0.99993074,-1.0000693)" style="font-variant:normal;font-weight:400;font-size:5.53115988px;font-family:Calibri;-inkscape-font-specification:Calibri;writing-mode:lr-tb;fill:#000;fill-opacity:1;fill-rule:nonzero;stroke:none;stroke-width:.49992403" id="text284" x="54.712" y="-92.856"><tspan id="tspan282" x="54.712 56.874 61.305 64.236 67.168 68.965 71.847 73.119 75.985" y="-92.856" style="stroke-width:.49992403">smoothing</tspan></text><text transform="scale(0.99993074,-1.0000693)" style="font-variant:normal;font-weight:400;font-size:5.53115988px;font-family:Calibri;-inkscape-font-specification:Calibri;writing-mode:lr-tb;fill:#000;fill-opacity:1;fill-rule:nonzero;stroke:none;stroke-width:.49992403" id="text288" x="78.528" y="-92.856"><tspan id="tspan286" x="78.528" y="-92.856" style="stroke-width:.49992403">)</tspan></text><path d="M 7.4538513,18.108506 H 88.765365 V 7.6293725 c -40.654507,0 -40.654507,-3.99302 -81.3115137,-1.7243575 z" style="fill:#fff;fill-opacity:1;fill-rule:evenodd;stroke:none;stroke-width:.49992403" id="path290"/><path d="M 7.4538513,18.108506 H 88.765365 V 7.6293725 c -40.654507,0 -40.654507,-3.99302 -81.3115137,-1.7243575 z" style="fill:none;stroke:#7f7f7f;stroke-width:.49992403;stroke-linecap:round;stroke-linejoin:round;stroke-miterlimit:10;stroke-dasharray:none;stroke-opacity:1" id="path292"/><text transform="scale(0.99993074,-1.0000693)" style="font-variant:normal;font-weight:400;font-size:7.01893377px;font-family:Calibri;-inkscape-font-specification:Calibri;writing-mode:lr-tb;fill:#000;fill-opacity:1;fill-rule:nonzero;stroke:none;stroke-width:.49992403" id="text296" x="11.062" y="-10.654"><tspan id="tspan294" x="11.062 14.059 16.397 19.759 22.693 25.886 27.501 31.151 34.456 36.008 40.324 43.749 46.922 48.536 51.505 54.966 56.636 61.009 64.371 66.715 70.372 75.349 78.711 81.048" y="-10.654" style="stroke-width:.49992403">Tracking Device Hardware</tspan></text></g></svg>