<svg xmlns="http://www.w3.org/2000/svg" xmlns:svg="http://www.w3.org/2000/svg" id="svg2" width="4.75cm" height="1.75cm" version="1.1" viewBox="0 0 179.528 66.142" xml:space="preserve"><metadata id="metadata8"/><defs id="defs6"><clipPath id="clipPath18" clipPathUnits="userSpaceOnUse"><path id="path16" d="M 0,4.578e-6 H 538.68 V 198.48 H 0 Z" style="clip-rule:evenodd"/></clipPath><clipPath id="clipPath28" clipPathUnits="userSpaceOnUse"><path id="path26" d="M -1.122e-6,198.48 H 538.68 V 4.578e-6 H -1.122e-6" style="clip-rule:evenodd"/></clipPath><clipPath id="clipPath38" clipPathUnits="userSpaceOnUse"><path id="path36" d="M -4.7e-8,198.48 H 538.68 V 3.052e-6 H -4.7e-8" style="clip-rule:evenodd"/></clipPath><clipPath id="clipPath52" clipPathUnits="userSpaceOnUse"><path id="path50" d="m 77.588,181.04 c -41.939,0 -75.9376,-10.07 -75.9376,-22.5 0,-12.42 33.9986,-22.5 75.9376,-22.5 41.942,0 75.942,10.08 75.942,22.5 0,12.43 -34,22.5 -75.942,22.5 z M 0,198.48 H 538.68 V 1.526e-6 H 0 Z" style="clip-rule:evenodd"/></clipPath><clipPath id="clipPath62" clipPathUnits="userSpaceOnUse"><path id="path60" d="m 77.588,181.04 c -41.939,0 -75.9376,-10.07 -75.9376,-22.5 0,-12.42 33.9986,-22.5 75.9376,-22.5 41.942,0 75.942,10.08 75.942,22.5 0,12.43 -34,22.5 -75.942,22.5 z M 0,198.48 H 538.68 V 1.526e-6 H 0 Z" style="clip-rule:evenodd"/></clipPath><clipPath id="clipPath76" clipPathUnits="userSpaceOnUse"><path id="path74" d="M 0,0 H 538.68 V 198.48 H 0 Z" style="clip-rule:evenodd"/></clipPath><clipPath id="clipPath88" clipPathUnits="userSpaceOnUse"><path id="path86" d="M 0,0 H 538.68 V 198.48 H 0 Z" style="clip-rule:evenodd"/></clipPath><clipPath id="clipPath96" clipPathUnits="userSpaceOnUse"><path id="path94" d="M 0,0 H 538.68 V 198.48 H 0 Z" style="clip-rule:evenodd"/></clipPath><clipPath id="clipPath108" clipPathUnits="userSpaceOnUse"><path id="path106" d="M 0,0 H 538.68 V 198.48 H 0 Z" style="clip-rule:evenodd"/></clipPath><clipPath id="clipPath116" clipPathUnits="userSpaceOnUse"><path id="path114" d="m 268.84,181.04 c -41.94,0 -75.94,-10.07 -75.94,-22.5 0,-12.42 34,-22.5 75.94,-22.5 41.94,0 75.94,10.08 75.94,22.5 0,12.43 -34,22.5 -75.94,22.5 z M 0,198.48 H 538.68 V 1.526e-6 H 0 Z" style="clip-rule:evenodd"/></clipPath><clipPath id="clipPath126" clipPathUnits="userSpaceOnUse"><path id="path124" d="m 268.84,181.04 c -41.94,0 -75.94,-10.07 -75.94,-22.5 0,-12.42 34,-22.5 75.94,-22.5 41.94,0 75.94,10.08 75.94,22.5 0,12.43 -34,22.5 -75.94,22.5 z M 0,198.48 H 538.68 V 1.526e-6 H 0 Z" style="clip-rule:evenodd"/></clipPath><clipPath id="clipPath140" clipPathUnits="userSpaceOnUse"><path id="path138" d="M 0,0 H 538.68 V 198.48 H 0 Z" style="clip-rule:evenodd"/></clipPath><clipPath id="clipPath152" clipPathUnits="userSpaceOnUse"><path id="path150" d="M 0,0 H 538.68 V 198.48 H 0 Z" style="clip-rule:evenodd"/></clipPath><clipPath id="clipPath160" clipPathUnits="userSpaceOnUse"><path id="path158" d="m 460.09,181.04 c -41.94,0 -75.94,-10.07 -75.94,-22.5 0,-12.42 34,-22.5 75.94,-22.5 41.94,0 75.94,10.08 75.94,22.5 0,12.43 -34,22.5 -75.94,22.5 z M 0,198.48 H 538.68 V 1.526e-6 H 0 Z" style="clip-rule:evenodd"/></clipPath><clipPath id="clipPath170" clipPathUnits="userSpaceOnUse"><path id="path168" d="m 460.09,181.04 c -41.94,0 -75.94,-10.07 -75.94,-22.5 0,-12.42 34,-22.5 75.94,-22.5 41.94,0 75.94,10.08 75.94,22.5 0,12.43 -34,22.5 -75.94,22.5 z M 0,198.48 H 538.68 V 1.526e-6 H 0 Z" style="clip-rule:evenodd"/></clipPath><clipPath id="clipPath184" clipPathUnits="userSpaceOnUse"><path id="path182" d="M 0,0 H 538.68 V 198.48 H 0 Z" style="clip-rule:evenodd"/></clipPath><clipPath id="clipPath196" clipPathUnits="userSpaceOnUse"><path id="path194" d="M 0,0 H 538.68 V 198.48 H 0 Z" style="clip-rule:evenodd"/></clipPath><clipPath id="clipPath204" clipPathUnits="userSpaceOnUse"><path id="path202" d="M 1.644e-6,198.48 H 538.68 V 3.052e-6 H 1.644e-6" style="clip-rule:evenodd"/></clipPath><clipPath id="clipPath214" clipPathUnits="userSpaceOnUse"><path id="path212" d="M -1.35e-7,198.48 H 538.68 V 3.052e-6 H -1.35e-7" style="clip-rule:evenodd"/></clipPath><clipPath id="clipPath228" clipPathUnits="userSpaceOnUse"><path id="path226" d="M 0,0 H 538.68 V 198.48 H 0 Z" style="clip-rule:evenodd"/></clipPath><clipPath id="clipPath240" clipPathUnits="userSpaceOnUse"><path id="path238" d="M 0,0 H 538.68 V 198.48 H 0 Z" style="clip-rule:evenodd"/></clipPath><clipPath id="clipPath248" clipPathUnits="userSpaceOnUse"><path id="path246" d="M 0,0 H 538.68 V 198.48 H 0 Z" style="clip-rule:evenodd"/></clipPath><clipPath id="clipPath260" clipPathUnits="userSpaceOnUse"><path id="path258" d="M 0,0 H 538.68 V 198.48 H 0 Z" style="clip-rule:evenodd"/></clipPath><clipPath id="clipPath268" clipPathUnits="userSpaceOnUse"><path id="path266" d="M -4.76e-7,198.48 H 538.68 V 4.578e-6 H -4.76e-7" style="clip-rule:evenodd"/></clipPath><clipPath id="clipPath278" clipPathUnits="userSpaceOnUse"><path id="path276" d="M -7.53e-7,198.48 H 538.68 V 4.578e-6 H -7.53e-7" style="clip-rule:evenodd"/></clipPath><clipPath id="clipPath288" clipPathUnits="userSpaceOnUse"><path id="path286" d="M 5.46e-7,198.48 H 538.68 V 4.578e-6 H 5.46e-7" style="clip-rule:evenodd"/></clipPath><clipPath id="clipPath306" clipPathUnits="userSpaceOnUse"><path id="path304" d="M 0,0 H 538.68 V 198.48 H 0 Z" style="clip-rule:evenodd"/></clipPath><clipPath id="clipPath318" clipPathUnits="userSpaceOnUse"><path id="path316" d="M 0,0 H 538.68 V 198.48 H 0 Z" style="clip-rule:evenodd"/></clipPath><clipPath id="clipPath326" clipPathUnits="userSpaceOnUse"><path id="path324" d="M 0,0 H 538.68 V 198.48 H 0 Z" style="clip-rule:evenodd"/></clipPath><clipPath id="clipPath338" clipPathUnits="userSpaceOnUse"><path id="path336" d="M 0,0 H 538.68 V 198.48 H 0 Z" style="clip-rule:evenodd"/></clipPath><clipPath id="clipPath346" clipPathUnits="userSpaceOnUse"><path id="path344" d="M 0,0 H 538.68 V 198.48 H 0 Z" style="clip-rule:evenodd"/></clipPath><clipPath id="clipPath358" clipPathUnits="userSpaceOnUse"><path id="path356" d="M 0,0 H 538.68 V 198.48 H 0 Z" style="clip-rule:evenodd"/></clipPath><clipPath id="clipPath366" clipPathUnits="userSpaceOnUse"><path id="path364" d="M 0,0 H 538.68 V 198.48 H 0 Z" style="clip-rule:evenodd"/></clipPath><clipPath id="clipPath378" clipPathUnits="userSpaceOnUse"><path id="path376" d="M 0,0 H 538.68 V 198.48 H 0 Z" style="clip-rule:evenodd"/></clipPath><clipPath id="clipPath390" clipPathUnits="userSpaceOnUse"><path id="path388" d="M 0,0 H 538.68 V 198.48 H 0 Z" style="clip-rule:evenodd"/></clipPath><clipPath id="clipPath398" clipPathUnits="userSpaceOnUse"><path id="path396" d="M 0,0 H 538.68 V 198.48 H 0 Z" style="clip-rule:evenodd"/></clipPath><clipPath id="clipPath410" clipPathUnits="userSpaceOnUse"><path id="path408" d="M 0,0 H 538.68 V 198.48 H 0 Z" style="clip-rule:evenodd"/></clipPath><clipPath id="clipPath422" clipPathUnits="userSpaceOnUse"><path id="path420" d="M 0,0 H 538.68 V 198.48 H 0 Z" style="clip-rule:evenodd"/></clipPath><clipPath id="clipPath430" clipPathUnits="userSpaceOnUse"><path id="path428" d="M 0,0 H 538.68 V 198.48 H 0 Z" style="clip-rule:evenodd"/></clipPath><clipPath id="clipPath442" clipPathUnits="userSpaceOnUse"><path id="path440" d="M 0,0 H 538.68 V 198.48 H 0 Z" style="clip-rule:evenodd"/></clipPath><clipPath id="clipPath454" clipPathUnits="userSpaceOnUse"><path id="path452" d="M 0,0 H 538.68 V 198.48 H 0 Z" style="clip-rule:evenodd"/></clipPath></defs><g id="g10" transform="matrix(1.3333333,0,0,-1.3333333,0,66.142194)"><g id="g12" transform="matrix(0.24997804,0,0,0.24993098,0,3.433816e-6)"><g id="g14" clip-path="url(#clipPath18)"><path d="M 0,-0.019989 H 538.63 V 198.48001 H 0 Z" style="fill:#fff;fill-opacity:1;fill-rule:evenodd;stroke:none" id="path20"/></g></g><g id="g22" transform="matrix(0.24997804,0,0,0.24993098,0,3.433816e-6)"><g id="g24" clip-path="url(#clipPath28)"><path d="m 172.57,161.78 c 1.55,0 2.81,-1.26 2.81,-2.82 0,-1.55 -1.26,-2.81 -2.81,-2.81 -1.55,0 -2.81,1.26 -2.81,2.81 0,1.56 1.26,2.82 2.81,2.82 z" style="fill:#000;fill-opacity:1;fill-rule:evenodd;stroke:none" id="path30"/></g></g><g id="g32" transform="matrix(0.24997804,0,0,0.24993098,0,3.433816e-6)"><g id="g34" clip-path="url(#clipPath38)"><path d="m 172.57,167.4 c 4.66,0 8.44,-3.78 8.44,-8.44 0,-4.66 -3.78,-8.43 -8.44,-8.43 -0.15,0 -0.3,0 -0.44,0.01 l 0.14,2.7 c 3.16,-0.16 5.85,2.26 6.02,5.42 0.16,3.16 -2.26,5.86 -5.42,6.02 -0.1,0.01 -0.2,0.01 -0.3,0.01 z" style="fill:#000;fill-opacity:1;fill-rule:evenodd;stroke:none" id="path40"/></g></g><path d="m 38.541614,39.456608 1.629857,0.0025 -0.0025,0.749793 -1.627358,-0.0025 z m 1.25489,-0.747294 2.247303,1.127189 -2.249803,1.12219 z" style="fill:#000;fill-opacity:1;fill-rule:nonzero;stroke:none;stroke-width:.24995451" id="path42"/><path d="m 45.013546,40.116426 1.259889,-0.02249 -0.015,-0.749793 -1.25989,0.02499 z m 0.899921,0.734797 2.227304,-1.167178 -2.2698,-1.082201 z" style="fill:#000;fill-opacity:1;fill-rule:nonzero;stroke:none;stroke-width:.24995451" id="path44"/><path d="m 0.41256376,39.624062 c 0,3.106642 8.49890344,5.623447 18.98273224,5.623447 10.484579,0 18.983833,-2.516805 18.983833,-5.623447 0,-3.104143 -8.499254,-5.623448 -18.983833,-5.623448 -10.4838288,0 -18.98273224,2.519305 -18.98273224,5.623448 z" style="fill:#fff;fill-opacity:1;fill-rule:evenodd;stroke:none;stroke-width:.24995451" id="path66"/><path d="m 0.41256376,39.624062 c 0,3.106642 8.49890344,5.623447 18.98273224,5.623447 10.484579,0 18.983833,-2.516805 18.983833,-5.623447 0,-3.104143 -8.499254,-5.623448 -18.983833,-5.623448 -10.4838288,0 -18.98273224,2.519305 -18.98273224,5.623448 z" style="fill:none;stroke:#000;stroke-width:.49990901;stroke-linecap:round;stroke-linejoin:round;stroke-miterlimit:10;stroke-dasharray:none;stroke-opacity:1" id="path68"/><g id="g70" transform="matrix(0.24997804,0,0,0.24993098,0,3.433816e-6)"><g id="g72" clip-path="url(#clipPath76)"><text transform="matrix(1,0,0,-1,47.112,162.24)" style="font-variant:normal;font-weight:400;font-size:14.03999996px;font-family:Calibri;-inkscape-font-specification:Calibri;writing-mode:lr-tb;fill:#000;fill-opacity:1;fill-rule:nonzero;stroke:none" id="text80"><tspan id="tspan78" x="0 9.112 15.598 21.945 25.174 31.562 38.161 42.864 46.093 53.492" y="0">Navigation</tspan></text></g></g><g id="g90" transform="matrix(0.24997804,0,0,0.24993098,0,3.433816e-6)"><g id="g92" clip-path="url(#clipPath96)"><text transform="matrix(1,0,0,-1,44.952,145.44)" style="font-variant:normal;font-weight:400;font-size:14.03999996px;font-family:Calibri;-inkscape-font-specification:Calibri;writing-mode:lr-tb;fill:#000;fill-opacity:1;fill-rule:nonzero;stroke:none" id="text100"><tspan id="tspan98" x="0 8.635 15.233 19.796 26.522 32.966 40.421 47.736 52.411 58.294" y="0">DataSource</tspan></text></g></g><path d="m 48.220764,39.624062 c 0,3.106642 8.499254,5.623447 18.983333,5.623447 10.484079,0 18.983332,-2.516805 18.983332,-5.623447 0,-3.104143 -8.499253,-5.623448 -18.983332,-5.623448 -10.484079,0 -18.983333,2.519305 -18.983333,5.623448 z" style="fill:#fff;fill-opacity:1;fill-rule:evenodd;stroke:none;stroke-width:.24995451" id="path130"/><path d="m 48.220764,39.624062 c 0,3.106642 8.499254,5.623447 18.983333,5.623447 10.484079,0 18.983332,-2.516805 18.983332,-5.623447 0,-3.104143 -8.499253,-5.623448 -18.983332,-5.623448 -10.484079,0 -18.983333,2.519305 -18.983333,5.623448 z" style="fill:none;stroke:#000;stroke-width:.49990901;stroke-linecap:round;stroke-linejoin:round;stroke-miterlimit:10;stroke-dasharray:none;stroke-opacity:1" id="path132"/><g id="g134" transform="matrix(0.24997804,0,0,0.24993098,0,3.433816e-6)"><g id="g136" clip-path="url(#clipPath140)"><text transform="matrix(1,0,0,-1,249.1,153.84)" style="font-variant:normal;font-weight:400;font-size:14.03999996px;font-family:Calibri;-inkscape-font-specification:Calibri;writing-mode:lr-tb;fill:#000;fill-opacity:1;fill-rule:nonzero;stroke:none" id="text144"><tspan id="tspan142" x="0 6.444 9.702 12.931 17.508 24.5 29.4 32.503" y="0">Filter 1</tspan></text></g></g><path d="m 96.029065,39.624062 c 0,3.106642 8.499255,5.623447 18.983335,5.623447 10.48408,0 18.98333,-2.516805 18.98333,-5.623447 0,-3.104143 -8.49925,-5.623448 -18.98333,-5.623448 -10.48408,0 -18.983335,2.519305 -18.983335,5.623448 z" style="fill:#fff;fill-opacity:1;fill-rule:evenodd;stroke:none;stroke-width:.24995451" id="path174"/><path d="m 96.029065,39.624062 c 0,3.106642 8.499255,5.623447 18.983335,5.623447 10.48408,0 18.98333,-2.516805 18.98333,-5.623447 0,-3.104143 -8.49925,-5.623448 -18.98333,-5.623448 -10.48408,0 -18.983335,2.519305 -18.983335,5.623448 z" style="fill:none;stroke:#000;stroke-width:.49990901;stroke-linecap:round;stroke-linejoin:round;stroke-miterlimit:10;stroke-dasharray:none;stroke-opacity:1" id="path176"/><g id="g178" transform="matrix(0.24997804,0,0,0.24993098,0,3.433816e-6)"><g id="g180" clip-path="url(#clipPath184)"><text transform="matrix(1,0,0,-1,440.4,153.84)" style="font-variant:normal;font-weight:400;font-size:14.03999996px;font-family:Calibri;-inkscape-font-specification:Calibri;writing-mode:lr-tb;fill:#000;fill-opacity:1;fill-rule:nonzero;stroke:none" id="text188"><tspan id="tspan186" x="0 6.444 9.702 12.931 17.508 24.5 29.4 32.503" y="0">Filter 2</tspan></text></g></g><g id="g198" transform="matrix(0.24997804,0,0,0.24993098,0,3.433816e-6)"><g id="g200" clip-path="url(#clipPath204)"><path d="m 363.71,161.66 c 1.56,0 2.82,-1.26 2.82,-2.82 0,-1.55 -1.26,-2.81 -2.82,-2.81 -1.55,0 -2.81,1.26 -2.81,2.81 0,1.56 1.26,2.82 2.81,2.82 z" style="fill:#000;fill-opacity:1;fill-rule:evenodd;stroke:none" id="path206"/></g></g><g id="g208" transform="matrix(0.24997804,0,0,0.24993098,0,3.433816e-6)"><g id="g210" clip-path="url(#clipPath214)"><path d="m 363.71,167.28 c 4.66,0 8.44,-3.78 8.44,-8.44 0,-4.66 -3.78,-8.43 -8.44,-8.43 -0.14,0 -0.29,0 -0.44,0.01 l 0.14,2.7 c 3.16,-0.16 5.86,2.26 6.02,5.42 0.17,3.16 -2.26,5.86 -5.42,6.02 -0.1,0.01 -0.2,0.01 -0.3,0.01 z" style="fill:#000;fill-opacity:1;fill-rule:evenodd;stroke:none" id="path216"/></g></g><path d="m 86.324917,39.426616 1.627357,0.0025 v 0.749793 l -1.629857,-0.0025 z m 1.25239,-0.747294 2.249803,1.127189 -2.252303,1.12219 z" style="fill:#000;fill-opacity:1;fill-rule:nonzero;stroke:none;stroke-width:.24995451" id="path218"/><path d="m 92.796849,40.086434 1.259889,-0.02249 -0.015,-0.749793 -1.259889,0.02499 z m 0.897421,0.734797 2.229804,-1.167178 -2.2723,-1.082201 z" style="fill:#000;fill-opacity:1;fill-rule:nonzero;stroke:none;stroke-width:.24995451" id="path220"/><g id="g222" transform="matrix(0.24997804,0,0,0.24993098,0,3.433816e-6)"><g id="g224" clip-path="url(#clipPath228)"><text transform="matrix(1,0,0,-1,138.26,178.37)" style="font-variant:normal;font-weight:400;font-size:11.03999996px;font-family:Calibri;-inkscape-font-specification:Calibri;writing-mode:lr-tb;fill:#000;fill-opacity:1;fill-rule:nonzero;stroke:none" id="text232"><tspan id="tspan230" x="0 7.077 12.365 17.388 19.927 25.072 30.36 34.058 36.598 42.46 48.223 54.946 60.234 63.822" y="0">NavigationData</tspan></text></g></g><g id="g242" transform="matrix(0.24997804,0,0,0.24993098,0,3.433816e-6)"><g id="g244" clip-path="url(#clipPath248)"><text transform="matrix(1,0,0,-1,329.57,178.37)" style="font-variant:normal;font-weight:400;font-size:11.03999996px;font-family:Calibri;-inkscape-font-specification:Calibri;writing-mode:lr-tb;fill:#000;fill-opacity:1;fill-rule:nonzero;stroke:none" id="text252"><tspan id="tspan250" x="0 7.077 12.365 17.388 19.927 25.072 30.36 34.058 36.598 42.46 48.223 54.946 60.234 63.822" y="0">NavigationData</tspan></text></g></g><g id="g262" transform="matrix(0.24997804,0,0,0.24993098,0,3.433816e-6)"><g id="g264" clip-path="url(#clipPath268)"><path d="M 271.78,136.04 271.65,6.6675" style="fill:none;stroke:#000;stroke-width:1.75;stroke-linecap:round;stroke-linejoin:round;stroke-miterlimit:10;stroke-dasharray:0,3.5;stroke-dashoffset:0;stroke-opacity:1" id="path270"/></g></g><g id="g272" transform="matrix(0.24997804,0,0,0.24993098,0,3.433816e-6)"><g id="g274" clip-path="url(#clipPath278)"><path d="M 74.901,136.04 74.776,6.6676" style="fill:none;stroke:#000;stroke-width:1.75;stroke-linecap:round;stroke-linejoin:round;stroke-miterlimit:10;stroke-dasharray:0,3.5;stroke-dashoffset:0;stroke-opacity:1" id="path280"/></g></g><g id="g282" transform="matrix(0.24997804,0,0,0.24993098,0,3.433816e-6)"><g id="g284" clip-path="url(#clipPath288)"><path d="M 463.03,136.04 462.9,6.6675" style="fill:none;stroke:#000;stroke-width:1.75;stroke-linecap:round;stroke-linejoin:round;stroke-miterlimit:10;stroke-dasharray:0,3.5;stroke-dashoffset:0;stroke-opacity:1" id="path290"/></g></g><path d="m 67.906535,22.660746 -49.029193,0.03124 c -0.05175,0 -0.09374,0.04199 -0.09349,0.09372 0,0.05174 0.042,0.09372 0.09374,0.09372 l 49.028943,-0.03124 c 0.05249,0 0.09499,-0.04199 0.09499,-0.09372 0,-0.05174 -0.0425,-0.09372 -0.09499,-0.09372 z m -47.576571,-0.83177 -1.638106,0.956735 1.639356,0.954737 c 0.04475,0.02599 0.101991,0.011 0.128239,-0.03374 0.026,-0.04474 0.01075,-0.102222 -0.034,-0.128215 l -1.500368,-0.873758 2.5e-4,0.161955 1.499118,-0.875758 c 0.04475,-0.02624 0.05974,-0.08348 0.03375,-0.128215 -0.02625,-0.04474 -0.08349,-0.05973 -0.128239,-0.03374 z" style="fill:#000;fill-opacity:1;fill-rule:nonzero;stroke:none;stroke-width:.24995451" id="path292"/><path d="m 115.71484,28.252202 -47.623321,0.03249 c -0.0525,0 -0.09249,0.04249 -0.09249,0.09247 0,0.05249 0.04,0.09497 0.09249,0.09497 l 47.623321,-0.03249 c 0.0525,0 0.095,-0.03999 0.095,-0.09247 0,-0.05249 -0.0425,-0.09497 -0.095,-0.09497 z m -46.170949,-0.829771 -1.637356,0.954736 1.639856,0.954737 c 0.045,0.02749 0.102491,0.0125 0.127489,-0.03249 0.0275,-0.04499 0.01,-0.102472 -0.0325,-0.129964 l -1.502368,-0.87226 v 0.162456 l 1.499868,-0.877258 c 0.045,-0.02499 0.05999,-0.08248 0.035,-0.127465 -0.0275,-0.04499 -0.08499,-0.05998 -0.129989,-0.03249 z" style="fill:#000;fill-opacity:1;fill-rule:nonzero;stroke:none;stroke-width:.24995451" id="path294"/><path d="m 18.692608,12.632265 49.028943,0.186699 c 0.0525,2.5e-4 0.09499,0.04224 0.09499,0.09397 -0.0025,0.05199 -0.0425,0.09372 -0.09499,0.09347 v 0 L 18.691858,12.819713 c -0.05175,-2.5e-4 -0.09349,-0.04224 -0.09324,-0.09422 2.5e-4,-0.05173 0.04225,-0.09347 0.09399,-0.09322 z m 47.579071,-0.680812 1.634856,0.961984 -1.642356,0.949488 c -0.045,0.02574 -0.09999,0.0105 -0.127488,-0.03424 -0.025,-0.04474 -0.01,-0.102222 0.035,-0.128215 l 1.502368,-0.86901 v 0.161955 l -1.497368,-0.880506 c -0.045,-0.02624 -0.06,-0.08373 -0.0325,-0.128215 0.025,-0.04474 0.08249,-0.05948 0.127488,-0.03324 z" style="fill:#000;fill-opacity:1;fill-rule:nonzero;stroke:none;stroke-width:.24995451" id="path296"/><path d="m 67.906535,7.3837145 47.625815,-0.031241 c 0.05,0 0.0925,-0.041988 0.0925,-0.093724 0,-0.051736 -0.0425,-0.093724 -0.095,-0.093724 l -47.623315,0.031241 c -0.0525,0 -0.09249,0.041988 -0.09249,0.093724 0,0.051736 0.0425,0.093724 0.09249,0.093724 z m 46.170945,0.8317703 1.63986,-0.9567358 -1.63986,-0.9547364 c -0.045,-0.025993 -0.10249,-0.010997 -0.12999,0.033741 -0.025,0.044738 -0.01,0.1022218 0.035,0.1282146 l 1.49987,0.8737587 V 7.1777713 l -1.49987,0.8757582 c -0.0425,0.026243 -0.06,0.083477 -0.0325,0.1282146 0.025,0.044738 0.0825,0.059734 0.12749,0.033741 z" style="fill:#000;fill-opacity:1;fill-rule:nonzero;stroke:none;stroke-width:.24995451" id="path298"/><g id="g300" transform="matrix(0.24997804,0,0,0.24993098,0,3.433816e-6)"><g id="g302" clip-path="url(#clipPath306)"><text transform="matrix(1,0,0,-1,151.22,80.784)" style="font-variant:normal;font-weight:400;font-size:11.03999996px;font-family:Calibri;-inkscape-font-specification:Calibri;writing-mode:lr-tb;fill:#000;fill-opacity:1;fill-rule:nonzero;stroke:none" id="text310"><tspan id="tspan308" x="0 7.088 12.84 18.602 23.891 27.589 33.109 36.454" y="0">Update()</tspan></text></g></g><g id="g320" transform="matrix(0.24997804,0,0,0.24993098,0,3.433816e-6)"><g id="g322" clip-path="url(#clipPath326)"><text transform="matrix(1,0,0,-1,346.44,103.3)" style="font-variant:normal;font-weight:400;font-size:11.03999996px;font-family:Calibri;-inkscape-font-specification:Calibri;writing-mode:lr-tb;fill:#000;fill-opacity:1;fill-rule:nonzero;stroke:none" id="text330"><tspan id="tspan328" x="0 7.088 12.84 18.602 23.891 27.589 33.109 36.454" y="0">Update()</tspan></text></g></g><g id="g340" transform="matrix(0.24997804,0,0,0.24993098,0,3.433816e-6)"><g id="g342" clip-path="url(#clipPath346)"><text transform="matrix(1,0,0,-1,467.21,122.09)" style="font-variant:normal;font-weight:400;font-size:11.03999996px;font-family:Calibri;-inkscape-font-specification:Calibri;writing-mode:lr-tb;fill:#000;fill-opacity:1;fill-rule:nonzero;stroke:none" id="text350"><tspan id="tspan348" x="0 7.088 12.884 18.624 23.913 27.611 33.131 36.476" y="0">Update()</tspan></text></g></g><g id="g360" transform="matrix(0.24997804,0,0,0.24993098,0,3.433816e-6)"><g id="g362" clip-path="url(#clipPath366)"><text transform="matrix(1,0,0,-1,138.26,54.552)" style="font-variant:normal;font-weight:400;font-size:11.03999996px;font-family:Calibri;-inkscape-font-specification:Calibri;writing-mode:lr-tb;fill:#000;fill-opacity:1;fill-rule:nonzero;stroke:none" id="text370"><tspan id="tspan368" x="0 6.966 12.464 18.26 23.758 27.611 32.899 36.598 42.096 48.951 54.24 57.938" y="0">GenerateData</tspan></text></g></g><g id="g372" transform="matrix(0.24997804,0,0,0.24993098,0,3.433816e-6)"><g id="g374" clip-path="url(#clipPath378)"><text transform="matrix(1,0,0,-1,201.5,54.552)" style="font-variant:normal;font-weight:400;font-size:11.03999996px;font-family:Calibri;-inkscape-font-specification:Calibri;writing-mode:lr-tb;fill:#000;fill-opacity:1;fill-rule:nonzero;stroke:none" id="text382"><tspan id="tspan380" x="0 3.36" y="0">()</tspan></text></g></g><g id="g392" transform="matrix(0.24997804,0,0,0.24993098,0,3.433816e-6)"><g id="g394" clip-path="url(#clipPath398)"><text transform="matrix(1,0,0,-1,335.18,32.04)" style="font-variant:normal;font-weight:400;font-size:11.03999996px;font-family:Calibri;-inkscape-font-specification:Calibri;writing-mode:lr-tb;fill:#000;fill-opacity:1;fill-rule:nonzero;stroke:none" id="text402"><tspan id="tspan400" x="0 6.966 12.464 18.26 23.758 27.611 32.899 36.598 42.096 48.951 54.24 57.938" y="0">GenerateData</tspan></text></g></g><g id="g404" transform="matrix(0.24997804,0,0,0.24993098,0,3.433816e-6)"><g id="g406" clip-path="url(#clipPath410)"><text transform="matrix(1,0,0,-1,398.45,32.04)" style="font-variant:normal;font-weight:400;font-size:11.03999996px;font-family:Calibri;-inkscape-font-specification:Calibri;writing-mode:lr-tb;fill:#000;fill-opacity:1;fill-rule:nonzero;stroke:none" id="text414"><tspan id="tspan412" x="0 3.36" y="0">()</tspan></text></g></g><g id="g424" transform="matrix(0.24997804,0,0,0.24993098,0,3.433816e-6)"><g id="g426" clip-path="url(#clipPath430)"><text transform="matrix(1,0,0,-1,467.26,15.144)" style="font-variant:normal;font-weight:400;font-size:11.03999996px;font-family:Calibri;-inkscape-font-specification:Calibri;writing-mode:lr-tb;fill:#000;fill-opacity:1;fill-rule:nonzero;stroke:none" id="text434"><tspan id="tspan432" x="0 6.966 12.464 18.26 23.758 27.611 32.899 36.598 42.096 48.951 54.24 57.938" y="0">GenerateData</tspan></text></g></g><g id="g436" transform="matrix(0.24997804,0,0,0.24993098,0,3.433816e-6)"><g id="g438" clip-path="url(#clipPath442)"><text transform="matrix(1,0,0,-1,530.5,15.144)" style="font-variant:normal;font-weight:400;font-size:11.03999996px;font-family:Calibri;-inkscape-font-specification:Calibri;writing-mode:lr-tb;fill:#000;fill-opacity:1;fill-rule:nonzero;stroke:none" id="text446"><tspan id="tspan444" x="0 3.36" y="0">()</tspan></text></g></g></g></svg>