<svg xmlns="http://www.w3.org/2000/svg" xmlns:svg="http://www.w3.org/2000/svg" xmlns:xlink="http://www.w3.org/1999/xlink" id="svg2" x="0" xml:space="preserve" style="enable-background:new 0 0 40 32.9" y="0" version="1.1" viewBox="0 0 40 32.9"><metadata id="metadata50"/><defs id="defs48"><defs id="defs18"><circle id="SVGID_21_" cx="30.1" cy="23" r="9.9"/></defs><clipPath id="SVGID_2_"><use id="use22" width="100%" height="100%" x="0" y="0" style="overflow:visible" xlink:href="#SVGID_21_"/></clipPath></defs><style id="style4" type="text/css">.st0{display:none}.st1{display:inline;fill:#9d9d9c}.st28{clip-path:url(#SVGID_2_)}</style><g id="Ebene_4" class="st0"><rect id="rect7" width="1421.9" height="1801.4" x="-131.1" y="-179.7" class="st1"/></g><rect id="rect24" width="6.6" height="6.6" x="20.1" y="13.1" class="st28" clip-path="url(#SVGID_2_)" style="fill:#0f0;fill-opacity:1;stroke:none"/><rect id="rect26" width="6.6" height="6.6" x="33.4" y="13.1" class="st28" clip-path="url(#SVGID_2_)" style="fill:#0f0;fill-opacity:1;stroke:none"/><rect id="rect28" width="6.6" height="6.6" x="26.8" y="19.7" class="st28" clip-path="url(#SVGID_2_)" style="fill:#0f0;fill-opacity:1;stroke:none"/><rect id="rect30" width="6.6" height="6.6" x="20.1" y="26.3" class="st28" clip-path="url(#SVGID_2_)" style="fill:#0f0;fill-opacity:1;stroke:none"/><rect id="rect32" width="6.6" height="6.6" x="33.4" y="26.3" class="st28" clip-path="url(#SVGID_2_)" style="fill:#0f0;fill-opacity:1;stroke:none"/><path id="path34" d="m 30.1,13.1 c -5.5,0 -9.9,4.4 -9.9,9.9 0,5.5 4.4,9.9 9.9,9.9 5.5,0 9.9,-4.4 9.9,-9.9 0,-5.5 -4.5,-9.9 -9.9,-9.9 z m 0,18.6 c -4.8,0 -8.7,-3.9 -8.7,-8.7 0,-4.8 3.9,-8.7 8.7,-8.7 4.8,0 8.7,3.9 8.7,8.7 0,4.8 -3.9,8.7 -8.7,8.7 z" style="stroke:none;stroke-opacity:1;fill:#0f0;fill-opacity:1"/><path id="path38" d="M 1.3,21.4 0,23.7 c 6.2,3.6 13.1,5.3 20,5.3 0.7,0 1.5,0 2.2,-0.1 C 21.6,28.1 21.1,27.2 20.7,26.2 14.1,26.5 7.3,24.8 1.3,21.4 Z" style="stroke:none;fill:#0f0;fill-opacity:1"/><path id="path40" d="m 5.5,14.3 -1.4,2.3 c 4.9,2.8 10.4,4.2 15.9,4.2 0.1,0 0.2,0 0.4,0 0.2,-1 0.6,-1.9 1,-2.7 -5.5,0.3 -11,-1 -15.9,-3.8 z" style="stroke:none;fill:#0f0;fill-opacity:1"/><path id="path42" d="M 31.8,9.5 30.4,7.2 C 24,10.9 16,10.9 9.6,7.1 L 8.2,9.5 c 3.6,2.1 7.7,3.1 11.8,3.1 4.1,0 8.2,-1 11.8,-3.1 z" style="stroke:none;fill:#0f0;fill-opacity:1"/><path id="path44" d="M 27.7,2.3 26.4,0 C 22.5,2.3 17.6,2.3 13.7,0 l -1.4,2.3 c 2.4,1.4 5,2.1 7.7,2.1 2.7,0 5.3,-0.7 7.7,-2.1 z" style="stroke:none;fill:#0f0;fill-opacity:1"/></svg>