<svg xmlns="http://www.w3.org/2000/svg" xmlns:svg="http://www.w3.org/2000/svg" id="svg2" width="128" height="128" version="1.1" viewBox="0 0 1792 1792"><metadata id="metadata10"/><path id="path4326" d="m 1082.734,833.75533 q 0,-25.2869 -18.4789,-43.76579 -18.4789,-18.47889 -43.7657,-18.47889 l -248.97878,0 q -25.2869,0 -43.76579,18.47889 -18.47889,18.47889 -18.47889,43.76579 0,25.2869 18.47889,43.76578 18.47889,18.4789 43.76579,18.4789 l 248.97878,0 q 25.2868,0 43.7657,-18.4789 18.4789,-18.47888 18.4789,-43.76578 z m 560.2022,-186.73404 0,933.67021 q 0,25.2869 -18.4789,43.7657 -18.4788,18.4789 -43.7657,18.4789 l -1369.38309,0 q -25.2869,0 -43.7658,-18.4789 -18.47889,-18.4788 -18.47889,-43.7657 l 0,-933.67021 q 0,-25.2869 18.47889,-43.76578 18.4789,-18.4789 43.7658,-18.4789 l 1369.38309,0 q 25.2869,0 43.7657,18.4789 18.4789,18.47888 18.4789,43.76578 z m 62.2447,-435.71275 0,248.97871 q 0,25.28691 -18.4788,43.76579 -18.4789,18.47889 -43.7659,18.47889 l -1493.87238,0 q -25.2869,0 -43.76579,-18.47889 -18.478887,-18.47888 -18.478887,-43.76579 l 0,-248.97871 q 0,-25.2869 18.478887,-43.76579 18.47889,-18.47889 43.76579,-18.47889 l 1493.87238,0 q 25.287,0 43.7658,18.47889 18.4788,18.47889 18.4788,43.76579 z" style="fill:#0f0;fill-opacity:1"/></svg>