<svg xmlns="http://www.w3.org/2000/svg" xmlns:svg="http://www.w3.org/2000/svg" id="svg2" width="128" height="128" version="1.1" viewBox="0 0 2949120 2293760"><metadata id="metadata10"/><path id="path4" d="M 905336.44,2206720.1 1393242.3,1930240 V 1478080.1 L 905336.44,1714240 Z M 824018.8,1552960 1337336.5,1303840.1 824018.8,1054720 310701.17,1303840.1 Z m 1382400,653760.1 487905.8,-276480.1 V 1478080.1 L 2206418.8,1714240 Z M 2125101.1,1552960 2638418.8,1303840.1 2125101.1,1054720 1611783.5,1303840.1 Z M 1555877.6,1131040 2043783.5,893440.02 V 510400.03 L 1555877.6,746559.97 Z M 1474559.9,585279.98 2034889.3,313120 1474559.9,40960 914230.56,313120 Z M 2856960,1331200 v 599040 q 0,51840 -24141.3,96480.1 -24141.2,44639.9 -66070.5,67679.9 l -569223.6,322560 q -31764.7,20160 -72423.5,20160 -40658.8,0 -72423.6,-20160 l -569223.4,-322560 q -5082.4,-2879.9 -8894.2,-5760 -2541.1,2880.1 -8894,5760 l -569223.58,322560 q -31764.7,20160 -72423.52,20160 -40658.83,0 -72423.53,-20160 L 182371.76,2094400 q -41929.4,-23040 -66070.58,-67679.9 Q 92160,1982080 92160,1930240 v -599040 q 0,-54720 27317.65,-100799.9 27317.65,-46080 71788.23,-69120.1 L 742701.15,893440.02 V 317440 q 0,-54719.98 27317.65,-100799.99 Q 797336.45,170560 841807.03,147520 l 569223.47,-276480 q 29223.5,-14400 63529.4,-14400 34305.9,0 63529.4,14400 l 569223.6,276480 q 44470.5,23040 71788.2,69120.01 27317.7,46080.01 27317.7,100799.99 V 893440.02 L 2757854,1161280 q 45741.2,23040.1 72423.6,69120.1 26682.4,46079.9 26682.4,100799.9 z" style="fill:#0f0;fill-opacity:1;stroke-width:1.00000525"/></svg>