<svg xmlns="http://www.w3.org/2000/svg" xmlns:svg="http://www.w3.org/2000/svg" id="svg2" x="0" y="0" version="1.1" viewBox="0 0 40 29.1" style="enable-background:new 0 0 40 29.1" xml:space="preserve"><metadata id="metadata31"/><style id="style4" type="text/css">.st0{display:none}.st1{display:inline;fill:#9d9d9c}</style><g id="Ebene_4" class="st0"><rect id="rect7" width="1421.9" height="1801.4" x="-144" y="-86.6" class="st1"/></g><g id="Ebene_1" style="stroke:none;fill:#0f0;fill-opacity:1"><g id="g11" style="stroke:none;fill:#0f0;fill-opacity:1"><g id="g13" style="stroke:none;fill:#0f0;fill-opacity:1"><g id="XMLID_64_" style="stroke:none;fill:#0f0;fill-opacity:1"><g id="g16" style="stroke:none;fill:#0f0;fill-opacity:1"><path id="path18" d="M38.7,21.4l1.3,2.3c-6.2,3.5-13.1,5.3-20,5.3c-6.9,0-13.9-1.8-20-5.3l1.3-2.3C12.8,28,27.1,28,38.7,21.4z" style="stroke:none;fill:#0f0;fill-opacity:1"/><path id="path20" d="M34.6,14.3l1.3,2.3C31,19.4,25.5,20.8,20,20.8c-5.5,0-11-1.4-15.9-4.2l1.4-2.3C14.4,19.4,25.6,19.4,34.6,14.3z" style="stroke:none;fill:#0f0;fill-opacity:1"/><path id="path22" d="M30.5,7.1l1.4,2.3c-3.6,2.1-7.7,3.1-11.8,3.1s-8.2-1-11.8-3.1l1.3-2.3C16,10.9,24,10.9,30.5,7.1z" style="stroke:none;fill:#0f0;fill-opacity:1"/><path id="path24" d="M26.4,0l1.3,2.3c-2.4,1.4-5,2-7.7,2c-2.7,0-5.3-0.7-7.7-2.1L13.7,0C17.6,2.3,22.4,2.3,26.4,0z" style="stroke:none;fill:#0f0;fill-opacity:1"/></g></g></g></g></g></svg>