<svg xmlns="http://www.w3.org/2000/svg" xmlns:svg="http://www.w3.org/2000/svg" id="svg2985" width="64" height="64" version="1.1"><metadata id="metadata2990"/><g id="layer1"><g transform="scale(1,-1)" style="font-style:normal;font-variant:normal;font-weight:400;font-stretch:normal;font-size:72.20539093px;line-height:125%;font-family:FontAwesome;-inkscape-font-specification:FontAwesome;letter-spacing:0;word-spacing:0;fill:#0f0;fill-opacity:1;stroke:none" id="text2993"><path d="m 63.414367,-29.923177 c 0,-1.369968 -0.564105,-2.699643 -1.490848,-3.66668 L 35.692654,-59.820721 c -0.967037,-0.967037 -2.296712,-1.490848 -3.66668,-1.490848 -1.369968,0 -2.699644,0.523811 -3.626387,1.490848 L 2.1687224,-33.589857 c -0.9670365,0.967037 -1.53114108,2.296712 -1.53114108,3.66668 0,1.369969 0.56410458,2.659351 1.53114108,3.626387 l 3.021989,3.021989 c 0.9267433,0.967037 2.2564185,1.531141 3.6263869,1.531141 1.3699687,0 2.6996437,-0.564104 3.6263867,-1.531141 l 11.846197,-11.805904 0,28.366404 c 0,2.9011095 2.417591,4.7143029 5.157528,4.7143029 l 5.157528,0 c 2.739937,0 5.157528,-1.8131934 5.157528,-4.7143029 l 0,-28.366404 11.846197,11.805904 c 0.926743,0.967037 2.256418,1.531141 3.626387,1.531141 1.369968,0 2.699643,-0.564104 3.66668,-1.531141 l 3.021989,-3.021989 c 0.926743,-0.967036 1.490848,-2.256418 1.490848,-3.626387 z" style="fill:#0f0;fill-opacity:1" id="path7984"/></g></g></svg>