<svg xmlns="http://www.w3.org/2000/svg" xmlns:svg="http://www.w3.org/2000/svg" id="svg2989" width="64" height="64" version="1.1"><metadata id="metadata2994"/><g id="layer1"><g style="font-style:normal;font-variant:normal;font-weight:400;font-stretch:normal;font-size:70.42821503px;line-height:125%;font-family:FontAwesome;-inkscape-font-specification:FontAwesome;letter-spacing:0;word-spacing:0;fill:#0f0;fill-opacity:1;stroke:none" id="text2985"><path d="m 27.477322,54.751939 c 0,-1.454154 -1.532757,-1.257646 -2.515293,-1.257646 l -11.318821,0 c -3.458528,0 -6.2882332,-2.829705 -6.2882332,-6.288234 l 0,-27.668227 c 0,-3.458529 2.8297052,-6.288234 6.2882332,-6.288234 l 12.576467,0 c 1.768566,0 1.257647,-2.672499 1.257647,-3.7729397 0,-0.6681248 -0.589522,-1.2576467 -1.257647,-1.2576467 l -12.576467,0 c -6.2489317,0 -11.31882,5.0698884 -11.31882,11.3188204 l 0,27.668227 c 0,6.248932 5.0698883,11.31882 11.31882,11.31882 l 12.576467,0 c 1.768566,0 1.257647,-2.672499 1.257647,-3.77294 z M 63.949076,33.371946 c 0,-0.668125 -0.27511,-1.296949 -0.746728,-1.768566 L 41.822355,10.223386 C 41.350737,9.7517685 40.721914,9.4766583 40.053789,9.4766583 c -1.375551,0 -2.515293,1.1397427 -2.515293,2.5152937 l 0,11.31882 -17.607054,0 c -1.375551,0 -2.515294,1.139742 -2.515294,2.515293 l 0,15.091761 c 0,1.375551 1.139743,2.515293 2.515294,2.515293 l 17.607054,0 0,11.31882 c 0,1.375551 1.139742,2.515294 2.515293,2.515294 0.668125,0 1.296948,-0.27511 1.768566,-0.746728 L 63.202348,35.140511 c 0.471618,-0.471617 0.746728,-1.100441 0.746728,-1.768565 z" style="fill:#0f0;fill-opacity:1" id="path10734"/></g></g></svg>