<svg xmlns="http://www.w3.org/2000/svg" xmlns:svg="http://www.w3.org/2000/svg" id="svg2985" width="64" height="64" version="1.1"><metadata id="metadata2990"/><g id="layer1"><g transform="scale(1,-1)" style="font-style:normal;font-variant:normal;font-weight:400;font-stretch:normal;font-size:60.38721085px;line-height:125%;font-family:FontAwesome;-inkscape-font-specification:FontAwesome;letter-spacing:0;word-spacing:0;fill:#0f0;fill-opacity:1;stroke:none" id="text2993"><path d="m 10.037878,-14.705927 c 0,-0.57287 -0.5054736,-1.078343 -1.0783434,-1.078343 l -6.4700583,0 c -0.5728697,0 -1.078343,0.505473 -1.078343,1.078343 l 0,6.4700579 c 0,0.5728698 0.5054733,1.0783431 1.078343,1.0783431 l 6.4700583,0 c 0.5728698,0 1.0783434,-0.5054733 1.0783434,-1.0783431 l 0,-6.4700579 z m 0,-12.940117 c 0,-0.57287 -0.5054736,-1.078343 -1.0783434,-1.078343 l -6.4700583,0 c -0.5728697,0 -1.078343,0.505473 -1.078343,1.078343 l 0,6.470058 c 0,0.57287 0.5054733,1.078343 1.078343,1.078343 l 6.4700583,0 c 0.5728698,0 1.0783434,-0.505473 1.0783434,-1.078343 l 0,-6.470058 z m 0,-12.940117 c 0,-0.572869 -0.5054736,-1.078343 -1.0783434,-1.078343 l -6.4700583,0 c -0.5728697,0 -1.078343,0.505474 -1.078343,1.078343 l 0,6.470059 c 0,0.572869 0.5054733,1.078343 1.078343,1.078343 l 6.4700583,0 c 0.5728698,0 1.0783434,-0.505474 1.0783434,-1.078343 l 0,-6.470059 z m 51.760466,25.880234 c 0,-0.57287 -0.505473,-1.078343 -1.078343,-1.078343 l -45.290408,0 c -0.57287,0 -1.078343,0.505473 -1.078343,1.078343 l 0,6.4700579 c 0,0.5728698 0.505473,1.0783431 1.078343,1.0783431 l 45.290408,0 c 0.57287,0 1.078343,-0.5054733 1.078343,-1.0783431 l 0,-6.4700579 z m -51.760466,-38.82035 c 0,-0.57287 -0.5054736,-1.078343 -1.0783434,-1.078343 l -6.4700583,0 c -0.5728697,0 -1.078343,0.505473 -1.078343,1.078343 l 0,6.470058 c 0,0.57287 0.5054733,1.078343 1.078343,1.078343 l 6.4700583,0 c 0.5728698,0 1.0783434,-0.505473 1.0783434,-1.078343 l 0,-6.470058 z m 51.760466,25.880233 c 0,-0.57287 -0.505473,-1.078343 -1.078343,-1.078343 l -45.290408,0 c -0.57287,0 -1.078343,0.505473 -1.078343,1.078343 l 0,6.470058 c 0,0.57287 0.505473,1.078343 1.078343,1.078343 l 45.290408,0 c 0.57287,0 1.078343,-0.505473 1.078343,-1.078343 l 0,-6.470058 z m 0,-12.940117 c 0,-0.572869 -0.505473,-1.078343 -1.078343,-1.078343 l -45.290408,0 c -0.57287,0 -1.078343,0.505474 -1.078343,1.078343 l 0,6.470059 c 0,0.572869 0.505473,1.078343 1.078343,1.078343 l 45.290408,0 c 0.57287,0 1.078343,-0.505474 1.078343,-1.078343 l 0,-6.470059 z m 0,-12.940116 c 0,-0.57287 -0.505473,-1.078343 -1.078343,-1.078343 l -45.290408,0 c -0.57287,0 -1.078343,0.505473 -1.078343,1.078343 l 0,6.470058 c 0,0.57287 0.505473,1.078343 1.078343,1.078343 l 45.290408,0 c 0.57287,0 1.078343,-0.505473 1.078343,-1.078343 l 0,-6.470058 z" style="fill:#0f0;fill-opacity:1" id="path11834"/></g></g></svg>