<svg xmlns="http://www.w3.org/2000/svg" xmlns:svg="http://www.w3.org/2000/svg" id="svg2" width="84.61" height="84.61" version="1.1" viewBox="0 0 84.61 84.61"><metadata id="metadata10"/><path style="fill:#000;fill-opacity:1;stroke:none;stroke-width:.05084746;stroke-opacity:1" id="path4" d="M 28.322034,58.5763 H 58.57627 V 28.3221 Z M 26.033898,56.2882 56.28814,26.0339 H 26.033898 Z m 58.576272,3.9152 v 9.7627 q 0,0.7119 -0.45763,1.1695 -0.45762,0.4577 -1.16949,0.4577 H 71.59322 v 11.3898 q 0,0.7118 -0.45763,1.1695 -0.45762,0.4576 -1.16949,0.4576 h -9.76271 q -0.71186,0 -1.16949,-0.4576 -0.45763,-0.4577 -0.45763,-1.1695 V 71.5933 H 14.644068 q -0.711865,0 -1.169492,-0.4577 -0.457627,-0.4576 -0.457627,-1.1695 V 26.0339 H 1.627119 q -0.711865,0 -1.169492,-0.4576 Q 0,25.1187 0,24.4068 V 14.6441 Q 0,13.9322 0.457627,13.4746 0.915254,13.017 1.627119,13.017 h 11.38983 V 1.6271 q 0,-0.7118 0.457627,-1.1694 Q 13.932203,0 14.644068,0 h 9.762712 q 0.711864,0 1.169491,0.4577 0.457627,0.4576 0.457627,1.1694 V 13.017 H 69.30508 L 81.81356,0.4577 Q 82.32203,0 82.98305,0 q 0.66102,0 1.16949,0.4577 0.45763,0.5084 0.45763,1.1694 0,0.6611 -0.45763,1.1695 L 71.59322,15.3051 v 43.2712 h 11.38983 q 0.71187,0 1.16949,0.4576 0.45763,0.4577 0.45763,1.1695 z"/></svg>