<svg xmlns="http://www.w3.org/2000/svg" xmlns:svg="http://www.w3.org/2000/svg" id="svg1138" width="48" height="48" version="1.1" viewBox="0 0 12.7 12.7"><metadata id="metadata1135"/><g id="layer3"><g id="g4949" transform="matrix(0.55735848,0,0,0.55735848,-100.73095,-221.47972)"><g id="g3808" transform="translate(-78.5,-7)"><path id="path3004" d="m 265.125,415.73718 c 2.66059,2.30475 8.06002,1.41215 10.5,-1.125 1.70795,-1.77597 2.30703,-5.69994 0.5,-7.375 -2.77871,-2.57579 -8.82218,-1.28388 -11.25,1.625 -1.4694,1.76055 -1.48328,5.37353 0.25,6.875 z" style="fill:none;stroke:#00adff;stroke-width:2;stroke-linecap:butt;stroke-linejoin:miter;stroke-miterlimit:4;stroke-dasharray:none;stroke-opacity:1"/><path id="path3774" d="m 260.625,425.73718 c 6.84332,-2.29563 3.78655,-5.82877 5.625,-8.75" style="fill:none;stroke:#00adff;stroke-width:2;stroke-linecap:butt;stroke-linejoin:miter;stroke-miterlimit:4;stroke-dasharray:none;stroke-opacity:1"/><circle id="path3776" cx="245.375" cy="396.112" r="1.625" transform="matrix(1.7077889,0.59262847,-0.4791464,1.3807655,37.309511,-275.74206)" style="fill:#00adff;fill-opacity:1;stroke:none"/></g><g id="g3802" transform="translate(-73,-8.625)"><path id="path3778" d="m 271.75,420.48718 c 0,7.25 0,7.375 0,7.375" style="fill:none;stroke:#00adff;stroke-width:2;stroke-linecap:butt;stroke-linejoin:miter;stroke-miterlimit:4;stroke-dasharray:none;stroke-opacity:1"/><path id="path3778-1" d="m 268.0625,424.11218 c 7.25,0 7.375,0 7.375,0" style="fill:none;stroke:#00adff;stroke-width:2;stroke-linecap:butt;stroke-linejoin:miter;stroke-miterlimit:4;stroke-dasharray:none;stroke-opacity:1"/></g></g></g></svg>