<svg xmlns="http://www.w3.org/2000/svg" xmlns:svg="http://www.w3.org/2000/svg" xmlns:xlink="http://www.w3.org/1999/xlink" id="svg1138" width="48" height="48" version="1.1" viewBox="0 0 12.7 12.7"><defs id="defs1132"><linearGradient id="linearGradient2169"><stop id="stop2165" offset="0" style="stop-color:gray;stop-opacity:1"/><stop id="stop2167" offset="1" style="stop-color:#afafaf;stop-opacity:1"/></linearGradient><linearGradient id="linearGradient5112"><stop style="stop-color:#00adff;stop-opacity:1" id="stop5114" offset="0"/><stop style="stop-color:#bfebff;stop-opacity:1" id="stop5116" offset="1"/></linearGradient><linearGradient id="linearGradient5120"><stop style="stop-color:#00a6f4;stop-opacity:1" id="stop5122" offset="0"/><stop style="stop-color:#00618e;stop-opacity:1" id="stop5124" offset="1"/></linearGradient><linearGradient id="linearGradient2146" x1="42.308" x2="36.429" y1="441.159" y2="440.953" gradientTransform="matrix(0.47752202,0.35529505,-0.3739754,0.45366943,154.04728,-208.55565)" gradientUnits="userSpaceOnUse" xlink:href="#linearGradient5112"/><linearGradient id="linearGradient2171" x1="41.988" x2="36.349" y1="447.875" y2="447.954" gradientTransform="matrix(0.47752202,0.35529505,-0.3739754,0.45366943,154.04728,-208.55565)" gradientUnits="userSpaceOnUse" xlink:href="#linearGradient2169"/></defs><metadata id="metadata1135"/><g id="layer3"><g id="g2811"><g id="g2801"><ellipse id="path2163" cx="4.536" cy="10.241" rx="2.008" ry="1.002" style="fill:#ee9f9f;fill-opacity:.352941;stroke:none;stroke-width:.287058;stroke-linecap:round;stroke-linejoin:round;stroke-miterlimit:4;stroke-dasharray:none;stroke-opacity:1"/><path d="M 6.2965147,8.7598857 A 6.0845579,1.4866868 0 0 0 0.26535847,10.246613 6.0845579,1.4866868 0 0 0 6.3502581,11.733346 6.0845579,1.4866868 0 0 0 12.434641,10.246613 6.0845579,1.4866868 0 0 0 6.3502581,8.7598857 a 6.0845579,1.4866868 0 0 0 -0.053743,0 z M 4.436163,9.2797472 a 1.7614551,0.87923661 0 0 1 0.054778,0 A 1.7614551,0.87923661 0 0 1 6.252074,10.158765 1.7614551,0.87923661 0 0 1 4.490941,11.037783 1.7614551,0.87923661 0 0 1 2.7292914,10.158765 1.7614551,0.87923661 0 0 1 4.436163,9.2797472 Z" style="fill:#f0a0a0;fill-opacity:1;stroke-width:.264583;stroke-linecap:round;stroke-linejoin:round" id="path2085"/></g><g id="g2797"><rect id="rect2180" width="3.922" height=".526" x="7.914" y="-5.135" transform="matrix(0.8025237,0.59662025,-0.58000863,0.81461033,0,0)" style="fill:#fff;fill-opacity:1;stroke:none;stroke-width:.231708;stroke-linecap:round;stroke-linejoin:round;stroke-miterlimit:4;stroke-dasharray:none;stroke-opacity:1"/><path d="m 4.8667368,7.696065 1.429785,1.0638159 -1.067564,0.9102925 C 4.6660424,9.6900635 4.32258,9.4437363 4.2127059,8.9140422 Z" style="fill:#fff;fill-opacity:1;stroke-width:.265876;stroke-linecap:round;stroke-linejoin:round" id="rect2108"/><path d="M 4.4780707,7.4584314 6.6282793,9.0582707 6.1285044,9.3195821 C 4.9983936,9.2183278 4.7182654,8.859455 4.3308159,7.9820316 Z" style="fill:url(#linearGradient2171);fill-opacity:1;stroke-width:.265876;stroke-linecap:round;stroke-linejoin:round" id="rect2111"/><path d="M 9.0251515,0.96665889 12.169781,3.3063859 6.6256219,9.0562935 C 5.4947396,9.0402244 4.6843653,8.421289 4.4780707,7.4584314 Z" style="fill:url(#linearGradient2146);fill-opacity:1;stroke-width:.248238;stroke-linecap:round;stroke-linejoin:round;stroke-miterlimit:4;stroke-dasharray:none" id="rect2105"/></g></g></g></svg>