<svg xmlns="http://www.w3.org/2000/svg" xmlns:svg="http://www.w3.org/2000/svg" xmlns:xlink="http://www.w3.org/1999/xlink" id="svg1138" width="48" height="48" version="1.1" viewBox="0 0 12.7 12.7"><defs id="defs1132"><linearGradient id="linearGradient5141" x1="70.313" x2="66.869" y1="413.84" y2="406.965" gradientUnits="userSpaceOnUse" xlink:href="#linearGradient5112"/><linearGradient id="linearGradient5112"><stop style="stop-color:#00adff;stop-opacity:1" id="stop5114" offset="0"/><stop style="stop-color:#bfebff;stop-opacity:1" id="stop5116" offset="1"/></linearGradient><linearGradient id="linearGradient5143" x1="61.281" x2="50.845" y1="451.388" y2="451.708" gradientUnits="userSpaceOnUse" xlink:href="#linearGradient5120"/><linearGradient id="linearGradient5120"><stop style="stop-color:#00a6f4;stop-opacity:1" id="stop5122" offset="0"/><stop style="stop-color:#00618e;stop-opacity:1" id="stop5124" offset="1"/></linearGradient></defs><metadata id="metadata1135"/><g id="layer3"><g id="g5054" transform="matrix(0.58831823,0,0,0.58831823,-68.996125,-278.70063)"><g id="g5133" transform="translate(73.539105,41.896077)"><g style="fill:#00adff;fill-opacity:1" id="g5099" transform="matrix(0.90666946,0,0,0.90666946,5.556275,39.228766)"><path id="rect4974" d="m 69.84375,404.21875 c -0.08109,-0.0192 -0.156532,0.007 -0.21875,0.0312 -0.0087,0.003 -0.02292,-0.004 -0.03125,0 l -10.40625,5.40625 4.3125,8.3125 10.40625,-5.4375 c 0.0122,-0.006 0.02012,-0.0231 0.03125,-0.0312 0.482409,-0.35498 -0.02611,-2.3854 -1.1875,-4.625 -1.039651,-2.00485 -2.258961,-3.50261 -2.90625,-3.65625 z" transform="matrix(1.1029378,0,0,1.1029378,-16.3304,-12.246763)" style="fill:url(#linearGradient5141);fill-opacity:1;stroke:none"/></g><ellipse id="path4977" cx="56.172" cy="451.55" ry="1.219" transform="matrix(0.41850495,0.80430288,-0.80430288,0.41850495,391.77103,207.77835)" style="fill:url(#linearGradient5143);fill-opacity:1;stroke:none" rx="5.141"/><path id="path5019" d="m 54.578607,443.81261 c 0,0 -0.950095,-7.34364 -2.501182,-8.8849 -0.773066,-0.76816 -0.456375,3.23746 -0.456375,3.23746" style="fill:none;stroke:#007eb8;stroke-width:.551469;stroke-linecap:round;stroke-linejoin:miter;stroke-miterlimit:4;stroke-dasharray:none;stroke-opacity:1" transform="matrix(0.90666946,0,0,0.90666946,5.556275,39.228766)"/><circle style="fill:#007eb8;fill-opacity:1;stroke:none" id="path5034" cx="55.969" cy="441.581" r=".375" transform="matrix(1.4583333,0,0,1.4583333,-26.527344,-202.17251)"/><path style="fill:#f0a0a0;fill-opacity:1;stroke:none" id="path5029" d="m 53.9375,443.34375 c -0.49647,0.31615 -1.337012,0.93474 -1.40625,1.40625 0.105873,0.69145 0.319341,1.7934 0.1875,3.09375 -4.847506,0.21233 -8.53125,1.23756 -8.53125,2.5 0,1.41565 4.632332,2.5625 10.34375,2.5625 5.711418,0 10.34375,-1.14685 10.34375,-2.5625 0,-1.41565 -4.632332,-2.5625 -10.34375,-2.5625 -0.159692,0 -0.310826,-0.002 -0.46875,0 -0.02057,-0.55989 -0.01656,-1.12761 0.15625,-1.6875 0.474392,-0.19225 0.209659,-1.67055 -0.28125,-2.75 z"/></g></g></g></svg>