<svg xmlns="http://www.w3.org/2000/svg" xmlns:svg="http://www.w3.org/2000/svg" id="svg1138" width="48" height="48" version="1.1" viewBox="0 0 12.7 12.7"><metadata id="metadata1135"/><g id="layer3"><g id="g904" transform="matrix(1.0128753,0,0,1.0128753,-0.05045182,-0.04169099)"><path id="path853" d="M 11.528703,2.8957314 C 11.00977,1.645937 9.4147306,0.45653618 8.0907685,0.73654049 6.6231741,1.0469216 5.2730481,2.9986484 5.5752063,4.4679578 5.9652462,6.3646099 8.6671469,8.34492 10.45959,7.6124104 11.951895,7.0025571 12.146904,4.3845983 11.528703,2.8957314 Z" style="fill:#f0a0a0;fill-opacity:1;stroke:#00adff;stroke-width:.78366;stroke-linecap:butt;stroke-linejoin:miter;stroke-miterlimit:4;stroke-dasharray:none;stroke-opacity:1"/><path id="path853-1-3" d="m 1.2749072,11.005861 c 0.762973,1.10446 2.4036018,1.71836 3.4287594,0.899122 C 5.8400394,10.996869 6.4428384,8.4143417 5.8015805,6.9936442 4.9738162,5.1597416 2.2038482,4.1559685 0.90982815,5.6356814 c -1.077343,1.2319383 -0.543838,4.0544508 0.36507905,5.3701796 z" style="fill:#ee9f9f;fill-opacity:.352941;stroke:none;stroke-width:.231985px;stroke-linecap:butt;stroke-linejoin:miter;stroke-opacity:1"/><path id="path1434" d="M 8.552383,9.9976208 V 2.9058836 L 3.4120633,8.0462033 H 5.6966496 L 4.0848388,10.837942 5.3449761,11.565483 7.0371204,8.6346036 Z" style="fill:#fff;fill-opacity:1;stroke:#000;stroke-width:.53307;stroke-linecap:round;stroke-linejoin:round;stroke-miterlimit:4;stroke-dasharray:none;stroke-opacity:1"/></g></g></svg>