<svg xmlns="http://www.w3.org/2000/svg" xmlns:svg="http://www.w3.org/2000/svg" id="svg1138" width="48" height="48" version="1.1" viewBox="0 0 12.7 12.7"><defs id="defs1132"><linearGradient id="linearGradient5112"><stop id="stop5114" offset="0" style="stop-color:#00adff;stop-opacity:1"/><stop id="stop5116" offset="1" style="stop-color:#bfebff;stop-opacity:1"/></linearGradient><linearGradient id="linearGradient5120"><stop id="stop5122" offset="0" style="stop-color:#00a6f4;stop-opacity:1"/><stop id="stop5124" offset="1" style="stop-color:#00618e;stop-opacity:1"/></linearGradient><linearGradient id="linearGradient4826"><stop id="stop4828" offset="0" style="stop-color:#f0a0a0;stop-opacity:1"/><stop id="stop4830" offset="1" style="stop-color:#c86464;stop-opacity:0"/></linearGradient></defs><metadata id="metadata1135"/><g id="layer3"><g style="display:inline" id="g4941" transform="matrix(0.55797517,0,0,0.55797517,-24.077083,-240.84825)"><g style="display:inline" id="g4342" transform="matrix(1.1199207,0,0,1.1199207,-98.34032,-57.191898)"><g id="g4311" transform="rotate(42.139813,142.66406,454.39548)"><rect style="fill:#00adff;fill-opacity:1;stroke:none" id="rect4291" width="14.3" height="2" x="131.193" y="452.191"/><rect style="fill:#fff;fill-opacity:1;stroke:none" id="rect4291-9" width="2.633" height="2" x="128.579" y="452.191"/></g><path id="path4315" d="m 128.05704,440.21983 -0.94007,-0.94988 -1.31542,0.23591 0.61289,-1.18758 -0.63085,-1.17814 1.31885,0.2159 0.92554,-0.96403 0.2022,1.32102 1.20286,0.58233 -1.19388,0.60053 z" transform="translate(4.6669048,0.77781746)" style="fill:#f0a0a0;fill-opacity:1;stroke:none"/><path id="path4315-3" d="m 128.05704,440.21983 -0.94007,-0.94988 -1.31542,0.23591 0.61289,-1.18758 -0.63085,-1.17814 1.31885,0.2159 0.92554,-0.96403 0.2022,1.32102 1.20286,0.58233 -1.19388,0.60053 z" transform="matrix(0.67312163,-0.59018349,0.57650582,0.68909152,-208.12989,221.84494)" style="fill:#f0a0a0;fill-opacity:1;stroke:none"/><path id="path4315-4" d="m 128.05704,440.21983 -0.94007,-0.94988 -1.31542,0.23591 0.61289,-1.18758 -0.63085,-1.17814 1.31885,0.2159 0.92554,-0.96403 0.2022,1.32102 1.20286,0.58233 -1.19388,0.60053 z" transform="rotate(-49.389213,133.07208,439.20054)" style="fill:#f0a0a0;fill-opacity:1;stroke:none"/></g></g></g></svg>