<svg xmlns="http://www.w3.org/2000/svg" xmlns:svg="http://www.w3.org/2000/svg" id="svg1138" width="48" height="48" version="1.1" viewBox="0 0 12.7 12.7"><defs id="defs1132"><linearGradient id="linearGradient5112"><stop id="stop5114" offset="0" style="stop-color:#00adff;stop-opacity:1"/><stop id="stop5116" offset="1" style="stop-color:#bfebff;stop-opacity:1"/></linearGradient><linearGradient id="linearGradient5120"><stop id="stop5122" offset="0" style="stop-color:#00a6f4;stop-opacity:1"/><stop id="stop5124" offset="1" style="stop-color:#00618e;stop-opacity:1"/></linearGradient><linearGradient id="linearGradient4826"><stop id="stop4828" offset="0" style="stop-color:#f0a0a0;stop-opacity:1"/><stop id="stop4830" offset="1" style="stop-color:#c86464;stop-opacity:0"/></linearGradient></defs><metadata id="metadata1135"/><g id="layer3"><g style="display:inline" id="g4941" transform="matrix(0.55797517,0,0,0.55797517,-24.077083,-240.84825)"><g id="g4034" transform="matrix(1.0903955,0,0,1.0903955,68.975722,-638.61948)"><path style="fill:#f0a0a0;fill-opacity:1;stroke:none" id="rect3106-1" d="m -17.715754,987.94743 c -1.597279,0.2543 -1.46135,6.3487 -3.28125,9.78122 -0.652424,1.2305 -1.528719,2.35895 -2.25,3.21885 v 1.0312 h 20.0000004 v -2.15625 c -0.341622,-1.9855 -1.166754,-4.216 -3.25,-3.7188 -1.859893,0.4439 -0.963423,3.329 -2.875,3.375 -1.7040124,0.041 -1.1715544,-5.69782 -2.5000004,-5.25002 -1.625796,0.548 -0.880393,2.90822 -2,3.62502 -0.779327,0.4989 -1.00982,-9.11672 -3.5,-9.87502 -0.122984,-0.038 -0.237265,-0.048 -0.34375,-0.031 z"/><path style="fill:gray;fill-opacity:1;stroke:none" id="rect3106" d="m -17.715754,987.94733 c -1.597279,0.2543 -1.46135,6.3488 -3.28125,9.78132 -0.652424,1.2305 -1.528719,2.35885 -2.25,3.21875 v 1.0313 h 9.375 v -4.12505 c -0.779327,0.4989 -1.00982,-9.11672 -3.5,-9.87502 -0.122984,-0.038 -0.237265,-0.048 -0.34375,-0.031 z"/><path style="fill:#f0a0a0;fill-opacity:1;stroke:#00adff;stroke-width:1.0064;stroke-linecap:square;stroke-linejoin:miter;stroke-miterlimit:4;stroke-dasharray:none;stroke-opacity:1" id="path3881" d="m -14.059504,982.47769 v 18.99451"/></g></g></g></svg>