<svg xmlns="http://www.w3.org/2000/svg" xmlns:svg="http://www.w3.org/2000/svg" id="svg1138" width="48" height="48" version="1.1" viewBox="0 0 12.7 12.7"><defs id="defs1132"><linearGradient id="linearGradient5112"><stop style="stop-color:#00adff;stop-opacity:1" id="stop5114" offset="0"/><stop style="stop-color:#bfebff;stop-opacity:1" id="stop5116" offset="1"/></linearGradient><linearGradient id="linearGradient5120"><stop style="stop-color:#00a6f4;stop-opacity:1" id="stop5122" offset="0"/><stop style="stop-color:#00618e;stop-opacity:1" id="stop5124" offset="1"/></linearGradient><linearGradient id="linearGradient4826"><stop style="stop-color:#f0a0a0;stop-opacity:1" id="stop4828" offset="0"/><stop style="stop-color:#c86464;stop-opacity:0" id="stop4830" offset="1"/></linearGradient></defs><metadata id="metadata1135"/><g id="layer3"><g id="g4941" transform="matrix(0.55797517,0,0,0.55797517,-24.077083,-240.84825)" style="display:inline"><g id="g5721"><path style="fill:#f0a0a0;fill-opacity:1;stroke:none" id="path4916" d="m 51.71875,445.15625 c -4.646313,0.4773 -8.09375,2.10246 -8.09375,4.03125 0,0.82413 0.640987,1.60303 1.71875,2.25 1.600543,-0.82321 2.599922,-1.63473 3.683472,-2.70565 1.061029,-1.04866 1.667331,-2.72732 2.691528,-3.5756 z m 7.375,0.25 c 2.497404,1.94473 -0.294838,4.25967 -2,5.3125 -2.294021,1.41642 -5.231745,1.8029 -7.8125,2.09375 1.563527,0.33169 3.335671,0.5625 5.25,0.5625 6.019904,0 10.90625,-1.88368 10.90625,-4.1875 0,-1.67908 -2.607273,-3.11974 -6.34375,-3.78125 z"/><g id="g4904" transform="rotate(21.069103,61.452343,450.42305)"><g id="g4900"><rect style="fill:#fff;fill-opacity:1;stroke:none" id="rect4841" width="9.143" height="2.886" x="50.114" y="444.791"/><ellipse id="path4843" cx="54.696" cy="450.434" rx="4.554" ry="2.814" style="fill:#fff;fill-opacity:1;stroke:none" transform="translate(-0.01075506,-2.8285714)"/></g><rect id="rect4841-2" width="9.143" height="9.029" x="50.114" y="435.776" style="fill:#00adff;fill-opacity:1;stroke:none"/></g></g></g></g></svg>